<svg width="151" height="68" viewBox="0 0 151 68" fill="none" xmlns="http://www.w3.org/2000/svg">
<path fill-rule="evenodd" clip-rule="evenodd" d="M15.2475 35.2183L12.3411 32.3963L24.3246 20.672L36.2626 32.3453L24.387 43.9563L18.909 38.6013L21.753 35.8417L24.3246 38.3577L30.4667 32.351L24.3246 26.3443L15.2475 35.2183Z" fill="white"/>
<path fill-rule="evenodd" clip-rule="evenodd" d="M33.4526 35.7396L36.3591 38.5616L24.3756 50.2803L12.4375 38.6126L24.3131 26.996L29.7855 32.3453L26.9755 35.088L24.3756 32.5946L18.2334 38.6013L24.3756 44.608L33.4526 35.7396Z" fill="white"/>
<path fill-rule="evenodd" clip-rule="evenodd" d="M43.4155 29.1777H44.5281C44.9596 29.1777 45.2491 29.3024 45.2491 29.6367C45.2491 30.0674 44.9709 30.192 44.5281 30.192H43.4155V29.1777ZM41.3038 34.2777H45.1923C46.4071 34.2777 47.5935 33.5807 47.5935 32.2434C47.5935 31.2574 47.0202 30.7814 46.4014 30.5717C46.9123 30.2997 47.2473 29.937 47.2473 29.2627C47.2473 28.5884 46.8613 27.5797 45.0561 27.5797H41.2981V34.2777H41.3038ZM43.4155 31.433H44.7382C45.2377 31.433 45.4761 31.6484 45.4761 32.045C45.4761 32.5607 45.0901 32.6854 44.6473 32.6854H43.4098V31.433H43.4155Z" fill="white"/>
<path fill-rule="evenodd" clip-rule="evenodd" d="M53.1735 31.1893C53.1735 30.2487 53.1906 29.2853 50.812 29.2853C49.6313 29.2853 48.3029 29.512 48.2462 30.8777H50.0173C50.0287 30.668 50.1422 30.379 50.7269 30.379C51.0334 30.379 51.3513 30.5037 51.3513 30.8323C51.3513 31.161 51.0902 31.2177 50.8291 31.263C49.8584 31.4443 48.0134 31.3877 48.0134 32.9233C48.0134 33.9433 48.8082 34.3967 49.7732 34.3967C50.3863 34.3967 50.971 34.2663 51.374 33.813H51.3911C51.3797 33.9433 51.4081 34.1417 51.4592 34.272H53.4006C53.1906 33.966 53.1679 33.5523 53.1679 33.184V31.1837L53.1735 31.1893ZM51.3456 32.5437C51.3173 33.048 50.9823 33.303 50.5509 33.303C50.2046 33.303 49.9549 33.0763 49.9549 32.8553C49.9549 32.5267 50.1762 32.4247 50.5963 32.3283C50.8574 32.2717 51.1186 32.2093 51.3456 32.096V32.5493V32.5437Z" fill="white"/>
<path fill-rule="evenodd" clip-rule="evenodd" d="M54.0989 34.2777H56.0006V31.705C56.0006 30.9287 56.432 30.7643 56.7612 30.7643C57.3176 30.7643 57.3857 31.161 57.3857 31.722V34.272H59.2874V30.9343C59.2874 29.818 58.4699 29.2797 57.5787 29.2797C56.8237 29.2797 56.3128 29.5347 55.9552 30.022H55.9381V29.4043H54.1046V34.272L54.0989 34.2777Z" fill="white"/>
<path fill-rule="evenodd" clip-rule="evenodd" d="M65.2649 31.2573C65.1514 29.9143 64.0331 29.2853 62.7274 29.2853C61.2288 29.2853 60.031 30.3053 60.031 31.8467C60.031 33.388 61.2345 34.3967 62.7274 34.3967C64.0728 34.3967 65.1344 33.6543 65.3217 32.334H63.5051C63.4654 32.7193 63.1816 33.048 62.7672 33.048C62.0349 33.048 61.9327 32.436 61.9327 31.8467C61.9327 31.2573 62.0349 30.634 62.7672 30.634C62.9715 30.634 63.1362 30.6907 63.2497 30.7983C63.3746 30.9003 63.4427 31.059 63.4597 31.2573H65.2649Z" fill="white"/>
<path fill-rule="evenodd" clip-rule="evenodd" d="M69.3523 31.8353C69.3523 32.351 69.2557 33.048 68.5348 33.048C67.8139 33.048 67.7174 32.351 67.7174 31.8353C67.7174 31.3197 67.8139 30.634 68.5348 30.634C69.2557 30.634 69.3523 31.3197 69.3523 31.8353ZM71.2539 31.8353C71.2539 30.4867 70.4081 29.2853 68.5348 29.2853C66.6615 29.2853 65.8157 30.4867 65.8157 31.8353C65.8157 33.184 66.6615 34.3967 68.5348 34.3967C70.4081 34.3967 71.2539 33.184 71.2539 31.8353Z" fill="white"/>
<path fill-rule="evenodd" clip-rule="evenodd" d="M78.4746 31.8354C78.4746 32.419 78.3214 33.048 77.6402 33.048C76.959 33.048 76.8 32.419 76.8 31.8354C76.8 31.2517 76.9533 30.634 77.6402 30.634C78.327 30.634 78.4746 31.263 78.4746 31.8354ZM80.3139 27.5797H78.4122V29.9484H78.3952C78.1113 29.5347 77.6004 29.291 77.0327 29.291C75.3638 29.291 74.9097 30.6794 74.9097 31.824C74.9097 33.0424 75.5909 34.4024 77.0044 34.4024C77.9353 34.4024 78.2249 34.0567 78.4633 33.745H78.4803V34.2777H80.3196V27.5797H80.3139Z" fill="white"/>
<path fill-rule="evenodd" clip-rule="evenodd" d="M86.5243 32.2603C86.5243 30.362 85.6671 29.2853 83.6916 29.2853C82.1135 29.2853 81.0576 30.4413 81.0576 31.858C81.0576 33.4787 82.2611 34.4023 83.8562 34.4023C84.9916 34.4023 86.0361 33.9093 86.4221 32.861H84.6453C84.492 33.0933 84.1514 33.2067 83.8506 33.2067C83.2545 33.2067 82.9253 32.81 82.8798 32.2603H86.5299H86.5243ZM82.8855 31.297C82.9707 30.7757 83.2999 30.481 83.8676 30.481C84.3558 30.481 84.7021 30.8437 84.7021 31.297H82.8855Z" fill="white"/>
<path fill-rule="evenodd" clip-rule="evenodd" d="M92.3088 30.9287C92.3088 29.4327 93.1376 29.087 93.6712 29.087C94.2048 29.087 95.0393 29.4327 95.0393 30.9287C95.0393 32.4247 94.2105 32.7647 93.6712 32.7647C93.1319 32.7647 92.3088 32.419 92.3088 30.9287ZM90.1914 30.9287C90.1914 32.9744 91.5822 34.4364 93.6655 34.4364C95.7489 34.4364 97.1454 32.9744 97.1454 30.9287C97.1454 28.883 95.7546 27.421 93.6655 27.421C91.5765 27.421 90.1914 28.883 90.1914 30.9287Z" fill="white"/>
<path fill-rule="evenodd" clip-rule="evenodd" d="M102.958 31.2573C102.845 29.9143 101.726 29.2853 100.421 29.2853C98.9221 29.2853 97.7244 30.3053 97.7244 31.8467C97.7244 33.388 98.9278 34.3967 100.421 34.3967C101.766 34.3967 102.828 33.6543 103.015 32.334H101.199C101.159 32.7193 100.869 33.048 100.461 33.048C99.7282 33.048 99.6261 32.436 99.6261 31.8467C99.6261 31.2573 99.7339 30.634 100.461 30.634C100.665 30.634 100.824 30.6907 100.943 30.7983C101.068 30.9003 101.136 31.059 101.153 31.2573H102.958Z" fill="white"/>
<path fill-rule="evenodd" clip-rule="evenodd" d="M108.743 31.2573C108.623 29.9143 107.511 29.2853 106.205 29.2853C104.707 29.2853 103.509 30.3053 103.509 31.8467C103.509 33.388 104.712 34.3967 106.205 34.3967C107.551 34.3967 108.612 33.6543 108.799 32.334H106.983C106.943 32.7193 106.659 33.048 106.245 33.048C105.513 33.048 105.41 32.436 105.41 31.8467C105.41 31.2573 105.513 30.634 106.245 30.634C106.449 30.634 106.608 30.6907 106.727 30.7983C106.852 30.9003 106.92 31.059 106.938 31.2573H108.743Z" fill="white"/>
<path fill-rule="evenodd" clip-rule="evenodd" d="M111.451 27.5797H109.549V28.883H111.451V27.5797ZM109.543 34.2777H111.445V29.41H109.543V34.2777Z" fill="white"/>
<path fill-rule="evenodd" clip-rule="evenodd" d="M115.805 31.8354C115.805 32.419 115.651 33.048 114.964 33.048C114.278 33.048 114.13 32.419 114.13 31.8354C114.13 31.2517 114.283 30.634 114.964 30.634C115.646 30.634 115.805 31.263 115.805 31.8354ZM117.638 27.5797H115.736V29.9484H115.719C115.43 29.5347 114.925 29.291 114.351 29.291C112.682 29.291 112.228 30.6794 112.228 31.824C112.228 33.0424 112.909 34.4024 114.323 34.4024C115.254 34.4024 115.543 34.0567 115.788 33.745H115.805V34.2777H117.638V27.5797Z" fill="white"/>
<path fill-rule="evenodd" clip-rule="evenodd" d="M123.854 32.2603C123.854 30.362 122.997 29.2853 121.016 29.2853C119.438 29.2853 118.382 30.4413 118.382 31.858C118.382 33.4787 119.58 34.4023 121.18 34.4023C122.31 34.4023 123.36 33.9093 123.741 32.861H121.964C121.811 33.0933 121.47 33.2067 121.163 33.2067C120.567 33.2067 120.238 32.81 120.193 32.2603H123.848H123.854ZM120.21 31.297C120.295 30.7757 120.624 30.481 121.186 30.481C121.68 30.481 122.021 30.8437 122.021 31.297H120.204H120.21Z" fill="white"/>
<path fill-rule="evenodd" clip-rule="evenodd" d="M124.564 34.2777H126.465V31.705C126.465 30.9287 126.897 30.7643 127.226 30.7643C127.782 30.7643 127.851 31.161 127.851 31.722V34.272H129.752V30.9343C129.752 29.818 128.935 29.2797 128.044 29.2797C127.289 29.2797 126.778 29.5347 126.42 30.022H126.403V29.4043H124.569V34.272L124.564 34.2777Z" fill="white"/>
<path fill-rule="evenodd" clip-rule="evenodd" d="M132.994 27.9254H131.092V29.41H130.246V30.5547H131.092V32.8837C131.092 34.2154 131.989 34.34 132.795 34.34C133.198 34.34 133.629 34.2834 134.015 34.2834V32.878C133.873 32.895 133.726 32.9064 133.584 32.9064C133.101 32.9064 132.999 32.7137 132.999 32.2604V30.5604H134.015V29.4157H132.999V27.931L132.994 27.9254Z" fill="white"/>
<path fill-rule="evenodd" clip-rule="evenodd" d="M139.794 32.2603C139.794 30.362 138.937 29.2853 136.956 29.2853C135.384 29.2853 134.322 30.4413 134.322 31.858C134.322 33.4787 135.52 34.4023 137.121 34.4023C138.25 34.4023 139.3 33.9093 139.681 32.861H137.904C137.751 33.0933 137.41 33.2067 137.104 33.2067C136.508 33.2067 136.178 32.81 136.133 32.2603H139.789H139.794ZM136.156 31.297C136.241 30.7757 136.57 30.481 137.132 30.481C137.626 30.481 137.966 30.8437 137.966 31.297H136.15H136.156Z" fill="white"/>
<path fill-rule="evenodd" clip-rule="evenodd" d="M47.6729 39.202C47.4856 37.5133 46.4411 36.5387 44.5451 36.5273C42.4163 36.5273 41.0369 37.9383 41.0369 40.0633C41.0369 42.058 42.3028 43.5993 44.5451 43.5993C46.5716 43.5993 47.7013 42.1543 47.7013 40.7887H45.6123C45.4874 41.4233 45.2036 41.9107 44.4883 41.9107C43.4892 41.9107 43.1713 40.9643 43.1713 40.0577C43.1713 39.151 43.4892 38.2047 44.4883 38.2047C45.3682 38.2047 45.5612 38.9527 45.6009 39.1963H47.6729V39.202Z" fill="white"/>
<path fill-rule="evenodd" clip-rule="evenodd" d="M48.3882 43.435H50.3069V41.497C50.3069 40.4487 50.7156 40.0124 51.4706 40.0124C51.8623 40.0124 52.0326 40.069 52.2256 40.137V38.4824C52.0383 38.437 51.8566 38.4087 51.6636 38.4087C50.9654 38.4087 50.5567 38.7317 50.2501 39.3154H50.2331V38.5277H48.3939V43.435H48.3882Z" fill="white"/>
<path fill-rule="evenodd" clip-rule="evenodd" d="M57.6014 41.4064C57.6014 39.4967 56.7385 38.4087 54.746 38.4087C53.1565 38.4087 52.095 39.5704 52.095 41.004C52.095 42.6417 53.3041 43.5654 54.9106 43.5654C56.0516 43.5654 57.1075 43.0724 57.4935 42.0127H55.6997C55.5464 42.2507 55.2058 42.364 54.8993 42.364C54.2975 42.364 53.9683 41.9674 53.9229 41.412H57.6014V41.4064ZM53.9342 40.426C54.0194 39.899 54.3486 39.5987 54.922 39.5987C55.4158 39.5987 55.7621 39.967 55.7621 40.426H53.9285H53.9342Z" fill="white"/>
<path fill-rule="evenodd" clip-rule="evenodd" d="M61.6035 40.9757C61.6035 41.565 61.4502 42.194 60.7633 42.194C60.0765 42.194 59.9232 41.5593 59.9232 40.9757C59.9232 40.392 60.0765 39.763 60.7633 39.763C61.4502 39.763 61.6035 40.3977 61.6035 40.9757ZM63.4484 36.686H61.5297V39.066H61.5127C61.2175 38.6523 60.7122 38.403 60.1389 38.403C58.4529 38.403 57.9988 39.8027 57.9988 40.953C57.9988 42.1827 58.6857 43.554 60.1105 43.554C61.0528 43.554 61.3424 43.2027 61.5864 42.891H61.6035V43.4293H63.4484V36.6747V36.686Z" fill="white"/>
<path fill-rule="evenodd" clip-rule="evenodd" d="M69.6133 41.4064C69.6133 39.4967 68.7505 38.4087 66.7579 38.4087C65.1685 38.4087 64.1069 39.5704 64.1069 41.004C64.1069 42.6417 65.3161 43.5654 66.9226 43.5654C68.0636 43.5654 69.1195 43.0724 69.5055 42.0127H67.7116C67.5584 42.2507 67.2178 42.364 66.9112 42.364C66.3095 42.364 65.9802 41.9674 65.9348 41.412H69.6133V41.4064ZM65.9462 40.426C66.0313 39.899 66.3606 39.5987 66.9339 39.5987C67.4278 39.5987 67.7741 39.967 67.7741 40.426H65.9405H65.9462Z" fill="white"/>
<path fill-rule="evenodd" clip-rule="evenodd" d="M70.2322 43.435H72.1509V40.8454C72.1509 40.0634 72.588 39.899 72.9173 39.899C73.4792 39.899 73.5474 40.2957 73.5474 40.8624V43.435H75.4661V40.069C75.4661 38.947 74.643 38.4087 73.7404 38.4087C72.974 38.4087 72.4631 38.6637 72.1055 39.1567H72.0885V38.5334H70.2435V43.4407L70.2322 43.435Z" fill="white"/>
<path fill-rule="evenodd" clip-rule="evenodd" d="M81.3925 40.392C81.279 39.0377 80.155 38.4087 78.838 38.4087C77.328 38.4087 76.1189 39.44 76.1189 40.987C76.1189 42.534 77.328 43.5597 78.838 43.5597C80.1948 43.5597 81.2677 42.8117 81.4493 41.48H79.6214C79.5817 41.8654 79.2922 42.1997 78.8778 42.1997C78.1455 42.1997 78.0376 41.5877 78.0376 40.987C78.0376 40.3864 78.1455 39.7687 78.8778 39.7687C79.0821 39.7687 79.2468 39.8254 79.3603 39.933C79.4852 40.035 79.5533 40.1937 79.5703 40.392H81.3925Z" fill="white"/>
<path fill-rule="evenodd" clip-rule="evenodd" d="M84.0208 36.686H82.1021V38.0007H84.0208V36.686ZM82.1021 43.435H84.0208V38.5277H82.1021V43.435Z" fill="white"/>
<path fill-rule="evenodd" clip-rule="evenodd" d="M89.828 40.324C89.828 39.3777 89.845 38.403 87.4494 38.403C86.2573 38.403 84.9233 38.6297 84.8665 40.0124H86.649C86.6604 39.8027 86.7739 39.5137 87.3643 39.5137C87.6708 39.5137 87.9944 39.6383 87.9944 39.967C87.9944 40.2787 87.7333 40.3524 87.4721 40.3977C86.4957 40.579 84.6338 40.5224 84.6338 42.075C84.6338 43.1064 85.4342 43.5597 86.4049 43.5597C87.0237 43.5597 87.6141 43.4294 88.0228 42.9704H88.0398C88.0285 43.1007 88.0568 43.299 88.1079 43.435H90.0607C89.8507 43.1234 89.828 42.7097 89.828 42.3357V40.324ZM87.9887 41.684C87.9603 42.194 87.6197 42.449 87.1883 42.449C86.842 42.449 86.5866 42.2224 86.5866 41.9957C86.5866 41.667 86.8136 41.5594 87.2337 41.4687C87.4948 41.412 87.756 41.344 87.9887 41.2307V41.684Z" fill="white"/>
<path d="M92.6152 36.686H90.7021V43.435H92.6152V36.686Z" fill="white"/>
<path d="M144.84 12.36L143.64 11.48L145.56 9.06L142.56 8.2L143.04 6.78L145.92 7.86L145.8 4.78H147.3L147.18 7.86L150.1 6.78L150.54 8.2L147.58 9.04L149.48 11.48L148.28 12.36L146.56 9.76L144.84 12.36Z" fill="white" fill-opacity="0.4"/>
</svg>
