<svg width="151" height="68" viewBox="0 0 151 68" fill="none" xmlns="http://www.w3.org/2000/svg">
<path fill-rule="evenodd" clip-rule="evenodd" d="M75.8293 16.8697C76.5729 16.9093 77.2371 17.1813 77.7877 17.6517C78.5314 18.3543 78.7301 19.5273 78.3781 20.468C77.0044 23.2843 73.7459 25.1657 71.5207 25.789C70.1867 26.1007 68.5064 26.1007 67.2915 25.6303C66.7012 25.9817 66.2073 27.1207 65.4864 26.6447C64.4475 25.8343 65.3444 24.565 64.7484 23.664C64.6235 23.477 64.3113 23.4657 64.158 23.1597C63.3349 21.3577 64.3567 19.6407 65.492 18.2693C67.388 16.1613 72.8206 13.8097 75.835 16.864L75.8293 16.8697ZM69.5225 18.275C68.4666 18.4733 67.2688 18.9323 66.6217 19.6803C65.9746 20.434 65.5658 21.165 65.9575 21.947C67.3313 20.9327 67.9955 19.5217 69.5225 18.6603C69.5225 18.5017 69.7552 18.3883 69.5225 18.2693V18.275ZM75.9088 18.666C73.2067 18.4337 71.1687 20.4623 69.25 22.423C69.1308 22.7347 68.4269 23.086 68.9775 23.4373C71.5661 23.6697 74.0298 22.9273 75.9144 21.2103C76.4651 20.7003 76.8568 20.0373 76.5786 19.3347C76.4594 19.0627 76.1869 18.785 75.9144 18.6717H75.9088V18.666Z" fill="black"/>
<path fill-rule="evenodd" clip-rule="evenodd" d="M99.3421 30.3223C100.597 33.371 101.653 38.182 99.3421 41.1173C98.7177 41.82 97.6164 42.4717 96.9125 41.939C94.3239 39.865 93.2283 36.8957 91.6218 34.2323C91.389 34.1133 91.389 34.4307 91.2698 34.544C90.6795 37.2413 91.7807 40.7603 89.9358 42.874C89.2319 42.993 88.5734 42.6303 88.3293 41.9333C87.4267 39.1567 88.369 36.261 88.6018 33.4843C89.1524 32.079 89.3852 30.4357 90.6 29.376C92.5584 30.158 93.5008 32.351 94.6361 33.9547C95.4592 35.1673 96.1234 36.5387 97.0657 37.6323C97.8889 37.281 97.4858 36.21 97.4574 35.5583C97.1452 33.014 96.4413 30.668 95.7715 28.2427C95.7317 27.6193 95.3798 26.5597 96.0439 26.1687C97.8094 26.9507 98.553 28.7867 99.3364 30.3167H99.3421V30.3223Z" fill="black"/>
<path fill-rule="evenodd" clip-rule="evenodd" d="M87.5061 29.3817C87.5061 29.971 87.035 30.702 86.6433 30.787C82.8796 31.3763 78.6902 31.0193 75.165 32.1923C75.0458 32.623 75.5567 32.7023 75.8292 32.8157C78.8435 33.286 82.0168 33.405 84.9573 34.1473C86.5127 34.544 87.0747 36.3743 87.1882 37.9043C87.262 39.1057 86.7966 40.562 85.6215 41.3837C82.7207 43.2197 78.2929 43.146 75.358 41.463C74.234 40.834 73.1611 39.8197 73.0873 38.5673C73.093 37.5757 73.5188 36.7937 74.2227 36.414C77.044 35.2807 80.5295 35.904 82.9591 37.3547C83.1181 38.1367 82.2666 38.097 81.8635 38.369C79.1614 39.933 77.1235 36.6067 74.6144 37.8193C74.2624 38.0517 74.007 38.709 74.4214 38.913C77.5152 40.2843 80.9666 39.304 84.0206 38.4427C84.3726 38.3237 84.804 37.9723 84.8438 37.621C84.7246 36.3687 83.3167 36.0967 82.4141 35.7453C79.7518 35.0823 76.8113 35.0823 73.9502 34.8047C73.3996 34.6857 72.7013 34.306 72.5424 33.864C72.2302 32.9233 72.2302 31.637 72.9341 30.855C76.5785 27.6477 82.1019 27.9197 86.7228 28.781C87.035 28.9 87.3869 29.0133 87.5061 29.3703V29.3817Z" fill="black"/>
<path fill-rule="evenodd" clip-rule="evenodd" d="M70.3853 30.8663C70.7372 34.6233 70.9359 38.1027 70.8565 42.0523C70.777 42.5623 70.1923 42.6757 69.8006 42.874C69.1762 42.993 68.3644 42.857 68.1146 42.5227C67.212 41.0777 67.5242 39.1227 67.4504 37.3603C67.5696 34.5837 67.5299 31.5747 68.3133 28.9907C68.4609 28.6167 68.9037 28.288 69.2556 28.5203C70.198 28.9907 70.3512 29.9257 70.391 30.8663H70.3853Z" fill="black"/>
<path fill-rule="evenodd" clip-rule="evenodd" d="M113.914 30.3223C114.101 30.6397 114.3 31.127 113.914 31.3367C112.149 32.1187 109.759 31.7673 107.721 31.9997C107.17 32.47 106.739 33.252 106.938 33.9547C107.131 34.0737 107.312 34.2493 107.528 34.2267C108.782 34.306 110.661 33.643 111.485 34.816C111.689 35.1673 111.456 36.4707 110.9 36.499C109.373 36.6973 106.858 36.3063 106.12 36.6973C105.178 37.3207 105.257 38.5333 104.905 39.5137C105.569 39.9443 106.268 39.5023 107.062 39.3947C108.51 39.1623 110.116 38.7317 111.57 39.0433C111.842 39.5533 112.234 40.0973 111.961 40.7263C109.492 42.6813 106.307 44.6873 102.913 43.2707C101.641 42.6983 101.073 40.766 101.505 39.1227C101.777 37.9497 102.992 36.8163 102.249 35.564C102.129 35.0143 102.442 34.5497 102.913 34.4307C104.207 34.4307 103.929 32.827 104.599 32.0847C103.855 31.263 101.976 31.3027 102.169 29.6593C103.072 29.189 104.167 29.3477 105.183 29.189C107.494 28.7187 110.082 28.4467 112.433 28.7187C112.904 28.815 113.528 29.733 113.92 30.3223H113.914Z" fill="black"/>
<path fill-rule="evenodd" clip-rule="evenodd" d="M57.9648 21.403C61.5808 24.3553 66.2698 29.3817 65.6851 35.1673C64.9811 39.746 60.1219 43.1857 56.0063 44.2793C52.0099 45.4523 46.9974 45.3333 42.9215 44.3983C42.649 45.1407 42.3709 46.0417 41.5137 46.3533C40.9631 46.546 40.2592 46.4327 39.8277 46.0813C38.6129 44.948 39.595 42.755 37.8295 42.0523C34.3838 40.6073 30.6599 37.7513 28.8944 34.2323C28.6617 33.5297 28.9342 32.827 29.3656 32.2773C32.0677 30.124 35.4794 29.2683 38.8854 28.5997C39.0784 28.679 39.0046 28.4013 39.1579 28.3277C39.3566 25.9817 39.4304 23.596 40.174 21.4823C40.3443 21.1877 40.7644 21.0913 41.0369 21.2897C43.194 22.933 42.1722 26.0213 43.1145 28.254C47.2301 28.4523 51.3401 28.645 54.5928 30.9513C55.6884 31.8523 55.9552 33.5693 55.6089 34.5497C55.2626 35.53 54.1216 36.2327 53.0601 36.312C52.3562 36.312 51.0222 36.38 51.1016 35.8417C51.1811 35.3033 53.4972 34.425 52.7876 33.6883C51.7658 32.6343 46.6454 32.0053 43.4722 31.6143C43.0805 31.535 42.7228 31.654 42.7228 32.0847C42.6434 35.0597 42.4106 38.3407 42.9158 41.1967C42.9556 41.395 43.1883 41.6273 43.387 41.667C48.9899 42.568 54.905 42.058 59.2931 38.8507C61.331 37.2073 61.9952 34.901 61.6432 32.3567C59.8778 25.279 52.4754 21.012 46.4013 18.275C40.4862 15.691 33.941 14.365 26.9303 14.7163C25.812 14.7957 24.0465 15.181 24.0295 15.5777C24.0125 15.9743 26.0334 15.8497 25.7949 16.592C25.5508 17.34 23.5016 16.898 22.8942 16.711C22.2867 16.524 22.3435 15.657 22.5025 15.1073C24.0295 12.41 28.2927 12.189 30.2228 12.0983C40.8779 11.8263 51.1811 15.878 57.9648 21.4087V21.403ZM38.7662 31.8863C36.0641 31.926 33.203 32.198 30.6939 33.1387C30.183 33.337 29.5586 33.881 29.9503 34.544C30.9664 35.9153 32.4253 37.0373 33.7877 37.8307C35.1501 38.624 36.961 39.6327 38.6072 39.865C38.9989 37.3207 38.9989 34.8217 38.9592 32.198C38.8002 32.1187 38.9592 31.9657 38.7605 31.8863H38.7662Z" fill="black"/>
<path fill-rule="evenodd" clip-rule="evenodd" d="M119.75 28.3277C119.631 31.7277 116.457 33.8413 116.457 37.247C116.576 37.366 116.65 37.519 116.809 37.4397C119.358 34.663 121.861 30.7133 125.585 29.5403C126.567 29.461 127.453 30.311 127.816 30.9457C129.111 33.524 128.798 37.162 126.993 39.508C125.131 41.8143 121.901 44.1207 118.217 43.7297C116.69 47.4867 115.628 51.4363 115.044 55.539C114.732 56.3607 113.988 55.6183 113.517 55.4597C110.343 52.955 112.949 46.3307 113.165 45.4863C113.381 44.642 114.226 42.653 114.851 40.987C113.363 38.3293 114.3 35.122 115.515 32.657C116.457 31.0137 117.746 29.3703 119.279 28.118C119.472 28.118 119.631 28.1577 119.75 28.3163V28.3277ZM126.062 32.5493C125.591 32.47 125.398 33.099 125.006 33.2123C123.207 35.2467 121.402 37.281 120.499 39.7063C121.714 39.865 122.73 39.083 123.792 38.6523C125.591 37.519 126.732 35.6433 126.613 33.49C126.533 33.1387 126.221 32.8667 126.062 32.5493Z" fill="black"/>
<path d="M131.84 14.36L130.64 13.48L132.56 11.06L129.56 10.2L130.04 8.78L132.92 9.86L132.8 6.78H134.3L134.18 9.86L137.1 8.78L137.54 10.2L134.58 11.04L136.48 13.48L135.28 14.36L133.56 11.76L131.84 14.36Z" fill="black" fill-opacity="0.4"/>
</svg>
