<svg width="151" height="69" viewBox="0 0 151 69" fill="none" xmlns="http://www.w3.org/2000/svg">
<g clip-path="url(#clip0_60_297)">
<path d="M81.784 14.406C92.3484 14.8254 102.879 15.9984 113.029 19.0754C119.721 21.104 135.4 26.204 133.056 35.775C131.058 43.9294 120.113 47.658 113.034 49.8057C96.129 54.934 78.4632 55.5234 60.9733 54.016C53.1678 53.3417 45.3794 52.0837 37.8748 49.8057C30.8074 47.658 14.8615 42.439 18.1427 32.2447C20.5836 24.6627 31.0287 21.155 37.8748 19.0754C51.9587 14.8027 67.1552 13.8224 81.7897 14.406H81.784ZM54.7062 31.338V29.4397C54.7062 29.3377 53.9966 27.8417 53.8774 27.6207C50.6985 21.5404 43.7956 19.302 37.2731 20.6677C23.0814 23.6484 22.5989 44.887 36.3535 48.6837C42.7568 50.4517 50.1081 48.4797 53.5368 42.541C53.7014 42.2577 54.7119 40.28 54.7119 40.144V34.7947H38.346V37.441H44.5109C44.5449 37.441 44.9423 37.832 44.9139 37.9567C44.7663 39.9117 45.1069 42.1387 44.9139 44.0597C44.8118 45.0797 43.6424 45.9637 42.7227 46.2414C41.4455 46.6324 40.0717 46.604 38.8342 46.0884C37.8124 45.6634 37.0574 44.989 36.9495 43.8274V25.6374C37.4831 22.787 42.0075 22.43 43.9262 23.9714C44.1816 24.1754 44.9026 24.997 44.9026 25.2974V31.338H54.7005H54.7062ZM100.12 30.301C100.137 30.0574 100.035 29.8307 99.9495 29.6097C98.4167 25.7677 93.1999 25.4844 89.8336 26.7594C87.6367 27.5867 86.2857 29.519 87.0407 31.916C87.6935 33.99 89.51 34.5397 91.4344 34.8967C92.2235 35.044 94.602 35.1914 95.0618 35.7637C95.3286 36.0924 95.3457 37.0784 95.2832 37.492C95.0845 38.835 92.8649 38.7784 91.9113 38.3307C91.5196 38.1494 91.0768 37.747 90.9576 37.3277C90.8951 37.101 90.9519 36.404 90.7305 36.404H86.7512C86.876 37.4127 87.3529 38.444 88.1306 39.1127C90.072 40.773 94.1763 41.0847 96.5491 40.3764C98.5643 39.7757 99.8075 38.478 100.001 36.3417C100.267 33.3724 97.3438 32.477 94.9596 31.95C94.1876 31.78 93.0579 31.7404 92.3881 31.525C90.8781 31.032 90.8213 28.3347 92.5925 28.0344C93.109 27.9494 93.9605 28.04 94.4771 28.176C95.5443 28.4594 96.0496 29.2244 96.0836 30.3124H100.12V30.301ZM70.4988 40.0817L68.0805 35.6617C69.1931 34.9874 70.0787 34.194 70.5555 32.9474C71.4922 30.4994 70.249 27.6547 67.8137 26.7084C67.615 26.629 66.8998 26.3854 66.7522 26.3854H57.011V40.076H62.313V36.047C62.6422 36.098 63.3007 35.9224 63.5278 36.1604L65.3671 40.076H70.4988V40.0817ZM72.2245 40.0817H74.3022L75.1139 37.2087H79.7177C79.9561 37.9737 80.0697 39.022 80.3535 39.736C80.4046 39.8664 80.4727 39.9854 80.5863 40.0817H85.5988L82.0225 26.391H76.4423L72.2245 40.0817ZM114.993 31.5647C113.801 26.6064 107.545 24.7024 103.639 27.9947C97.9002 32.8284 102.697 42.2237 110.156 40.2517C112.563 39.617 114.743 37.373 115.112 34.8967H110.383C110.292 35.8374 110.383 37.4127 109.81 38.1777C109.044 39.1864 107.34 39.209 106.58 38.1777C106.148 37.594 106.177 36.472 106.114 35.7637C105.967 34.0014 105.836 31.168 106.262 29.451C106.58 28.1647 107.778 27.5867 109.004 28.0457C109.935 28.397 110.105 29.111 110.264 30.012L110.383 31.559H114.993V31.5647ZM130.03 33.4347C130.03 29.5247 126.857 26.357 122.94 26.357C119.023 26.357 115.85 29.5247 115.85 33.4347C115.85 37.3447 119.023 40.5124 122.94 40.5124C126.857 40.5124 130.03 37.3447 130.03 33.4347Z" fill="black"/>
<path d="M54.7063 31.338H44.9083V25.2973C44.9083 25.0027 44.1874 24.181 43.9319 23.9713C42.0132 22.4243 37.4832 22.787 36.9553 25.6373V43.8273C37.0574 44.989 37.8124 45.6633 38.8399 46.0883C40.0718 46.5983 41.4455 46.6323 42.7284 46.2413C43.6481 45.958 44.8231 45.0797 44.9196 44.0597C45.1127 42.133 44.7664 39.9117 44.9196 37.9567C44.9424 37.832 44.5507 37.441 44.5166 37.441H38.3517V34.7947H54.7176V40.144C54.7176 40.28 53.7128 42.2577 53.5425 42.541C50.1138 48.4797 42.7625 50.4573 36.3592 48.6837C22.6103 44.887 23.0871 23.6483 37.2788 20.6677C43.8013 19.2963 50.7042 21.5347 53.8831 27.6207C54.0024 27.8473 54.7119 29.3433 54.7119 29.4397V31.338H54.7063Z" fill="#FEFDFD"/>
<path d="M100.12 30.301H96.0837C96.0496 29.2187 95.5444 28.448 94.4772 28.1647C93.9606 28.0287 93.1148 27.9323 92.5925 28.023C90.8214 28.3233 90.8782 31.0207 92.3882 31.5137C93.058 31.7347 94.182 31.7687 94.9597 31.9387C97.3439 32.4657 100.262 33.3667 100.001 36.3303C99.8076 38.4667 98.5644 39.77 96.5492 40.365C94.1763 41.0677 90.0664 40.7617 88.1307 39.1013C87.3529 38.4383 86.8704 37.407 86.7512 36.3927H90.7306C90.9463 36.3927 90.8895 37.0897 90.9576 37.3163C91.0769 37.7413 91.5196 38.138 91.9113 38.3193C92.865 38.767 95.0846 38.8237 95.2833 37.4807C95.3457 37.067 95.3287 36.0753 95.0619 35.7523C94.6021 35.18 92.2236 35.0327 91.4345 34.8853C89.5158 34.5283 87.6935 33.9787 87.0407 31.9047C86.2857 29.5077 87.6368 27.581 89.8337 26.748C93.2056 25.4787 98.4225 25.762 99.9495 29.5983C100.035 29.8193 100.137 30.046 100.12 30.2897V30.301Z" fill="#FEF9F9"/>
<path d="M114.993 31.5647H110.383L110.264 30.0177C110.105 29.1167 109.94 28.4027 109.004 28.0514C107.772 27.5924 106.58 28.176 106.262 29.4567C105.836 31.1737 105.967 34.0014 106.114 35.7694C106.177 36.4777 106.148 37.594 106.58 38.1834C107.346 39.2147 109.044 39.192 109.81 38.1834C110.389 37.424 110.292 35.843 110.383 34.9024H115.112C114.743 37.373 112.569 39.617 110.156 40.2574C102.697 42.2294 97.9002 32.834 103.639 28.0004C107.551 24.708 113.801 26.6064 114.993 31.5704V31.5647Z" fill="#FEF9F9"/>
<path d="M70.4988 40.0817H65.3671L63.5278 36.166C63.3008 35.9337 62.6479 36.1037 62.313 36.0527V40.0817H57.011V26.391H66.7522C66.8941 26.391 67.615 26.6347 67.8137 26.714C70.2547 27.6603 71.4979 30.505 70.5556 32.953C70.0787 34.194 69.1932 34.993 68.0805 35.6673L70.4988 40.0873V40.0817ZM62.313 34.211C64.1296 34.5567 65.9347 33.4913 66.2072 31.593C66.5194 29.3943 64.3737 27.8247 62.313 28.108V34.2053V34.211Z" fill="#FEF9F9"/>
<path d="M62.313 34.211V28.1137C64.3736 27.8247 66.5137 29.4 66.2072 31.5987C65.9404 33.4913 64.1295 34.5623 62.313 34.2167V34.211Z" fill="black"/>
<path d="M130.03 33.4347C130.03 37.3447 126.857 40.5123 122.94 40.5123C119.023 40.5123 115.85 37.3447 115.85 33.4347C115.85 29.5247 119.023 26.357 122.94 26.357C126.857 26.357 130.03 29.5247 130.03 33.4347ZM122.565 27.9097C121.81 28.0457 121.254 28.5387 121.038 29.2583C120.896 29.7343 120.8 30.5333 120.749 31.0433C120.579 32.7943 120.596 35.18 120.874 36.9083C121.084 38.2343 121.793 39.0673 123.235 38.9313C124.893 38.7727 124.904 37.2653 125.023 35.996C125.194 34.1317 125.313 31.1453 124.876 29.3433C124.632 28.3347 123.57 27.7227 122.56 27.904L122.565 27.9097Z" fill="#FEF9F9"/>
<path d="M122.565 27.9096C123.576 27.7283 124.637 28.3403 124.881 29.349C125.319 31.151 125.199 34.1373 125.029 36.0016C124.91 37.271 124.898 38.7783 123.241 38.937C121.799 39.073 121.089 38.24 120.879 36.914C120.601 35.1856 120.578 32.7943 120.754 31.049C120.806 30.539 120.902 29.74 121.044 29.264C121.26 28.5443 121.816 28.0456 122.571 27.9153L122.565 27.9096Z" fill="black"/>
<path d="M72.2246 40.0816L76.4424 26.3853H82.0226L85.5989 40.0816H80.5864C80.4728 39.991 80.4047 39.872 80.3536 39.736C80.0698 39.0163 79.9563 37.968 79.7178 37.2086H75.114L74.3023 40.0816H72.2246ZM79.0253 35.0213L77.9637 30.7316L77.572 30.3123L77.0895 30.7316C76.8568 31.984 76.1813 33.31 75.9372 34.5283C75.9031 34.6926 75.9088 34.857 75.9145 35.0213H79.0253Z" fill="#FEF9F9"/>
<path d="M79.0253 35.0213H75.9144C75.9088 34.857 75.9031 34.6926 75.9372 34.5283C76.1813 33.31 76.8568 31.9783 77.0895 30.7316L77.572 30.3123L77.9637 30.7316L79.0253 35.0213Z" fill="black"/>
<path d="M144.84 12.86L143.64 11.98L145.56 9.56L142.56 8.7L143.04 7.28L145.92 8.36L145.8 5.28H147.3L147.18 8.36L150.1 7.28L150.54 8.7L147.58 9.54L149.48 11.98L148.28 12.86L146.56 10.26L144.84 12.86Z" fill="white" fill-opacity="0.4"/>
</g>
<defs>
<clipPath id="clip0_60_297">
<rect width="151" height="68" fill="white" transform="translate(0 0.5)"/>
</clipPath>
</defs>
</svg>
