<svg width="151" height="69" viewBox="0 0 151 69" fill="none" xmlns="http://www.w3.org/2000/svg">
<g clip-path="url(#clip0_60_28)">
<path d="M126.176 16.9787H109.305L110.344 14.0773H126.176V16.9787Z" fill="white"/>
<path d="M81.1995 14.0773H96.8671L97.8946 16.9843H81.2108C81.2108 16.9843 81.1995 14.0773 81.2108 14.0773H81.1995Z" fill="white"/>
<path d="M68.7618 14.0773C71.3447 14.3267 73.587 15.2447 75.5 16.9843H47.1052V14.0773H68.7618Z" fill="white"/>
<path d="M44.5507 14.0773H24.8242V16.9787H44.5507V14.0773Z" fill="white"/>
<path d="M126.176 22.43H107.375C107.375 22.43 108.402 19.54 108.396 19.54H126.181V22.43H126.176Z" fill="white"/>
<path d="M99.8304 22.43H81.1995V19.54H98.8086L99.8304 22.43Z" fill="white"/>
<path d="M77.7082 19.54C78.0829 20.492 78.5257 21.308 78.5257 22.43H47.1108V19.54H77.7082Z" fill="white"/>
<path d="M44.5507 19.54H24.8242V22.43H44.5507V19.54Z" fill="white"/>
<path d="M105.45 27.8927L106.483 24.9857L120.601 24.9913V27.8813L105.45 27.8927Z" fill="white"/>
<path d="M100.733 24.9857L101.766 27.8927H86.7568V24.9857H100.733Z" fill="white"/>
<path d="M78.7753 24.9857C78.7753 25.983 78.6504 27.02 78.3609 27.887H69.7607V24.9857H78.7753Z" fill="white"/>
<path d="M38.8001 25.0027H30.3248V27.8927H38.8001V25.0027Z" fill="white"/>
<path d="M61.2855 24.9857H52.8215V27.887H61.2855V24.9857Z" fill="white"/>
<path d="M95.0903 31.0263C95.0903 31.0263 95.0903 33.225 95.0903 33.2307H86.7512V30.3407H102.64L103.628 33.038C103.628 33.038 104.582 30.335 104.582 30.3407H120.596V33.2307H112.296V31.0263L111.524 33.2307H95.8566L95.0903 31.0263Z" fill="white"/>
<path d="M52.8215 30.3407H77.1178C76.5842 31.304 75.6248 32.4827 74.7109 33.2307H52.8215V30.3407Z" fill="white"/>
<path d="M38.8001 30.3407H30.3248V33.2307H38.8001V30.3407Z" fill="white"/>
<path d="M120.601 35.7863H112.302V38.6763H120.601V35.7863Z" fill="white"/>
<path d="M95.0903 35.7863H86.7512V38.6763H95.0903C95.0903 38.6763 95.096 35.7863 95.0903 35.7863Z" fill="white"/>
<path d="M110.622 35.7863C110.582 35.7863 109.651 38.6763 109.611 38.6763H97.7923C97.7923 38.6763 96.7534 35.7807 96.7534 35.7863H110.627H110.622Z" fill="white"/>
<path d="M52.8159 35.7863H74.6598C75.6589 36.6193 76.5615 37.6393 77.2654 38.6763C77.3052 38.6763 52.8159 38.6763 52.8159 38.6763V35.7863Z" fill="white"/>
<path d="M38.8001 38.6763V35.7863H30.3362V38.6763H38.8001Z" fill="white"/>
<path d="M120.596 41.232H112.302V44.122H120.596V41.232Z" fill="white"/>
<path d="M95.0959 41.232H86.7568V44.122H95.0959V41.232Z" fill="white"/>
<path d="M107.67 44.139C107.67 44.139 108.692 41.232 108.709 41.2377H98.6609L99.6884 44.1277C99.6884 44.1277 107.664 44.156 107.664 44.139H107.67Z" fill="white"/>
<path d="M52.8159 44.122V41.232H61.4048C61.4048 41.232 61.4104 44.122 61.4048 44.122C61.3991 44.122 52.8159 44.122 52.8159 44.122Z" fill="white"/>
<path d="M78.4689 41.232C78.8833 42.1047 78.9287 43.136 79.0082 44.1333H69.9084V41.232H78.4689Z" fill="white"/>
<path d="M38.8001 41.232H30.3362V44.122H38.8001V41.232Z" fill="white"/>
<path d="M126.182 46.57H112.302V49.46H126.182V46.57Z" fill="white"/>
<path d="M95.0903 46.57H81.1995V49.46H95.0903V46.57Z" fill="white"/>
<path d="M105.802 49.46H101.567L100.551 46.57H106.784L105.802 49.46Z" fill="white"/>
<path d="M24.8241 46.57V49.46H44.5336C44.5336 49.46 44.5279 46.57 44.5336 46.57C44.5393 46.57 24.8014 46.57 24.8241 46.57Z" fill="white"/>
<path d="M78.6505 46.57C78.4405 47.522 78.2532 48.6837 77.5549 49.46H47.1108V46.57H78.6505Z" fill="white"/>
<path d="M103.883 54.917H103.497L102.504 52.0213H104.899L103.883 54.917Z" fill="white"/>
<path d="M126.182 52.0213H112.302V54.9227H126.182V52.0213Z" fill="white"/>
<path d="M47.1052 54.917V52.0213H75.6647C73.7516 53.846 71.129 54.8773 68.302 54.917H47.1052Z" fill="white"/>
<path d="M95.0903 52.0213H81.1995V54.9227H95.0903V52.0213Z" fill="white"/>
<path d="M44.5337 52.0327C44.5337 52.0327 44.528 54.917 44.5337 54.917C44.5394 54.917 24.8299 54.9283 24.8242 54.917V52.0213C24.8242 52.0213 44.528 52.0383 44.5337 52.027V52.0327Z" fill="white"/>
<path d="M144.84 12.86L143.64 11.98L145.56 9.56L142.56 8.7L143.04 7.28L145.92 8.36L145.8 5.28H147.3L147.18 8.36L150.1 7.28L150.54 8.7L147.58 9.54L149.48 11.98L148.28 12.86L146.56 10.26L144.84 12.86Z" fill="white" fill-opacity="0.4"/>
</g>
<defs>
<clipPath id="clip0_60_28">
<rect width="151" height="68" fill="white" transform="translate(0 0.5)"/>
</clipPath>
</defs>
</svg>
