<svg width="151" height="68" viewBox="0 0 151 68" fill="none" xmlns="http://www.w3.org/2000/svg">
<path d="M42.2573 14.569C42.3425 14.569 42.4333 14.569 42.5412 14.5747C42.9896 14.5803 43.4948 14.399 43.8298 14.2403C44.0682 14.127 44.2271 14.0307 44.2044 14.0307C43.8922 14.0307 43.3927 14.0193 43.211 14.0193C42.3992 14.0193 41.9792 14.4783 41.9735 14.518C41.9735 14.5463 42.0813 14.5577 42.2573 14.5633V14.569ZM117.525 36.1647C117.065 35.139 115.799 35.4733 115.799 35.4733C115.197 35.598 114.516 36.2837 113.5 36.584C111.32 37.23 109.577 36.4763 109.577 36.4763C106.217 35.0257 95.4195 28.8547 89.9302 26.163C89.9302 26.163 83.6347 23.0123 74.376 19.3517C74.376 19.3517 56.4661 11.4977 43.9603 12.2343C43.9603 12.2343 37.4775 12.5233 35.451 15.4587C35.451 15.4587 35.1047 15.8497 35.3034 16.2747C35.3034 16.2747 35.3431 16.3993 35.258 16.4787C35.258 16.4787 34.168 17.4533 33.6117 18.3203C33.4187 18.6377 33.203 19.1647 33.6004 19.533C33.6004 19.533 33.782 19.6747 33.8558 19.7937C34.0148 20.0543 34.1624 20.434 34.3554 20.6663C34.6392 21.0007 35.2069 21.5843 36.0186 21.4483C36.3138 21.3973 36.3819 21.284 36.3819 21.284C36.785 21.6863 37.4435 21.6693 37.4435 21.6693C37.364 21.4143 37.0802 20.91 37.0404 20.6097C36.995 20.2753 37.0972 19.958 37.0972 19.958C37.2107 19.5783 37.4378 19.1023 37.6876 18.8587C37.9033 18.6433 38.4653 18.394 38.9137 18.7057C39.2714 18.9607 39.7028 19.788 39.3452 20.9667C39.3281 21.0573 38.9365 21.896 38.5164 22.0207C38.5164 22.0207 38.4766 22.032 38.3972 22.032C38.1133 22.032 37.5854 21.7373 37.5854 21.7373C37.5854 21.7373 37.574 21.811 37.6478 22.117C37.6933 22.2927 37.7557 22.4853 37.8068 22.6327C37.8068 22.6327 37.7046 22.814 37.6365 22.9217C37.5343 23.103 37.4492 23.4543 37.6649 23.613C37.6649 23.613 38.6015 24.2477 39.5098 24.3043C40.1342 24.344 40.3727 23.919 40.3727 23.919C40.8325 23.2843 41.1787 22.746 41.6669 22.304C42.9953 21.0913 44.8572 20.7627 44.8572 20.7627C44.9821 20.7457 47.0144 20.1847 50.4715 22.9443C49.4837 23.0237 48.3087 23.2617 47.4118 23.4147C44.8516 23.868 43.2053 26.282 42.7285 27.2623C41.4853 29.8237 44.0284 30.7077 44.0284 30.7077C44.0512 30.685 46.4524 30.4923 47.6161 27.948C47.6161 27.948 48.0419 26.8203 49.1715 27.183C49.9095 27.421 56.4263 29.6933 57.8966 30.0787C57.8966 30.0787 62.262 31.212 63.9025 29.2117C66.5308 30.073 68.9945 30.4867 75.4546 29.6537C76.5729 29.5063 77.4585 29.5403 77.4585 29.5403C78.9685 29.6537 80.3422 30.668 80.7623 31.331C82.4597 34.0453 84.6168 39.4343 92.093 38.777L95.4763 38.471C97.5426 38.3463 99.2229 38.267 100.926 39.1623C101.67 39.5533 102.078 39.695 103.339 40.8907C105.064 42.5283 106.648 44.2963 108.76 43.333C109.509 42.9873 110.349 41.6557 110.349 41.6557C110.27 41.0437 109.997 40.46 109.327 39.9613C111.246 40.4147 115.566 40.7093 117.235 37.791C117.666 37.111 117.712 36.5047 117.553 36.142H117.542L117.525 36.1647ZM43.9887 12.784C56.2163 12.0587 73.973 19.7767 74.1433 19.856H74.1547L74.166 19.8617C75.6533 20.451 77.0668 21.029 78.3951 21.5787C78.0829 21.454 76.4707 20.8137 76.4707 20.8137C73.8765 19.7823 69.1024 18.2183 69.0627 18.207C62.8069 16.0537 60.0708 15.6683 59.8778 15.6457C59.1341 15.5267 58.856 15.4927 58.8446 15.4927L57.7149 15.3623C57.7149 15.3623 58.3337 16.3597 58.3394 16.371C53.9229 13.2487 48.6379 13.0957 48.3768 13.09H48.3654C47.2982 13.09 46.3729 13.3903 45.652 13.736C45.7315 13.583 46.0096 13.0673 46.0096 13.0673L45.1354 13.0277C43.5686 12.9597 42.3595 13.0107 41.4853 13.0957C42.8818 12.835 43.9717 12.7783 44.0057 12.7783L43.9887 12.784ZM33.8445 18.5753C34.5597 17.5157 35.4964 16.7223 35.5077 16.7167C35.5191 16.7053 35.5361 16.694 35.5418 16.6827C35.5531 16.6713 35.5645 16.6543 35.5815 16.6373C35.6383 16.7053 35.7121 16.7677 35.8086 16.8243C35.2636 17.0567 33.8445 18.5697 33.8445 18.5697V18.5753ZM39.2203 18.258C38.891 18.0257 38.5221 17.986 38.1928 18.037C38.3404 17.9293 38.5731 17.9123 38.5731 17.9123C38.7264 17.8953 39.453 17.867 39.788 19.006C39.6404 18.6773 39.4474 18.4167 39.2146 18.258H39.2203ZM116.843 37.536C116.679 38.1027 115.873 38.8563 114.885 39.2927C113.852 39.7517 111.695 39.8763 110.451 39.6723C110.451 39.6723 108.039 39.4287 105.927 37.2243C105.263 36.5273 104.44 35.7397 103.685 34.9633C103.35 34.612 102.532 33.796 101.17 33.6147C99.7509 33.422 96.2881 33.3313 94.9824 32.9007C94.1139 32.6117 93.0637 32.0223 91.6672 29.954C90.9917 28.9623 90.5149 28.6903 89.6009 28.1123C89.6009 28.1123 90.2992 28.6677 90.7022 29.3703C91.2756 30.3903 91.5651 31.1327 91.8773 31.6767C92.1895 32.2207 92.5415 32.708 93.0751 33.133C93.7392 33.6657 94.1536 33.762 94.8689 33.881C95.5558 33.9943 97.8775 33.9773 99.8644 33.9433C101.823 33.915 102.697 34.544 103.339 35.0823C103.935 35.581 104.951 37.0147 105.581 37.638C106.33 38.3803 106.875 39.1397 108.357 39.882C108.868 40.1427 109.708 40.7773 109.668 41.395C109.004 42.058 108.175 42.2337 106.2 41.7067C106.341 41.8427 107.375 42.9307 109.146 42.415C108.612 42.8627 108.084 43.0497 107.539 43.0213C105.683 42.9193 103.866 40.6413 102.85 39.797C102.078 39.1567 101.987 38.998 100.67 38.0857C98.6723 36.703 94.1934 37.094 94.1934 37.094L90.9066 37.264C84.5033 37.7457 81.8125 32.0847 81.1029 30.906C80.8531 30.498 80.6318 30.1637 80.4217 29.8973C80.0925 29.461 78.344 27.1943 76.5729 26.452C76.5729 26.452 78.31 27.948 78.2078 28.934C78.2078 28.934 77.4869 28.5997 75.5284 28.8773C67.0928 30.0787 64.2204 27.9707 64.2204 27.9707C64.6121 26.282 63.4314 24.5537 63.4314 24.5537C64.0842 24.7577 68.2282 26.1573 72.1678 25.3583C72.1678 25.3583 65.7588 25.3923 61.2629 21.811C61.2629 21.811 64.0615 25.3073 63.3973 27.5967C63.3973 27.5967 62.9375 30.039 58.0612 29.053C57.539 28.951 56.9316 28.7753 49.6313 26.758C47.917 26.248 47.3209 27.064 47.0144 27.557C47.003 28.2767 46.1515 29.1153 45.7201 29.3817C43.4608 28.9737 44.3634 26.8827 44.3634 26.8827C42.9442 28.9113 44.4315 29.8067 44.9027 29.8747C44.6188 30.0107 44.352 30.107 44.1306 30.192C44.1306 30.192 42.2857 29.0927 43.3132 27.2963C44.7494 24.7917 46.214 23.987 48.9047 23.7433C50.0798 23.63 51.0562 23.545 51.8055 23.647C53.7526 23.9133 54.9731 25.0127 57.8966 25.296C51.7033 23.477 51.6863 19.8957 51.6693 19.8277C51.3287 21.0007 51.516 21.998 51.8169 22.8367C51.7317 22.8083 50.375 21.9187 49.8641 21.607C47.6388 20.2527 45.8847 20.0147 45.8847 20.0147C45.1468 19.9183 44.8062 19.023 44.8062 19.023C44.7778 18.9777 44.7551 18.9323 44.7267 18.8927C43.6992 17.1473 42.6887 17.1077 42.6887 17.1077C43.0521 17.6007 43.1883 18.224 43.2394 18.615C43.2678 18.8417 43.2962 19.2497 43.2962 19.3743C43.2791 21.2387 41.1106 21.828 41.1106 21.828C39.6006 23.7433 39.6801 23.7773 39.3452 23.8283C39.0102 23.8737 38.2723 23.4997 38.2723 23.4997C38.2155 23.4713 38.1985 23.3863 38.2098 23.3297C38.2269 23.2163 38.3234 23.1427 38.3234 23.1427C38.6072 22.916 38.8399 22.695 38.8399 22.695C40.4351 21.0687 40.6281 20.2697 40.4294 19.21C40.0264 17.0907 38.5107 17.34 38.5107 17.34C37.7727 17.408 37.4719 18.02 37.4719 18.02C37.2164 18.411 36.6828 19.6067 36.6828 19.6067C36.3536 20.3207 36.0186 20.4793 35.8427 20.5133C35.7632 20.5247 35.6269 20.5247 35.5815 20.5247C35.0706 20.5077 34.6789 20.0317 34.6789 20.0317C34.6562 20.009 34.6335 19.9807 34.6165 19.9637C34.1453 19.4593 34.4859 18.802 34.4859 18.802C35.116 17.3287 36.3479 17.119 36.5125 17.0963C36.6828 17.0737 37.2505 16.9943 37.2505 16.9943C38.8116 16.7337 39.5495 15.113 39.5495 15.113C38.4993 15.1017 37.9828 15.1697 37.9828 15.1697C36.9496 15.351 36.5977 16.5693 36.5977 16.5637C35.7234 16.762 35.7462 16.014 35.8994 15.7817C36.0357 15.5663 36.5522 14.671 39.9185 13.889C39.9185 13.889 41.5761 13.3903 45.124 13.549L44.9765 13.821C44.6642 14.416 43.421 15.6343 41.3661 15.181C41.3661 15.181 41.3831 16.0933 43.614 16.422C43.614 16.422 45.6293 16.779 49.0523 19.5273C49.0523 19.5273 47.4174 16.286 44.6415 15.4417C44.6415 15.4417 44.2953 15.368 44.4656 15.1527C44.4656 15.1527 46.1061 13.6113 48.3825 13.617C48.3825 13.617 55.4897 13.77 60.0083 18.4847C60.0083 18.4847 59.8096 17.663 59.1001 16.5013L58.7992 16.0197C58.7992 16.0197 59.0717 16.048 59.8096 16.1727C59.8096 16.1727 62.5231 16.507 68.898 18.7113C68.898 18.7113 73.6721 20.2753 76.2891 21.3123C80.2174 22.8763 90.0607 26.6787 96.3335 30.0957C97.4518 30.702 108.805 36.6123 108.805 36.6123C111.95 38.0233 114.124 37.1677 114.124 37.1677C114.834 36.9013 116.117 35.9153 116.679 36.4707C116.968 36.7597 117.008 37.145 116.866 37.5247L116.843 37.536ZM36.9099 16.558C36.9099 16.558 36.978 16.3597 36.995 16.3143C37.0121 16.269 37.1994 15.759 37.6649 15.708C37.6649 15.708 37.9317 15.691 38.3461 15.691C38.3461 15.691 38.1474 16.337 37.347 16.4787C37.347 16.4787 37.0348 16.5523 36.9099 16.5523V16.558ZM44.4542 15.9913C45.1127 16.1897 45.7031 16.5523 46.2253 16.966C44.6472 16.0877 43.7389 15.9063 43.6822 15.9007H43.6651C43.4154 15.861 43.211 15.8157 43.0294 15.7703C43.3359 15.708 43.6197 15.6117 43.8752 15.4927V15.5097C43.9944 15.8383 44.3123 15.9517 44.4542 15.9913Z" fill="white"/>
<path d="M44.4599 52.921H51.2663L47.8603 48.9713L44.4599 52.921ZM52.1291 53.9183H43.6027L42.1892 55.5617H40.5203L47.2245 47.8493H50.0571L56.767 55.5617H53.5426L52.1235 53.9183H52.1291ZM94.7895 52.921H101.596L98.1842 48.9713L94.7838 52.921H94.7895ZM102.459 53.9183H93.9323L92.5188 55.5617H90.8499L97.554 47.8493H100.387L107.097 55.5617H103.872L102.453 53.9183H102.459ZM39.209 47.8437V51.6063C39.209 52.8247 38.9308 53.5613 38.3518 54.1507C37.3414 55.182 35.3999 55.556 32.6581 55.556H26.8735V54.519H32.1983C33.8332 54.519 34.9344 54.247 35.6043 53.5897C36.1095 53.091 36.3366 52.3997 36.3366 51.3683V47.838H39.2147L39.209 47.8437ZM69.2955 54.5247V52.0143H72.1565V55.556H63.8288C62.2677 55.556 61.0359 55.3747 60.1106 55.0007C58.5665 54.3773 57.8569 53.2383 57.8569 51.6857C57.8569 50.218 58.629 49.198 59.6053 48.6483C60.6499 48.0647 61.8192 47.8437 63.7777 47.8437H71.8613V48.875H64.6746C63.1306 48.875 62.2961 49.1073 61.6546 49.6287C61.087 50.0877 60.7861 50.779 60.7861 51.7027C60.7861 52.6263 61.104 53.363 61.7114 53.8277C62.3529 54.315 63.2157 54.5303 64.703 54.5303H69.2955V54.5247ZM119.602 52.836C120.681 52.802 121.6 52.6377 122.304 52.258C123.037 51.867 123.389 51.119 123.389 50.3483C123.389 49.317 122.929 48.654 122.089 48.2857C121.339 47.957 120.42 47.8437 118.58 47.8437H109.662V55.556H112.54V52.8813H116.321L120.635 55.556H124.144L119.614 52.8303L119.602 52.836ZM118.2 48.8183C119.279 48.8183 119.756 48.9203 120.085 49.164C120.397 49.3963 120.505 49.7533 120.505 50.3087V50.456C120.505 50.9547 120.386 51.3627 120.017 51.6177C119.653 51.867 119.148 51.9237 118.229 51.9237H112.523V48.824H118.194L118.2 48.8183ZM89.584 47.8437V51.6857C89.584 52.683 89.4761 53.465 88.9709 54.1223C88.1534 55.1933 86.6548 55.811 82.4711 55.811H82.4256C78.2646 55.811 76.7603 55.1933 75.9429 54.128C75.4376 53.4707 75.3298 52.683 75.3298 51.6857V47.8437H78.2079V51.578C78.2079 52.581 78.3328 53.1703 78.7017 53.686C79.3262 54.5587 80.3991 54.876 82.3291 54.876H82.5732C84.5941 54.876 85.5819 54.5587 86.2006 53.686C86.5696 53.1703 86.6945 52.5527 86.6945 51.578V47.838H89.5726L89.584 47.8437Z" fill="white"/>
<path d="M126.84 20.36L125.64 19.48L127.56 17.06L124.56 16.2L125.04 14.78L127.92 15.86L127.8 12.78H129.3L129.18 15.86L132.1 14.78L132.54 16.2L129.58 17.04L131.48 19.48L130.28 20.36L128.56 17.76L126.84 20.36Z" fill="white" fill-opacity="0.4"/>
</svg>
