<svg width="151" height="68" viewBox="0 0 151 68" fill="none" xmlns="http://www.w3.org/2000/svg">
<g clip-path="url(#clip0_60_207)">
<path d="M41.8542 34L38.2438 26.6277H32.7885V41.378H38.2438V34.0057L41.8542 41.378L45.4646 34.0057V41.378H50.9199V26.6277H45.4646L41.8542 34ZM56.9088 26.6277L52.6626 41.378H58.1179L58.8162 38.9583H64.6404L65.3387 41.378H70.794L66.5478 26.6277H56.9088ZM59.5144 36.533L61.7283 28.832L63.9422 36.533H59.5144ZM82.7434 26.6333H72.531V41.378H77.9863V35.2353H82.7434C85.1219 35.2353 87.052 33.3087 87.052 30.9343C87.052 28.56 85.1219 26.6333 82.7434 26.6333ZM79.2636 32.7363H78.0828V28.322H79.2636C80.4954 28.322 81.6875 28.9793 81.6875 30.3167C81.6875 31.654 80.6317 32.7363 79.2636 32.7363ZM88.9424 41.3723H94.3977V35.2127H103.446V32.793H94.3977V29.0417H103.446V26.622H88.9424V41.3723ZM136.428 29.0473V26.6277H121.924V41.378H136.428V38.9583H127.379V35.224H136.428V32.8043H127.379V29.053H136.428V29.0473ZM119.875 30.3167C119.875 28.2823 118.223 26.6333 116.185 26.6333H105.359V41.378H110.905V35.275H112.086C113.426 35.275 114.51 36.3573 114.51 37.6947C114.51 37.7343 114.51 37.774 114.51 37.8137V41.3837H119.875V37.6947C119.875 37.655 119.875 37.6153 119.875 37.5757C119.812 35.598 118.177 34.0113 116.185 34.0113C118.223 34.0113 119.875 32.3623 119.875 30.3223M112.086 32.7363H110.905V28.322H112.086C113.284 28.322 114.51 28.9793 114.51 30.3167C114.51 31.654 113.426 32.7363 112.086 32.7363ZM21.9631 26.622C17.8815 26.622 14.572 29.9257 14.572 34C14.572 34.3117 14.5947 34.6233 14.6288 34.9237C15.0829 38.5617 18.1938 41.378 21.9631 41.378C25.7324 41.378 28.8432 38.5617 29.2974 34.9237H28.5878C28.1393 38.1763 25.3407 40.6753 21.9631 40.6753C18.5854 40.6753 15.7925 38.1763 15.3384 34.9237C15.2986 34.6177 15.2759 34.3117 15.2759 34C15.2759 30.3167 18.2675 27.3247 21.9631 27.3247C25.6586 27.3247 28.6502 30.311 28.6502 34C28.6502 34.3117 28.6275 34.6233 28.5878 34.9237H29.2974C29.3371 34.6233 29.3541 34.3117 29.3541 34C29.3541 29.9257 26.0446 26.622 21.9631 26.622ZM26.845 34.2947C26.845 34.238 26.8394 34.187 26.8337 34.1473C26.7428 33.66 26.5725 33.184 26.3228 32.7533C26.0673 32.3057 25.687 31.8807 25.3123 31.569C25.0625 31.3763 24.739 31.3083 24.4324 31.3763C24.3132 31.0363 24.0351 30.7473 23.7172 30.6113C23.1552 30.4073 22.5648 30.3053 21.9631 30.3053C21.35 30.3053 20.7653 30.413 20.2203 30.6113C20.1806 30.6283 20.1295 30.6453 20.0784 30.6793C19.7946 30.8267 19.5845 31.0817 19.4937 31.3877C19.1701 31.331 18.8182 31.4217 18.5684 31.6087C18.1824 31.9317 17.8588 32.317 17.6091 32.7533C17.3593 33.184 17.189 33.6543 17.0981 34.1473C17.0925 34.187 17.0868 34.238 17.0868 34.2947C17.0811 34.5157 17.1379 34.7367 17.2571 34.9237C17.3536 35.071 17.4785 35.1957 17.6318 35.2863C17.8134 35.3883 18.0234 35.4393 18.2335 35.4337H20.6404C20.8107 35.4337 21.2648 35.4337 21.6111 35.4337V37.6947H22.3377V35.4337C22.684 35.4337 23.1381 35.4337 23.3085 35.428H25.7154C25.9254 35.445 26.1354 35.394 26.3171 35.292C26.4704 35.207 26.6009 35.0823 26.6918 34.9293C26.811 34.7423 26.8677 34.5213 26.8621 34.3003M20.8221 34.6063C20.788 34.6687 20.7199 34.7027 20.6461 34.697H18.1994C18.1256 34.7083 18.0518 34.697 17.9837 34.6573C17.8588 34.5837 17.7907 34.4477 17.8021 34.306C17.8759 33.8753 18.0121 33.4843 18.2278 33.1103C18.4378 32.7477 18.7047 32.4303 19.0282 32.1583L19.0396 32.147C19.1588 32.0563 19.3177 32.045 19.4483 32.1243C19.5164 32.164 19.5675 32.2207 19.6016 32.2887L20.8221 34.408C20.8618 34.4647 20.8618 34.5383 20.8277 34.6007M21.9631 34.7083C21.8779 34.7083 21.7985 34.6573 21.7587 34.578L20.2487 31.9827C20.1976 31.909 20.1692 31.8183 20.1692 31.722C20.1692 31.5407 20.2771 31.3877 20.4304 31.314C20.9356 31.127 21.4408 31.0363 21.9688 31.0363C22.4967 31.0363 23.0019 31.1327 23.4731 31.297H23.4901C23.6604 31.3763 23.7683 31.5407 23.7683 31.722C23.7683 31.8183 23.7399 31.909 23.6831 31.9883L22.1731 34.5837C22.1334 34.6573 22.0539 34.7083 21.9688 34.7083M25.9368 34.6573C25.8743 34.697 25.7948 34.714 25.721 34.7083H23.2744C23.2063 34.7083 23.1381 34.6743 23.0984 34.612C23.0644 34.5497 23.0644 34.476 23.1041 34.4193L24.3246 32.3C24.3586 32.232 24.4097 32.1753 24.4778 32.1357C24.6084 32.062 24.7674 32.0677 24.8866 32.1583L24.8979 32.1697C25.2158 32.436 25.4883 32.759 25.6983 33.1217C25.9084 33.49 26.0503 33.881 26.1241 34.3173C26.1354 34.459 26.0673 34.595 25.9424 34.6687" fill="white"/>
<path d="M144.84 12.86L143.64 11.98L145.56 9.56L142.56 8.7L143.04 7.28L145.92 8.36L145.8 5.28H147.3L147.18 8.36L150.1 7.28L150.54 8.7L147.58 9.54L149.48 11.98L148.28 12.86L146.56 10.26L144.84 12.86Z" fill="white" fill-opacity="0.4"/>
</g>
<defs>
<clipPath id="clip0_60_207">
<rect width="151" height="68" fill="white"/>
</clipPath>
</defs>
</svg>
