<svg width="151" height="69" viewBox="0 0 151 69" fill="none" xmlns="http://www.w3.org/2000/svg">
<path fill-rule="evenodd" clip-rule="evenodd" d="M28.8035 43.0453C27.8499 42.694 24.6823 41.4303 24.6823 38.478C24.6823 34.7153 26.7599 34.262 26.7599 31.4117C26.7599 28.9523 24.5403 28.074 23.9443 27.8983C24.2281 28.006 24.6823 28.4933 24.6823 30.3577C24.6823 32.817 22.0426 34.5057 22.0426 37.7753C22.0426 42.4163 27.5376 43.0453 28.8035 43.119H29.0476C29.0476 43.119 28.9398 43.119 28.8035 43.051V43.0453ZM30.0751 39.3563L28.8092 28.635L28.5254 26.3173H31.1991L30.0694 39.3563H30.0751ZM33.2427 32.817C33.2427 32.817 38.2439 39.107 31.4829 43.0453C31.4829 43.0453 37.54 42.3087 37.54 38.4043C37.54 34.5 33.2427 32.817 33.2427 32.817Z" fill="black"/>
<path fill-rule="evenodd" clip-rule="evenodd" d="M47.2925 40.7617C47.3266 41.674 47.5025 41.9573 47.7126 42.065C47.9226 42.133 48.1327 42.133 48.3086 42.133C48.4165 42.133 48.5187 42.167 48.5187 42.2407C48.5187 42.3143 48.3768 42.3483 48.2348 42.3483C47.4969 42.3483 47.0371 42.3143 46.793 42.3143C46.6851 42.3143 46.1572 42.3483 45.5611 42.3483C45.3851 42.3483 45.317 42.3143 45.317 42.2407C45.317 42.167 45.3851 42.133 45.493 42.133C45.6349 42.133 45.8449 42.133 46.0209 42.099C46.3048 41.9913 46.3388 41.64 46.3729 40.62L46.4807 33.837C46.4807 33.5933 46.5148 33.4517 46.6227 33.4517C46.7305 33.4517 46.8668 33.5933 47.0825 33.803C47.1903 33.9447 48.9501 35.809 50.6418 37.492C51.4138 38.2627 53.0033 39.9173 53.2133 40.127H53.2474L53.1395 34.925C53.1054 34.2563 52.9976 34.0127 52.7535 33.905C52.5775 33.871 52.2937 33.871 52.1574 33.871C51.9815 33.871 51.9474 33.837 51.9474 33.7633C51.9474 33.6557 52.0893 33.6217 52.2312 33.6217C52.867 33.6217 53.429 33.6557 53.639 33.6557C53.781 33.6557 54.2351 33.6217 54.7687 33.6217C54.9447 33.6217 55.0866 33.6557 55.0866 33.7633C55.0866 33.8313 54.9787 33.871 54.8425 33.871C54.7346 33.871 54.6665 33.871 54.4905 33.905C54.1727 33.973 54.1045 34.2223 54.0705 34.8173L53.9286 42.1273C53.9286 42.371 53.8945 42.4787 53.8207 42.4787C53.6788 42.4787 53.5369 42.337 53.4347 42.235C52.6627 41.5323 51.2151 40.0193 49.9833 38.8237C48.7514 37.594 47.4458 36.115 47.2357 35.9393H47.2017L47.3095 40.756L47.2925 40.7617Z" fill="black"/>
<path fill-rule="evenodd" clip-rule="evenodd" d="M72.4346 34.7153C72.1905 34.1543 72.0145 34.0127 71.5888 33.905C71.4128 33.871 71.2028 33.871 71.129 33.871C71.0211 33.871 70.9871 33.837 70.9871 33.7633C70.9871 33.6557 71.129 33.6217 71.2709 33.6217C71.9067 33.6217 72.5368 33.6557 72.9625 33.6557C73.2804 33.6557 73.8084 33.6217 74.3704 33.6217C74.5463 33.6217 74.6542 33.6557 74.6542 33.7633C74.6542 33.8313 74.5861 33.871 74.4782 33.871C74.3022 33.871 74.0922 33.871 74.0184 33.905C73.9503 33.973 73.9106 34.0807 73.9106 34.1883C73.9106 34.33 74.0184 34.6473 74.1547 35.0327L76.1245 40.2687H76.1585C76.6524 39.005 78.1681 35.2763 78.4462 34.5737C78.5144 34.398 78.5541 34.2563 78.5541 34.1147C78.5541 34.007 78.52 33.939 78.4122 33.905C78.2703 33.871 78.0943 33.871 77.9183 33.871C77.8502 33.871 77.7423 33.837 77.7423 33.7633C77.7423 33.6557 77.8502 33.6217 78.0602 33.6217C78.6563 33.6217 79.1161 33.6557 79.2921 33.6557C79.5021 33.6557 79.996 33.6217 80.382 33.6217C80.5239 33.6217 80.6261 33.6557 80.6261 33.7633C80.6261 33.8313 80.558 33.871 80.416 33.871C80.3082 33.871 80.0641 33.871 79.854 33.9787C79.7121 34.0863 79.5362 34.296 79.2183 34.9987C78.7585 36.0867 78.4462 36.7213 77.8445 38.1267C77.0725 39.8153 76.5786 41.079 76.2948 41.64C75.9769 42.3087 75.9088 42.5183 75.7668 42.5183C75.6249 42.5183 75.5568 42.3427 75.3468 41.8157L72.4233 34.7153H72.4346Z" fill="black"/>
<path fill-rule="evenodd" clip-rule="evenodd" d="M63.63 42.5183H63.5619C60.2524 42.5183 58.9127 40.025 58.9127 37.985C58.9127 35.945 60.1786 33.4857 63.63 33.4857H63.6982C66.5479 33.4857 68.3814 35.1007 68.3814 37.7753C68.3814 40.45 66.5138 42.4843 63.63 42.5183ZM63.63 34.0467C63.5619 34.0467 63.4541 34.0127 63.3462 34.0127C62.0065 34.0127 60.5306 34.7153 60.5306 37.6337C60.5306 39.8493 61.6546 41.674 63.63 41.8893C63.772 41.9233 63.9139 41.9233 64.0501 41.9233C64.8619 41.9233 66.7636 41.538 66.7636 38.1947C66.7636 35.7353 65.3898 34.1883 63.63 34.0467Z" fill="black"/>
<path fill-rule="evenodd" clip-rule="evenodd" d="M86.1324 33.803C86.2743 33.4857 86.3084 33.4177 86.4162 33.4177C86.5582 33.4177 86.6263 33.4857 86.7341 33.769C87.018 34.4037 88.8459 39.0787 89.6236 40.8353C90.0437 41.8553 90.3956 42.031 90.6113 42.099C90.8214 42.133 90.9633 42.133 91.1052 42.133C91.2131 42.133 91.2812 42.167 91.2812 42.2407C91.2812 42.3143 91.1733 42.3483 90.7192 42.3483C90.3332 42.3483 89.4873 42.3483 88.5337 42.3143C88.3577 42.3143 88.1817 42.3143 88.1817 42.2463C88.1817 42.1783 88.2498 42.1387 88.3577 42.1387C88.4258 42.1047 88.4996 41.997 88.4655 41.8553L87.5516 39.396C87.5175 39.362 87.4835 39.328 87.4097 39.328H84.8381C84.77 39.328 84.7303 39.362 84.7303 39.4357L84.0945 41.0903C83.9866 41.4077 83.9185 41.6513 83.9185 41.793C83.9185 42.0027 84.0264 42.1443 84.3783 42.1443H84.5884C84.6962 42.1443 84.7303 42.1783 84.7303 42.252C84.7303 42.3257 84.6621 42.3597 84.5543 42.3597C84.2023 42.3597 83.6744 42.3257 83.3225 42.3257C83.1805 42.3257 82.5504 42.3597 81.9487 42.3597C81.8068 42.3597 81.7046 42.3257 81.7046 42.252C81.7046 42.1783 81.7727 42.1443 81.8806 42.1443H82.2325C82.7605 42.0763 82.9705 41.6513 83.2203 41.0903L86.1438 33.8823V33.8483V33.8143L86.1324 33.803ZM86.1324 38.7557H87.1883C87.2223 38.7557 87.2564 38.7217 87.2223 38.6877L86.2005 35.843C86.2005 35.775 86.2005 35.7353 86.1665 35.7353H86.1324C86.0984 35.7353 86.0984 35.8033 86.0643 35.843L85.0425 38.6537C85.0084 38.7217 85.0425 38.7613 85.0425 38.7613H86.1324V38.7557Z" fill="black"/>
<path fill-rule="evenodd" clip-rule="evenodd" d="M123.638 42.235C123.462 42.1273 123.428 42.0593 123.428 41.8157C123.428 41.181 123.462 40.4783 123.496 40.3027C123.496 40.127 123.496 39.9853 123.604 39.9853C123.712 39.9853 123.712 40.127 123.712 40.195C123.712 40.3367 123.78 40.5803 123.854 40.79C124.098 41.6343 124.768 41.9517 125.512 41.9517C126.534 41.9517 127.027 41.249 127.027 40.6143C127.027 40.0873 126.885 39.5263 125.937 38.784L125.375 38.3647C124.11 37.3787 123.65 36.574 123.65 35.622C123.65 34.3923 124.74 33.48 126.363 33.48C127.101 33.48 127.595 33.5877 127.879 33.6557C127.987 33.6897 128.055 33.7237 128.055 33.8313C128.055 33.939 128.021 34.3243 128.021 35.129C128.021 35.4123 127.987 35.5143 127.879 35.5143C127.771 35.5143 127.737 35.4463 127.737 35.3047C127.737 35.197 127.703 34.8457 127.453 34.568C127.311 34.3243 126.925 34.007 126.187 34.007C125.341 34.007 124.813 34.5 124.813 35.129C124.813 35.69 125.097 36.0753 126.045 36.8177L126.363 37.0613C127.737 38.1153 128.265 38.8917 128.265 40.0137C128.265 40.6823 128.021 41.453 127.175 42.0197C126.613 42.405 125.977 42.5127 125.341 42.5127C124.672 42.5127 124.144 42.405 123.65 42.2293L123.638 42.235Z" fill="black"/>
<path fill-rule="evenodd" clip-rule="evenodd" d="M116.628 36.965C116.628 35.2083 116.628 34.891 116.594 34.5397C116.559 34.1543 116.452 33.9447 116.208 33.905C116.066 33.871 115.89 33.871 115.787 33.871C115.646 33.871 115.577 33.837 115.577 33.7293C115.577 33.6613 115.685 33.6217 115.895 33.6217C116.315 33.6217 117.059 33.6557 117.377 33.6557C117.661 33.6557 118.365 33.6217 118.819 33.6217C118.927 33.6217 119.029 33.6557 119.029 33.7293C119.029 33.837 118.961 33.871 118.853 33.871C118.745 33.871 118.643 33.871 118.501 33.905C118.183 33.939 118.081 34.1487 118.041 34.5397V38.971C118.041 40.1327 118.041 41.011 118.075 41.538C118.109 41.8553 118.217 42.065 118.535 42.099C118.711 42.133 118.955 42.133 119.171 42.133C119.279 42.133 119.313 42.167 119.313 42.2407C119.313 42.3143 119.245 42.3483 119.137 42.3483C118.365 42.3483 117.621 42.3143 117.303 42.3143C117.059 42.3143 116.315 42.3483 115.861 42.3483C115.685 42.3483 115.617 42.3143 115.617 42.2407C115.617 42.167 115.651 42.133 115.827 42.133C115.969 42.133 116.111 42.133 116.213 42.099C116.457 42.065 116.531 41.8553 116.565 41.504C116.633 41.011 116.633 40.1327 116.633 38.971V36.965H116.628Z" fill="black"/>
<path fill-rule="evenodd" clip-rule="evenodd" d="M107.437 34.2903L105.677 34.3243C105.007 34.3243 104.729 34.3923 104.548 34.6757C104.44 34.7833 104.406 34.959 104.372 35.061C104.338 35.095 104.303 35.1687 104.23 35.1687C104.122 35.1687 104.122 35.1007 104.122 34.993C104.122 34.7833 104.332 33.7973 104.366 33.6953C104.4 33.5537 104.434 33.4857 104.474 33.4857C104.582 33.4857 104.718 33.5933 105.002 33.6273C105.32 33.6613 105.774 33.6613 106.165 33.6613H110.781C111.484 33.6613 111.768 33.5537 111.871 33.5537C111.939 33.5537 111.978 33.6217 111.978 33.7973C111.978 34.041 111.944 34.7833 111.944 35.095C111.91 35.2027 111.91 35.2707 111.802 35.2707C111.734 35.2707 111.695 35.2367 111.66 35.061V34.9193C111.66 34.6757 111.343 34.3243 110.321 34.3243L108.839 34.2903V38.9653C108.839 40.0533 108.839 40.9713 108.907 41.4587C108.941 41.81 109.015 42.0537 109.367 42.0933C109.543 42.1273 109.787 42.1273 109.963 42.1273C110.071 42.1273 110.139 42.1613 110.139 42.235C110.139 42.3087 110.031 42.3427 109.929 42.3427C109.117 42.3427 108.413 42.3087 108.096 42.3087C107.851 42.3087 107.074 42.3427 106.614 42.3427C106.472 42.3427 106.404 42.3087 106.404 42.235C106.404 42.1613 106.438 42.1273 106.58 42.1273C106.756 42.1273 106.898 42.1273 107 42.0933C107.244 42.0593 107.318 41.81 107.352 41.4247C107.42 40.9657 107.42 40.0533 107.42 38.9653V34.2903H107.437Z" fill="black"/>
<path fill-rule="evenodd" clip-rule="evenodd" d="M97.6845 33.6613C98.2805 33.6613 98.9504 33.769 99.4783 34.1543C99.8303 34.33 100.25 34.925 100.25 35.7013C100.25 36.5457 99.8984 37.3163 98.7347 38.2683C99.7905 39.5717 100.568 40.586 101.232 41.3283C101.902 41.997 102.362 42.065 102.538 42.099C102.68 42.133 102.782 42.133 102.856 42.133C102.964 42.133 102.998 42.167 102.998 42.2407C102.998 42.3143 102.93 42.3483 102.788 42.3483H101.698C101.062 42.3483 100.75 42.2803 100.466 42.1387C99.9381 41.8553 99.5124 41.3283 98.8823 40.45C98.4225 39.7813 97.8605 39.0107 97.7185 38.835L97.6845 38.801C97.6164 38.767 97.5766 38.767 97.5085 38.767L96.4867 38.733C96.4526 38.733 96.4186 38.767 96.4186 38.8407V38.9823C96.4186 40.0703 96.4186 40.9883 96.4526 41.4417C96.4867 41.827 96.5605 42.0763 96.9125 42.1103C97.0884 42.1443 97.3325 42.1443 97.4744 42.1443C97.5823 42.1443 97.6504 42.1783 97.6504 42.252C97.6504 42.3257 97.5426 42.3597 97.4063 42.3597C96.7365 42.3597 95.9247 42.3257 95.7147 42.3257C95.5046 42.3257 94.7667 42.3597 94.3409 42.3597C94.1649 42.3597 94.0968 42.3257 94.0968 42.252C94.0968 42.1783 94.1309 42.1443 94.2728 42.1443C94.4488 42.1443 94.5907 42.1443 94.6929 42.1103C94.9029 42.0763 94.9767 41.827 95.0108 41.4417C95.0789 40.9827 95.0789 40.0703 95.0789 38.9823V34.551C95.0448 34.1657 94.937 33.956 94.5509 33.9163C94.4431 33.8823 94.2671 33.8823 94.0911 33.8823C93.9492 33.8823 93.9152 33.8483 93.9152 33.7747C93.9152 33.667 93.9833 33.633 94.1593 33.633C94.7553 33.633 95.499 33.667 95.7431 33.667C96.1291 33.667 96.9749 33.633 97.3268 33.633C97.4347 33.633 97.5369 33.633 97.6788 33.667L97.6845 33.6613ZM97.6845 38.1947C97.9286 38.1607 98.0705 38.087 98.2124 38.019C98.5644 37.7357 98.9163 37.2087 98.9163 36.2623C98.9163 35.0327 98.2465 34.4717 97.6845 34.296C97.4744 34.228 97.2985 34.1883 97.1225 34.1883C96.8784 34.1883 96.6286 34.1883 96.5264 34.2563C96.4583 34.2563 96.4186 34.3243 96.4186 34.398V37.8773C96.4186 38.019 96.4526 38.053 96.5264 38.053C96.7705 38.1607 97.1225 38.1947 97.4063 38.1947H97.6902H97.6845Z" fill="black"/>
<path d="M133.84 25.86L132.64 24.98L134.56 22.56L131.56 21.7L132.04 20.28L134.92 21.36L134.8 18.28H136.3L136.18 21.36L139.1 20.28L139.54 21.7L136.58 22.54L138.48 24.98L137.28 25.86L135.56 23.26L133.84 25.86Z" fill="black" fill-opacity="0.4"/>
</svg>
