<svg width="151" height="68" viewBox="0 0 151 68" fill="none" xmlns="http://www.w3.org/2000/svg">
<path d="M38.4425 20.0033H36.1491V23.6527H34.1112V12.2003H38.6185C41.2525 12.2003 42.9555 13.7247 42.9555 16.0197C43.0406 18.649 41.0027 20.009 38.4482 20.009M38.5277 14.0647H36.1491V18.139H38.5277C40.0547 18.139 40.9914 17.289 40.9914 16.1047C40.9914 14.7447 40.0547 14.0703 38.5277 14.0703" fill="black"/>
<path d="M36.2343 34.68V39.5137H34.1964V28.0613H36.2343V32.81H41.6726V28.0613H43.7105V39.5137H41.6726V34.68H36.2343Z" fill="black"/>
<path d="M41.5023 55.3803L38.698 51.391H36.1491V55.3803H34.1112V43.928H39.2089C41.8429 43.928 43.4607 45.288 43.4607 47.5773C43.4607 49.4416 42.3538 50.6316 40.7416 51.0566L43.8013 55.386H41.5079L41.5023 55.3803ZM39.1237 45.7923H36.2343V49.6116H39.2089C40.6564 49.6116 41.5874 48.8466 41.5874 47.6623C41.5023 46.4723 40.6508 45.798 39.1237 45.798" fill="black"/>
<path d="M50.937 23.817C47.4515 23.817 44.9878 21.1877 44.9878 17.9633C44.9878 14.739 47.4515 12.0247 51.0221 12.0247C54.5928 12.0247 56.9713 14.654 56.9713 17.8783C56.8861 21.1877 54.4225 23.817 50.937 23.817ZM50.937 13.8947C48.6436 13.8947 47.1109 15.674 47.1109 17.969C47.1109 20.264 48.7231 22.0433 51.0221 22.0433C53.3212 22.0433 54.8482 20.264 54.8482 17.969C54.7631 15.6797 53.1509 13.8947 50.937 13.8947Z" fill="black"/>
<path d="M64.0274 17.034C66.406 17.629 67.6832 18.479 67.6832 20.4283C67.6832 22.5477 65.9859 23.8227 63.6017 23.8227C61.8192 23.8227 60.2013 23.2277 58.8446 21.9583L60.0367 20.5133C61.1437 21.4483 62.2449 22.0377 63.6925 22.0377C64.9698 22.0377 65.7304 21.4427 65.7304 20.5927C65.7304 19.7427 65.3047 19.3177 63.1816 18.8133C60.7179 18.2183 59.3555 17.5383 59.3555 15.419C59.3555 13.4697 60.9677 12.1097 63.2667 12.1097C64.9641 12.1097 66.2413 12.6197 67.4334 13.5547L66.3265 15.079C65.3047 14.314 64.2886 13.889 63.1816 13.889C61.9895 13.889 61.314 14.484 61.314 15.249C61.314 16.099 61.8249 16.524 64.0331 17.0283" fill="black"/>
<path d="M74.6485 17.034C77.0271 17.629 78.3043 18.479 78.3043 20.4283C78.3043 22.5477 76.607 23.8227 74.2228 23.8227C72.4403 23.8227 70.8224 23.2277 69.4657 21.9583L70.6578 20.5133C71.7648 21.4483 72.866 22.0377 74.3136 22.0377C75.5908 22.0377 76.3515 21.4427 76.3515 20.5927C76.3515 19.7427 75.9258 19.3177 73.8027 18.8133C71.339 18.2183 69.9766 17.5383 69.9766 15.419C69.9766 13.4697 71.5888 12.1097 73.8878 12.1097C75.5852 12.1097 76.8624 12.6197 78.0545 13.5547L76.9476 15.079C75.9258 14.314 74.9096 13.889 73.8027 13.889C72.6106 13.889 71.9351 14.484 71.9351 15.249C71.9351 16.099 72.446 16.524 74.6542 17.0283" fill="black"/>
<path d="M89.4363 13.9796H82.9819V17.034H88.7608V18.8133H82.9819V21.8676H89.5214V23.647H81.0234V12.1946H89.4363V13.9796Z" fill="black"/>
<path d="M55.4442 29.8407H48.9842V32.895H54.6779V34.68H48.9842V37.7343H55.5294V39.5137H46.9406V28.0613H55.4442V29.8407Z" fill="black"/>
<path d="M65.5544 39.5137L62.7502 35.5243H60.2013V39.5137H58.2485V28.0613H63.3462C65.9802 28.0613 67.598 29.4213 67.598 31.7107C67.598 33.575 66.4911 34.765 64.8789 35.19L67.9386 39.5193H65.5601L65.5544 39.5137ZM63.1759 29.9257H60.2865V33.745H63.2611C64.7086 33.745 65.6396 32.98 65.6396 31.7957C65.5544 30.6057 64.6178 29.9313 63.1759 29.9313" fill="black"/>
<path d="M77.7082 39.5137L74.9039 35.5243H72.3551V39.5137H70.3171V28.0613H75.4148C78.0488 28.0613 79.6666 29.4213 79.6666 31.7107C79.6666 33.575 78.5597 34.765 76.9475 35.19L80.0073 39.5193H77.7139L77.7082 39.5137ZM75.3297 29.9257H72.4402V33.745H75.4148C76.8624 33.745 77.7933 32.98 77.7933 31.7957C77.7082 30.6057 76.7715 29.9313 75.3297 29.9313" fill="black"/>
<path d="M90.969 29.8407H84.5089V32.895H90.2878V34.68H84.5089V37.7343H91.0542V39.5137H82.5562V28.0613H90.969V29.8407Z" fill="black"/>
<path d="M101.17 39.5137L98.3657 35.5243H95.8169V39.5137H93.7789V28.0613H98.8766C101.511 28.0613 103.128 29.4213 103.128 31.7107C103.128 33.575 102.021 34.765 100.409 35.19L103.469 39.5193H101.176L101.17 39.5137ZM98.7006 29.9257H95.8112V33.745H98.7858C100.233 33.745 101.164 32.98 101.164 31.7957C101.079 30.6057 100.228 29.9313 98.7006 29.9313" fill="black"/>
<path d="M116.889 39.5137H114.766L113.574 36.7143H108.135L106.943 39.5137H104.99L110.003 27.9763H111.871L116.883 39.5137H116.889ZM110.854 30.4357L108.902 35.0143H112.813L110.86 30.4357H110.854Z" fill="black"/>
<path d="M55.9495 50.4617C55.9495 53.856 53.9967 55.5503 51.0221 55.5503C48.0476 55.5503 46.1799 53.856 46.1799 50.5467V43.928H48.2179V50.4617C48.2179 52.581 49.3248 53.686 51.1073 53.686C52.8898 53.686 53.9967 52.581 53.9967 50.4617V43.843H56.0347V50.4617H55.9495Z" fill="black"/>
<path d="M61.2175 43.928H59.1796V55.3803H61.2175V43.928Z" fill="black"/>
<path d="M64.368 45.7073V43.928H73.5472V45.4523L66.7465 53.601H73.5472V55.3803H64.1125V53.8503L70.9132 45.7073H64.368Z" fill="black"/>
<mask id="mask0_60_234" style="mask-type:luminance" maskUnits="userSpaceOnUse" x="88" y="43" width="13" height="13">
<path d="M101 43.248H88.4202V55.9753H101V43.248Z" fill="white"/>
</mask>
<g mask="url(#mask0_60_234)">
<mask id="mask1_60_234" style="mask-type:luminance" maskUnits="userSpaceOnUse" x="88" y="43" width="13" height="13">
<path d="M101 43.248H88.4202V55.9753H101V43.248Z" fill="white"/>
</mask>
<g mask="url(#mask1_60_234)">
<path d="M88.4202 49.6967C88.4202 53.261 91.2245 56.0603 94.7099 56.0603C98.1954 56.0603 101 53.176 101 49.6967C101 46.2173 98.1954 43.333 94.7099 43.333C91.2245 43.248 88.4202 46.1323 88.4202 49.6967Z" fill="#515151"/>
</g>
</g>
<mask id="mask2_60_234" style="mask-type:luminance" maskUnits="userSpaceOnUse" x="78" y="43" width="13" height="13">
<path d="M90.969 43.248H78.3894V55.9753H90.969V43.248Z" fill="white"/>
</mask>
<g mask="url(#mask2_60_234)">
<mask id="mask3_60_234" style="mask-type:luminance" maskUnits="userSpaceOnUse" x="78" y="43" width="13" height="13">
<path d="M90.969 43.248H78.3894V55.9753H90.969V43.248Z" fill="white"/>
</mask>
<g mask="url(#mask3_60_234)">
<path d="M78.3894 49.6967C78.3894 53.261 81.1937 56.0603 84.6792 56.0603C88.1647 56.0603 90.969 53.176 90.969 49.6967C90.969 46.2173 88.1647 43.333 84.6792 43.333C81.1937 43.248 78.3894 46.1323 78.3894 49.6967Z" fill="#A2A2A2"/>
</g>
</g>
<path d="M88.4202 49.6967C88.4202 51.1417 88.8459 52.411 89.6974 53.516C90.4638 52.411 90.9747 51.1417 90.9747 49.6967C90.9747 48.2517 90.5489 46.9823 89.6974 45.8773C88.9311 46.8973 88.4202 48.2517 88.4202 49.6967Z" fill="#282828"/>
<mask id="mask4_60_234" style="mask-type:luminance" maskUnits="userSpaceOnUse" x="98" y="43" width="14" height="13">
<path d="M111.025 43.248H98.4452V55.9753H111.025V43.248Z" fill="white"/>
</mask>
<g mask="url(#mask4_60_234)">
<mask id="mask5_60_234" style="mask-type:luminance" maskUnits="userSpaceOnUse" x="98" y="43" width="14" height="13">
<path d="M111.025 43.248H98.4452V55.9753H111.025V43.248Z" fill="white"/>
</mask>
<g mask="url(#mask5_60_234)">
<path d="M98.4452 49.6967C98.4452 53.261 101.249 56.0603 104.735 56.0603C108.22 56.0603 111.025 53.176 111.025 49.6967C111.025 46.2173 108.22 43.333 104.735 43.333C101.249 43.248 98.4452 46.1323 98.4452 49.6967Z" fill="#C1C1C1"/>
</g>
</g>
<path d="M98.4452 49.6967C98.4452 51.1417 98.9561 52.496 99.7224 53.516C100.489 52.411 101 51.1417 101 49.6967C101 48.2517 100.489 46.8973 99.7224 45.8773C98.9561 46.8973 98.4452 48.2517 98.4452 49.6967Z" fill="#262626"/>
<path d="M130.84 18.86L129.64 17.98L131.56 15.56L128.56 14.7L129.04 13.28L131.92 14.36L131.8 11.28H133.3L133.18 14.36L136.1 13.28L136.54 14.7L133.58 15.54L135.48 17.98L134.28 18.86L132.56 16.26L130.84 18.86Z" fill="black" fill-opacity="0.4"/>
</svg>
