<svg width="151" height="68" viewBox="0 0 151 68" fill="none" xmlns="http://www.w3.org/2000/svg">
<path d="M91.6049 16.7563C89.7486 16.7563 88.2329 18.2637 88.2329 20.1223C88.2329 21.981 89.7429 23.4883 91.6049 23.4883C93.4668 23.4883 94.9768 21.981 94.9768 20.1223C94.9768 18.2637 93.4668 16.7563 91.6049 16.7563Z" fill="white"/>
<path d="M81.2335 16.7563C79.3773 16.7563 77.8616 18.2637 77.8616 20.1223C77.8616 21.981 79.3716 23.4883 81.2335 23.4883C83.0955 23.4883 84.6055 21.981 84.6055 20.1223C84.6055 18.2637 83.0955 16.7563 81.2335 16.7563Z" fill="white"/>
<path d="M59.4293 25.2563C52.254 25.2563 46.4127 31.0873 46.4127 38.25C46.4127 45.4127 52.254 51.2437 59.4293 51.2437C66.6047 51.2437 72.446 45.4127 72.446 38.25C72.446 31.0873 66.6047 25.2563 59.4293 25.2563ZM59.4293 49.5267C53.202 49.5267 48.1327 44.4663 48.1327 38.25C48.1327 32.0337 53.202 26.9733 59.4293 26.9733C65.6567 26.9733 70.726 32.0337 70.726 38.25C70.726 44.4663 65.6567 49.5267 59.4293 49.5267ZM96.7933 25.2563H76.045C74.1433 25.2563 72.5936 26.8033 72.5936 28.7017C72.5936 30.4017 74.1263 31.9657 75.9485 32.1357C75.9769 32.1413 76.011 32.147 76.0393 32.147H76.8454C77.362 32.147 77.7821 32.5663 77.7821 33.082V47.7983C77.7821 49.6967 79.3318 51.2437 81.2335 51.2437C83.1352 51.2437 84.6849 49.6967 84.6849 47.7983V26.9733H93.3419V30.4357H90.8101C89.3455 30.4357 88.1534 31.6257 88.1534 33.0877V47.804C88.1534 49.7023 89.7031 51.2493 91.6048 51.2493C93.5065 51.2493 95.0563 49.7023 95.0563 47.804V32.1583H96.7933C98.695 32.1583 100.245 30.6113 100.245 28.713C100.245 26.8147 98.695 25.262 96.7933 25.262V25.2563ZM82.9649 47.7983C82.9649 48.7503 82.1872 49.5324 81.2335 49.5324C80.2798 49.5324 79.4964 48.756 79.4964 47.7983V33.082C79.4964 31.62 78.3043 30.43 76.8454 30.43H76.204C75.1935 30.3903 74.3136 29.58 74.3136 28.696C74.3136 27.744 75.0913 26.9677 76.045 26.9677H82.9649V47.7927V47.7983ZM93.3419 47.7983C93.3419 48.7503 92.5642 49.5324 91.6048 49.5324C90.6455 49.5324 89.8678 48.756 89.8678 47.7983V33.082C89.8678 32.5663 90.2878 32.147 90.8044 32.147H93.3362V47.7927L93.3419 47.7983ZM96.7933 30.4357H95.0563V26.9733H96.7933C97.747 26.9733 98.5247 27.7497 98.5247 28.7073C98.5247 29.665 97.747 30.4357 96.7933 30.4357ZM113.415 25.2563C106.239 25.2563 100.398 31.0873 100.398 38.25C100.398 45.4127 106.239 51.2437 113.415 51.2437C120.59 51.2437 126.431 45.4127 126.431 38.25C126.431 31.0873 120.59 25.2563 113.415 25.2563ZM113.415 49.5267C107.187 49.5267 102.118 44.4663 102.118 38.25C102.118 32.0337 107.187 26.9733 113.415 26.9733C119.642 26.9733 124.711 32.0337 124.711 38.25C124.711 44.4663 119.642 49.5267 113.415 49.5267ZM42.9613 25.2563H28.0259C26.1242 25.2563 24.5745 26.8033 24.5745 28.7017C24.5745 30.6 26.1242 32.147 28.0259 32.147H31.1027C31.6192 32.147 32.0393 32.5663 32.0393 33.082V47.7983C32.0393 49.6967 33.589 51.2437 35.4907 51.2437C37.3924 51.2437 38.9422 49.6967 38.9422 47.7983V33.082C38.9422 32.5663 39.3622 32.147 39.8788 32.147H42.9556C44.8573 32.147 46.407 30.6 46.407 28.7017C46.407 26.8033 44.8573 25.2563 42.9556 25.2563H42.9613ZM42.9613 30.4357H39.8845C38.4199 30.4357 37.2278 31.6257 37.2278 33.0877V47.804C37.2278 48.756 36.4501 49.538 35.4907 49.538C34.5314 49.538 33.7537 48.7617 33.7537 47.804V33.0877C33.7537 31.6257 32.5616 30.4357 31.097 30.4357H28.0202C27.0665 30.4357 26.2888 29.6593 26.2888 28.7073C26.2888 27.7553 27.0665 26.9733 28.0202 26.9733H42.9556C43.9093 26.9733 44.687 27.7497 44.687 28.7073C44.687 29.665 43.9093 30.4357 42.9556 30.4357H42.9613ZM59.4293 30.2147C54.9902 30.2147 51.3741 33.8243 51.3741 38.2557C51.3741 42.687 54.9845 46.2967 59.4293 46.2967C63.8742 46.2967 67.4846 42.687 67.4846 38.2557C67.4846 33.8243 63.8685 30.2147 59.4293 30.2147ZM59.4293 44.574C55.9382 44.574 53.0942 41.735 53.0942 38.25C53.0942 34.765 55.9382 31.926 59.4293 31.926C62.9205 31.926 65.7645 34.765 65.7645 38.25C65.7645 41.735 62.9205 44.574 59.4293 44.574ZM113.415 30.2147C108.976 30.2147 105.359 33.8243 105.359 38.2557C105.359 42.687 108.976 46.2967 113.415 46.2967C117.854 46.2967 121.47 42.687 121.47 38.2557C121.47 33.8243 117.854 30.2147 113.415 30.2147ZM113.415 44.574C109.924 44.574 107.079 41.735 107.079 38.25C107.079 34.765 109.924 31.926 113.415 31.926C116.906 31.926 119.75 34.765 119.75 38.25C119.75 41.735 116.906 44.574 113.415 44.574Z" fill="white"/>
<path d="M129.84 17.86L128.64 16.98L130.56 14.56L127.56 13.7L128.04 12.28L130.92 13.36L130.8 10.28H132.3L132.18 13.36L135.1 12.28L135.54 13.7L132.58 14.54L134.48 16.98L133.28 17.86L131.56 15.26L129.84 17.86Z" fill="white" fill-opacity="0.4"/>
</svg>
