<?xml version="1.0" encoding="UTF-8"?>
<svg id="Capa_1" xmlns="http://www.w3.org/2000/svg" version="1.1" viewBox="0 0 544 192">
  <!-- Generator: Adobe Illustrator 29.8.2, SVG Export Plug-In . SVG Version: 2.1.1 Build 3)  -->
  <defs>
    <style>
      .st0 {
        fill: #fe001a;
      }

      .st1 {
        fill: #fff;
      }
    </style>
  </defs>
  <path class="st1" d="M214.3,58.3h20.9v69.1h-20.3v-9.8c-4.5,6.4-11.5,11.4-21.7,11.4s-24-8.3-24-25.4v-45.2h20.9v41.1c0,7.6,3.3,11.8,11.1,11.8s13.1-4.1,13.1-14.3v-38.5Z"/>
  <path class="st1" d="M465,58.3h20.9v69.1h-20.3v-9.8c-4.5,6.4-11.5,11.4-21.7,11.4s-24-8.3-24-25.4v-45.2h20.9v41.1c0,7.6,3.3,11.8,11.1,11.8s13.1-4.1,13.1-14.3v-38.5Z"/>
  <path class="st1" d="M365.3,127.1c-.9-1.7-1.6-4.7-1.7-7.8-4.4,5.9-11.9,9.4-22.1,9.4-14.5,0-25.2-7.4-25.2-21.1s7.1-19.8,27-21.5l10.8-.9c5.9-.7,9-2.4,9-6.8s-2.3-7-10.6-7-11.5,2-12.2,9.1h-20.7c1.1-15.3,10.8-24,33.1-24s30.8,8.2,30.8,21.3v36.7c0,5.1.9,10,2.8,12.7h-21ZM363.2,100v-5.1c-1.5,1.6-3.7,2.3-7,2.7l-8.6.9c-7.1.8-10,3.5-10,8.3s3.6,7.9,10.2,7.9,15.4-3.9,15.4-14.7Z"/>
  <path class="st1" d="M117.3,32c22.2,0,35.1,12.9,40.8,25.3,2.8,6,3.7,11.9,4,16.1.2,2.3.1,4.1.1,5.1,0,4.5-.5,8.9-.8,10.3-1.2,9.9-8.7,38.7-47.8,38.7h-33.5V32h37.2,0ZM100.5,109.3h14.9c8.3-.1,26-3.7,26-29.9s-.5-29.2-27.4-29.2h-13.6v60s0-.8,0-.8Z"/>
  <path class="st1" d="M310.7,118.9c-.2,7.4-1.6,14.7-5.4,21.1-4.2,6.9-11,11.3-18.8,13.1-15.9,3.7-37.9-1.1-41.6-19.4s-.3-1.9-.4-2.9c0-.2,0-.2,0-.2h19.9s.5,2,.5,2.2c.4,1.3,1.2,2.4,2.1,3.3,3,2.8,8.1,3.4,12,2.8,6.2-.9,9.9-5.6,11.3-11.5.5-2.3.7-4.7.8-7s.1-2.1.2-3.2-.1-1.7.1-2.1c-2.6,4-8.9,10-20,10-20.5,0-29.2-16.7-29.2-33.5s-1.4-36,29.9-36,18.5,7.8,20.4,10.6v-8.6s18.4,0,18.4,0v35.6c0,8.2.1,16.7,0,25,0,.2,0,.4,0,.7ZM264.6,77.9c-1.7,2.5-3.4,6.2-3.4,12.9s-.1,4,.9,7.2c.9,3.1,4.2,11.4,14.4,11.4s5-.1,8.1-2.3c3.2-2.1,7.1-6.1,7.1-16.7s-4.5-18.5-15.4-18.4c-7,0-10.1,3.4-11.7,5.9h0Z"/>
  <path class="st1" d="M413,127.5h-19.9V32h19.9s0,95.5,0,95.5Z"/>
  <rect class="st0" x="32.1" y="32" width="32" height="32"/>
</svg>