<svg width="151" height="69" viewBox="0 0 151 69" fill="none" xmlns="http://www.w3.org/2000/svg">
<g clip-path="url(#clip0_60_94)">
<path fill-rule="evenodd" clip-rule="evenodd" d="M135.752 35.7183L138.659 32.8963L126.675 21.172L114.737 32.8453L126.613 44.4563L132.091 39.1013L129.247 36.3417L126.675 38.8577L120.533 32.851L126.675 26.8443L135.752 35.7183Z" fill="white"/>
<path fill-rule="evenodd" clip-rule="evenodd" d="M117.547 36.2396L114.641 39.0616L126.624 50.7803L138.562 39.1126L126.687 27.496L121.214 32.8453L124.024 35.588L126.624 33.0946L132.766 39.1013L126.624 45.108L117.547 36.2396Z" fill="white"/>
<path fill-rule="evenodd" clip-rule="evenodd" d="M107.585 29.6777H106.472C106.041 29.6777 105.751 29.8024 105.751 30.1367C105.751 30.5674 106.029 30.692 106.472 30.692H107.585V29.6777ZM109.696 34.7777H105.808C104.593 34.7777 103.407 34.0807 103.407 32.7434C103.407 31.7574 103.98 31.2814 104.599 31.0717C104.088 30.7997 103.753 30.437 103.753 29.7627C103.753 29.0884 104.139 28.0797 105.944 28.0797H109.702V34.7777H109.696ZM107.585 31.933H106.262C105.762 31.933 105.524 32.1484 105.524 32.545C105.524 33.0607 105.91 33.1854 106.353 33.1854H107.59V31.933H107.585Z" fill="white"/>
<path fill-rule="evenodd" clip-rule="evenodd" d="M97.8263 31.6893C97.8263 30.7487 97.8093 29.7853 100.188 29.7853C101.369 29.7853 102.697 30.012 102.754 31.3777H100.983C100.971 31.168 100.858 30.879 100.273 30.879C99.9665 30.879 99.6486 31.0037 99.6486 31.3323C99.6486 31.661 99.9097 31.7177 100.171 31.763C101.142 31.9443 102.986 31.8877 102.986 33.4233C102.986 34.4433 102.192 34.8967 101.227 34.8967C100.614 34.8967 100.029 34.7663 99.6258 34.313H99.6088C99.6202 34.4433 99.5918 34.6417 99.5407 34.772H97.5993C97.8093 34.466 97.832 34.0523 97.832 33.684V31.6837L97.8263 31.6893ZM99.6542 33.0437C99.6826 33.548 100.018 33.803 100.449 33.803C100.795 33.803 101.045 33.5763 101.045 33.3553C101.045 33.0267 100.824 32.9247 100.404 32.8283C100.142 32.7717 99.8813 32.7093 99.6542 32.596V33.0493V33.0437Z" fill="white"/>
<path fill-rule="evenodd" clip-rule="evenodd" d="M96.9011 34.7777H94.9994V32.205C94.9994 31.4287 94.568 31.2643 94.2388 31.2643C93.6824 31.2643 93.6143 31.661 93.6143 32.222V34.772H91.7126V31.4343C91.7126 30.318 92.5301 29.7797 93.4213 29.7797C94.1763 29.7797 94.6872 30.0347 95.0448 30.522H95.0619V29.9043H96.8954V34.772L96.9011 34.7777Z" fill="white"/>
<path fill-rule="evenodd" clip-rule="evenodd" d="M85.735 31.7573C85.8485 30.4143 86.9668 29.7853 88.2724 29.7853C89.7711 29.7853 90.9689 30.8053 90.9689 32.3467C90.9689 33.888 89.7654 34.8967 88.2724 34.8967C86.9271 34.8967 85.8655 34.1543 85.6782 32.834H87.4947C87.5345 33.2193 87.8183 33.548 88.2327 33.548C88.965 33.548 89.0672 32.936 89.0672 32.3467C89.0672 31.7573 88.965 31.134 88.2327 31.134C88.0283 31.134 87.8637 31.1907 87.7502 31.2983C87.6253 31.4003 87.5572 31.559 87.5401 31.7573H85.735Z" fill="white"/>
<path fill-rule="evenodd" clip-rule="evenodd" d="M81.6478 32.3353C81.6478 32.851 81.7443 33.548 82.4652 33.548C83.1861 33.548 83.2826 32.851 83.2826 32.3353C83.2826 31.8197 83.1861 31.134 82.4652 31.134C81.7443 31.134 81.6478 31.8197 81.6478 32.3353ZM79.7461 32.3353C79.7461 30.9867 80.5919 29.7853 82.4652 29.7853C84.3385 29.7853 85.1843 30.9867 85.1843 32.3353C85.1843 33.684 84.3385 34.8967 82.4652 34.8967C80.5919 34.8967 79.7461 33.684 79.7461 32.3353Z" fill="white"/>
<path fill-rule="evenodd" clip-rule="evenodd" d="M72.5254 32.3354C72.5254 32.919 72.6786 33.548 73.3598 33.548C74.041 33.548 74.2 32.919 74.2 32.3354C74.2 31.7517 74.0467 31.134 73.3598 31.134C72.673 31.134 72.5254 31.763 72.5254 32.3354ZM70.6861 28.0797H72.5878V30.4484H72.6048C72.8887 30.0347 73.3996 29.791 73.9673 29.791C75.6362 29.791 76.0903 31.1794 76.0903 32.324C76.0903 33.5424 75.4091 34.9024 73.9956 34.9024C73.0647 34.9024 72.7751 34.5567 72.5367 34.245H72.5197V34.7777H70.6804V28.0797H70.6861Z" fill="white"/>
<path fill-rule="evenodd" clip-rule="evenodd" d="M64.4758 32.7603C64.4758 30.862 65.333 29.7853 67.3085 29.7853C68.8866 29.7853 69.9425 30.9413 69.9425 32.358C69.9425 33.9787 68.739 34.9023 67.1439 34.9023C66.0086 34.9023 64.964 34.4093 64.578 33.361H66.3548C66.5081 33.5933 66.8487 33.7067 67.1496 33.7067C67.7456 33.7067 68.0749 33.31 68.1203 32.7603H64.4702H64.4758ZM68.1146 31.797C68.0295 31.2757 67.7002 30.981 67.1325 30.981C66.6443 30.981 66.2981 31.3437 66.2981 31.797H68.1146Z" fill="white"/>
<path fill-rule="evenodd" clip-rule="evenodd" d="M58.6913 31.4287C58.6913 29.9327 57.8625 29.587 57.3289 29.587C56.7953 29.587 55.9608 29.9327 55.9608 31.4287C55.9608 32.9247 56.7896 33.2647 57.3289 33.2647C57.8682 33.2647 58.6913 32.919 58.6913 31.4287ZM60.8087 31.4287C60.8087 33.4744 59.4179 34.9364 57.3346 34.9364C55.2512 34.9364 53.8548 33.4744 53.8548 31.4287C53.8548 29.383 55.2456 27.921 57.3346 27.921C59.4236 27.921 60.8087 29.383 60.8087 31.4287Z" fill="white"/>
<path fill-rule="evenodd" clip-rule="evenodd" d="M48.0417 31.7573C48.1553 30.4143 49.2736 29.7853 50.5792 29.7853C52.0779 29.7853 53.2756 30.8053 53.2756 32.3467C53.2756 33.888 52.0722 34.8967 50.5792 34.8967C49.2338 34.8967 48.1723 34.1543 47.985 32.834H49.8015C49.8412 33.2193 50.1307 33.548 50.5395 33.548C51.2718 33.548 51.3739 32.936 51.3739 32.3467C51.3739 31.7573 51.2661 31.134 50.5395 31.134C50.3351 31.134 50.1762 31.1907 50.0569 31.2983C49.9321 31.4003 49.8639 31.559 49.8469 31.7573H48.0417Z" fill="white"/>
<path fill-rule="evenodd" clip-rule="evenodd" d="M42.2572 31.7573C42.3764 30.4143 43.489 29.7853 44.7947 29.7853C46.2933 29.7853 47.4911 30.8053 47.4911 32.3467C47.4911 33.888 46.2876 34.8967 44.7947 34.8967C43.4493 34.8967 42.3877 34.1543 42.2004 32.834H44.0169C44.0567 33.2193 44.3405 33.548 44.7549 33.548C45.4872 33.548 45.5894 32.936 45.5894 32.3467C45.5894 31.7573 45.4872 31.134 44.7549 31.134C44.5506 31.134 44.3916 31.1907 44.2724 31.2983C44.1475 31.4003 44.0794 31.559 44.0624 31.7573H42.2572Z" fill="white"/>
<path fill-rule="evenodd" clip-rule="evenodd" d="M39.5494 28.0797H41.4511V29.383H39.5494V28.0797ZM41.4568 34.7777H39.5551V29.91H41.4568V34.7777Z" fill="white"/>
<path fill-rule="evenodd" clip-rule="evenodd" d="M35.1954 32.3354C35.1954 32.919 35.3487 33.548 36.0356 33.548C36.7224 33.548 36.87 32.919 36.87 32.3354C36.87 31.7517 36.7168 31.134 36.0356 31.134C35.3544 31.134 35.1954 31.763 35.1954 32.3354ZM33.3618 28.0797H35.2635V30.4484H35.2806C35.5701 30.0347 36.0753 29.791 36.6486 29.791C38.3176 29.791 38.7717 31.1794 38.7717 32.324C38.7717 33.5424 38.0905 34.9024 36.677 34.9024C35.7461 34.9024 35.4565 34.5567 35.2124 34.245H35.1954V34.7777H33.3618V28.0797Z" fill="white"/>
<path fill-rule="evenodd" clip-rule="evenodd" d="M27.1458 32.7603C27.1458 30.862 28.003 29.7853 29.9842 29.7853C31.5623 29.7853 32.6182 30.9413 32.6182 32.358C32.6182 33.9787 31.4204 34.9023 29.8196 34.9023C28.6899 34.9023 27.6397 34.4093 27.2594 33.361H29.0362C29.1894 33.5933 29.53 33.7067 29.8366 33.7067C30.4326 33.7067 30.7619 33.31 30.8073 32.7603H27.1515H27.1458ZM30.7903 31.797C30.7051 31.2757 30.3759 30.981 29.8139 30.981C29.32 30.981 28.9794 31.3437 28.9794 31.797H30.7959H30.7903Z" fill="white"/>
<path fill-rule="evenodd" clip-rule="evenodd" d="M26.4363 34.7777H24.5346V32.205C24.5346 31.4287 24.1032 31.2643 23.7739 31.2643C23.2176 31.2643 23.1495 31.661 23.1495 32.222V34.772H21.2478V31.4343C21.2478 30.318 22.0652 29.7797 22.9565 29.7797C23.7115 29.7797 24.2224 30.0347 24.58 30.522H24.597V29.9043H26.4306V34.772L26.4363 34.7777Z" fill="white"/>
<path fill-rule="evenodd" clip-rule="evenodd" d="M18.0064 28.4254H19.9081V29.91H20.7539V31.0547H19.9081V33.3837C19.9081 34.7154 19.0112 34.84 18.2051 34.84C17.802 34.84 17.3706 34.7834 16.9846 34.7834V33.378C17.1265 33.395 17.2741 33.4064 17.416 33.4064C17.8985 33.4064 18.0007 33.2137 18.0007 32.7604V31.0604H16.9846V29.9157H18.0007V28.431L18.0064 28.4254Z" fill="white"/>
<path fill-rule="evenodd" clip-rule="evenodd" d="M11.2058 32.7603C11.2058 30.862 12.063 29.7853 14.0441 29.7853C15.6166 29.7853 16.6781 30.9413 16.6781 32.358C16.6781 33.9787 15.4803 34.9023 13.8795 34.9023C12.7498 34.9023 11.6996 34.4093 11.3193 33.361H13.0961C13.2494 33.5933 13.59 33.7067 13.8965 33.7067C14.4926 33.7067 14.8218 33.31 14.8672 32.7603H11.2114H11.2058ZM14.8445 31.797C14.7594 31.2757 14.4301 30.981 13.8681 30.981C13.3743 30.981 13.0337 31.3437 13.0337 31.797H14.8502H14.8445Z" fill="white"/>
<path fill-rule="evenodd" clip-rule="evenodd" d="M103.327 39.702C103.514 38.0133 104.559 37.0387 106.455 37.0273C108.584 37.0273 109.963 38.4383 109.963 40.5633C109.963 42.558 108.697 44.0993 106.455 44.0993C104.428 44.0993 103.299 42.6543 103.299 41.2887H105.388C105.513 41.9233 105.796 42.4107 106.512 42.4107C107.511 42.4107 107.829 41.4643 107.829 40.5577C107.829 39.651 107.511 38.7047 106.512 38.7047C105.632 38.7047 105.439 39.4527 105.399 39.6963H103.327V39.702Z" fill="white"/>
<path fill-rule="evenodd" clip-rule="evenodd" d="M102.612 43.935H100.693V41.997C100.693 40.9487 100.284 40.5124 99.5294 40.5124C99.1377 40.5124 98.9674 40.569 98.7744 40.637V38.9824C98.9617 38.937 99.1434 38.9087 99.3364 38.9087C100.035 38.9087 100.443 39.2317 100.75 39.8154H100.767V39.0277H102.606V43.935H102.612Z" fill="white"/>
<path fill-rule="evenodd" clip-rule="evenodd" d="M93.3985 41.9064C93.3985 39.9967 94.2614 38.9087 96.2539 38.9087C97.8434 38.9087 98.9049 40.0704 98.9049 41.504C98.9049 43.1417 97.6958 44.0654 96.0893 44.0654C94.9482 44.0654 93.8924 43.5724 93.5064 42.5127H95.3002C95.4535 42.7507 95.7941 42.864 96.1006 42.864C96.7023 42.864 97.0316 42.4674 97.077 41.912H93.3985V41.9064ZM97.0657 40.926C96.9805 40.399 96.6513 40.0987 96.0779 40.0987C95.584 40.0987 95.2378 40.467 95.2378 40.926H97.0713H97.0657Z" fill="white"/>
<path fill-rule="evenodd" clip-rule="evenodd" d="M89.3965 41.4757C89.3965 42.065 89.5498 42.694 90.2367 42.694C90.9236 42.694 91.0768 42.0593 91.0768 41.4757C91.0768 40.892 90.9236 40.263 90.2367 40.263C89.5498 40.263 89.3965 40.8977 89.3965 41.4757ZM87.5516 37.186H89.4703V39.566H89.4873C89.7825 39.1523 90.2878 38.903 90.8611 38.903C92.5471 38.903 93.0012 40.3027 93.0012 41.453C93.0012 42.6827 92.3143 44.054 90.8895 44.054C89.9472 44.054 89.6576 43.7027 89.4136 43.391H89.3965V43.9293H87.5516V37.1747V37.186Z" fill="white"/>
<path fill-rule="evenodd" clip-rule="evenodd" d="M81.3867 41.9064C81.3867 39.9967 82.2495 38.9087 84.2421 38.9087C85.8315 38.9087 86.8931 40.0704 86.8931 41.504C86.8931 43.1417 85.6839 44.0654 84.0774 44.0654C82.9364 44.0654 81.8805 43.5724 81.4945 42.5127H83.2884C83.4416 42.7507 83.7822 42.864 84.0888 42.864C84.6905 42.864 85.0198 42.4674 85.0652 41.912H81.3867V41.9064ZM85.0538 40.926C84.9687 40.399 84.6394 40.0987 84.0661 40.0987C83.5722 40.0987 83.2259 40.467 83.2259 40.926H85.0595H85.0538Z" fill="white"/>
<path fill-rule="evenodd" clip-rule="evenodd" d="M80.7679 43.935H78.8492V41.3454C78.8492 40.5634 78.4121 40.399 78.0829 40.399C77.5209 40.399 77.4528 40.7957 77.4528 41.3624V43.935H75.534V40.569C75.534 39.447 76.3572 38.9087 77.2598 38.9087C78.0261 38.9087 78.537 39.1637 78.8946 39.6567H78.9117V39.0334H80.7566V43.9407L80.7679 43.935Z" fill="white"/>
<path fill-rule="evenodd" clip-rule="evenodd" d="M69.6076 40.892C69.7211 39.5377 70.8451 38.9087 72.1621 38.9087C73.6721 38.9087 74.8812 39.94 74.8812 41.487C74.8812 43.034 73.6721 44.0597 72.1621 44.0597C70.8054 44.0597 69.7325 43.3117 69.5508 41.98H71.3787C71.4184 42.3654 71.708 42.6997 72.1224 42.6997C72.8546 42.6997 72.9625 42.0877 72.9625 41.487C72.9625 40.8864 72.8546 40.2687 72.1224 40.2687C71.918 40.2687 71.7534 40.3254 71.6398 40.433C71.5149 40.535 71.4468 40.6937 71.4298 40.892H69.6076Z" fill="white"/>
<path fill-rule="evenodd" clip-rule="evenodd" d="M66.9792 37.186H68.8979V38.5007H66.9792V37.186ZM68.8979 43.935H66.9792V39.0277H68.8979V43.935Z" fill="white"/>
<path fill-rule="evenodd" clip-rule="evenodd" d="M61.1719 40.824C61.1719 39.8777 61.1549 38.903 63.5504 38.903C64.7426 38.903 66.0766 39.1297 66.1333 40.5124H64.3509C64.3395 40.3027 64.226 40.0137 63.6356 40.0137C63.3291 40.0137 63.0055 40.1383 63.0055 40.467C63.0055 40.7787 63.2666 40.8524 63.5277 40.8977C64.5041 41.079 66.3661 41.0224 66.3661 42.575C66.3661 43.6064 65.5657 44.0597 64.595 44.0597C63.9762 44.0597 63.3858 43.9294 62.9771 43.4704H62.9601C62.9714 43.6007 62.943 43.799 62.8919 43.935H60.9392C61.1492 43.6234 61.1719 43.2097 61.1719 42.8357V40.824ZM63.0112 42.184C63.0395 42.694 63.3801 42.949 63.8116 42.949C64.1579 42.949 64.4133 42.7224 64.4133 42.4957C64.4133 42.167 64.1862 42.0594 63.7662 41.9687C63.505 41.912 63.2439 41.844 63.0112 41.7307V42.184Z" fill="white"/>
<path d="M58.3847 37.186H60.2977V43.935H58.3847V37.186Z" fill="white"/>
<mask id="mask0_60_94" style="mask-type:luminance" maskUnits="userSpaceOnUse" x="15" y="16" width="122" height="34">
<path d="M136.808 16.208H15.327V49.392H136.808V16.208Z" fill="white"/>
</mask>
<g mask="url(#mask0_60_94)">
<path d="M136.803 36.3133C123.23 24.1357 101.085 16.208 76.062 16.208C51.0391 16.208 28.9 24.1413 15.327 36.3133C30.3305 26.6007 51.9871 20.4977 76.0676 20.4977C100.148 20.4977 121.805 26.6007 136.808 36.3133" fill="black"/>
</g>
<mask id="mask1_60_94" style="mask-type:luminance" maskUnits="userSpaceOnUse" x="15" y="16" width="122" height="34">
<path d="M136.808 16.208H15.327V49.392H136.808V16.208Z" fill="white"/>
</mask>
<g mask="url(#mask1_60_94)">
<path d="M111.967 32.46H94.057V49.3863H98.8765V36.4833H110.179C110.849 36.4833 111.127 36.8063 111.127 37.458V40.6597C111.127 41.3567 110.854 41.6853 110.179 41.6853H103.668V45.4593H111.967C114.896 45.4593 115.918 44.2353 115.918 41.3057V36.2793C115.918 33.803 114.896 32.4543 111.967 32.4543" fill="black"/>
</g>
<mask id="mask2_60_94" style="mask-type:luminance" maskUnits="userSpaceOnUse" x="14" y="16" width="123" height="34">
<path d="M136.241 16.208H14.7594V49.392H136.241V16.208Z" fill="white"/>
</mask>
<g mask="url(#mask2_60_94)">
<path d="M67.3199 49.392C64.3907 49.392 63.3235 48.0377 63.3235 44.9154V37.9624C63.3235 34.2847 64.9868 32.46 68.5631 32.46H85.156V36.4834H69.6076C68.6142 36.4834 68.1657 36.982 68.1657 38.036V44.5074C68.1657 45.2327 68.4382 45.584 69.0853 45.584H80.785V41.6854H85.5761V49.3864H67.3199V49.392Z" fill="black"/>
</g>
<mask id="mask3_60_94" style="mask-type:luminance" maskUnits="userSpaceOnUse" x="15" y="15" width="122" height="34">
<path d="M136.808 15.2333H15.327V48.4173H136.808V15.2333Z" fill="white"/>
</mask>
<g mask="url(#mask3_60_94)">
<path d="M49.0126 31.457H45.3284H41.6442L32.4026 48.389H36.7793H44.9424V44.615H40.3727L45.3171 35.3614V35.3557H45.3227L45.3171 35.3614L45.3284 35.3784L45.3341 35.3614L45.3284 35.3557H45.3341V35.3614L52.2994 48.389H58.2542L49.0126 31.457Z" fill="black"/>
</g>
<path d="M133.84 20.86L132.64 19.98L134.56 17.56L131.56 16.7L132.04 15.28L134.92 16.36L134.8 13.28H136.3L136.18 16.36L139.1 15.28L139.54 16.7L136.58 17.54L138.48 19.98L137.28 20.86L135.56 18.26L133.84 20.86Z" fill="black" fill-opacity="0.4"/>
</g>
<defs>
<clipPath id="clip0_60_94">
<rect width="151" height="68" fill="white" transform="matrix(-1 0 0 1 151 0.5)"/>
</clipPath>
</defs>
</svg>
