<svg width="151" height="68" viewBox="0 0 151 68" fill="none" xmlns="http://www.w3.org/2000/svg">
<path d="M113.744 17.5962C110.139 14.7487 105.972 13.0011 101.573 11.7281C93.3588 9.34399 84.9062 8.86382 75.5113 8.69073C73.4393 8.79123 70.4647 8.91965 67.4958 9.09273C62.0235 9.4054 56.625 10.2038 51.3627 11.7392C46.0947 13.2802 41.1219 15.4187 37.2618 19.4275C33.0099 23.8383 31.3069 29.042 32.9304 35.005C33.9863 38.8742 36.467 41.973 39.3167 44.7423C46.7872 51.9951 55.7451 56.7241 65.7985 59.5214C71.5717 61.1294 77.413 61.5314 83.3338 60.4036C90.7816 58.991 97.639 56.1491 104.048 52.224C109.055 49.1587 113.602 45.5631 117.093 40.8228C119.154 38.0256 120.686 34.9826 120.715 31.454C120.76 25.7087 118.228 21.1472 113.732 17.5962H113.744ZM85.332 17.3505C85.3888 15.8653 85.9337 15.0334 86.8079 15.0725C88.0114 15.1283 89.4306 16.2897 89.3624 17.1662C89.2886 18.1601 87.7559 19.394 86.6149 19.3828C85.7294 19.3772 85.2809 18.6626 85.332 17.3449V17.3505ZM90.1174 49.3486C89.7995 49.8901 89.4703 50.4596 89.1013 51.0906C87.9773 50.0018 86.8988 48.9466 85.8145 47.9025C85.3774 47.4781 84.9971 46.9477 84.4748 46.663C82.9024 45.8199 81.9827 44.5078 81.4718 42.8831C80.978 41.2974 79.8256 40.1919 78.6675 39.1031C78.378 38.8296 77.9296 38.7123 77.2824 38.3885C77.4868 38.8631 77.5265 39.0473 77.6344 39.1869C78.4745 40.2701 79.0536 41.3365 78.2021 42.7491C77.9636 43.1399 78.1794 43.8713 78.3497 44.4017C78.5938 45.1666 78.5767 45.7808 77.6798 46.2442C78.4121 46.9198 79.1898 47.534 78.7924 48.6451C77.7252 48.7344 77.2654 46.8975 75.7327 47.7071C77.0043 48.6897 78.0828 49.6221 79.2579 50.4094C80.4841 51.2357 81.0915 52.4082 81.4491 53.8487C80.9325 53.4523 80.4103 53.0671 79.8937 52.6651C78.361 51.4758 76.8226 50.2921 75.3126 49.0861C74.8642 48.7288 74.5065 48.5781 74.1092 49.276C76.7602 51.3418 79.4282 53.4132 82.119 55.507C81.0688 56.1602 80.7566 56.1602 79.8994 55.507C77.7877 53.899 75.6759 52.291 73.5812 50.6662C73.1271 50.3145 72.7695 50.1749 72.3494 50.8951C74.5122 52.5534 76.7034 54.234 79.0479 56.0318C77.8955 56.3445 77.1178 56.3333 76.3004 55.6466C74.6371 54.2451 72.9227 52.894 71.1459 51.6433C70.3796 51.1017 69.4032 50.8505 68.5176 50.4708C68.4722 50.549 68.4268 50.6327 68.3871 50.7109C70.6804 52.4808 72.9738 54.2452 75.4375 56.1435C74.1489 56.2831 73.252 56.1826 72.3664 55.4567C70.2887 53.7538 68.1146 52.1737 66.0028 50.5099C65.4976 50.1135 65.1116 50.0911 64.6234 50.6718C66.6727 52.2575 68.722 53.8431 70.7769 55.4288C70.7259 55.5516 70.6748 55.6801 70.618 55.8029C69.7154 55.4846 68.6936 55.3339 67.9272 54.8146C66.1391 53.5975 64.4701 52.2016 62.7444 50.8672C62.1597 51.4367 62.2619 51.8108 62.8296 52.2128C63.7662 52.8772 64.6631 53.5975 65.509 54.4015C62.1881 53.5472 59.0716 52.2631 55.9892 50.6997C56.7612 49.9516 57.5219 49.9571 58.2769 50.2921C59.134 50.6662 59.8323 50.5434 60.451 49.8455C60.6497 49.6221 60.9449 49.4826 61.1606 49.2704C61.8589 48.5892 62.5912 48.2821 63.647 48.5278C64.2204 48.6618 64.947 48.3436 65.5544 48.1146C66.0539 47.9248 66.4627 47.5117 66.9565 47.2827C69.1648 46.261 70.7202 44.72 71.373 42.3303C71.4922 41.8836 72.0145 41.4705 72.4516 41.2025C73.4166 40.6218 74.0978 39.8792 74.5917 38.8575C74.9096 38.1875 75.5567 37.6682 76.096 37.1155C76.2379 36.9703 76.5501 36.8475 76.7318 36.8977C77.9636 37.2327 79.1841 37.4226 80.2003 38.4332C81.7046 39.9239 82.7491 41.6492 83.7312 43.4581C84.0377 44.0221 84.577 44.4799 85.0538 44.9377C85.7407 45.591 86.5411 46.1326 87.1599 46.8361C87.7559 47.5228 88.3179 47.7685 89.1978 47.4056C89.5044 47.2771 90.0663 47.3162 90.2991 47.5172C91.9907 48.9856 94.0173 49.7338 96.129 50.3312C96.3731 50.3982 96.5945 50.5434 96.9862 50.7276C94.1309 52.4138 92.2632 50.4262 90.1004 49.343L90.1174 49.3486ZM113.869 32.0626C112.512 34.268 110.644 35.9486 107.971 36.3617C105.967 36.6744 104.905 35.5019 105.104 33.5086C105.115 33.3858 105.087 33.263 105.064 33.0396C104.258 33.6315 103.554 34.2121 102.788 34.7035C100.426 36.2221 98.712 35.4405 98.2805 32.6935C98.2408 32.4366 98.184 32.1798 98.1216 31.8113C97.4177 32.4255 96.8046 32.9894 96.1574 33.5198C95.8168 33.799 95.4422 34.0446 95.0505 34.2456C94.1309 34.7258 93.1942 34.7984 92.3881 34.0447C91.6104 33.3132 91.4515 32.3752 91.9567 31.454C92.916 29.712 93.9606 28.0147 94.9653 26.295C95.4365 25.491 95.902 24.687 96.3675 23.8774C96.2937 23.7936 96.2199 23.7099 96.1518 23.6261C95.6749 23.883 95.1527 24.084 94.7269 24.4022C91.5366 26.831 88.9764 29.7511 87.5345 33.5254C87.2166 34.3573 86.7114 34.5527 85.9394 34.0614C84.7984 33.3412 84.8268 32.258 85.0992 31.1413C84.1228 31.9341 83.1975 32.7884 82.1644 33.4863C81.6308 33.8437 80.8928 34.0949 80.257 34.0781C78.9344 34.0446 78.0715 32.5986 78.5086 31.3367C78.6732 30.8677 78.906 30.4267 79.2239 29.7176C78.3553 30.4267 77.7536 31.0799 77.0156 31.4986C75.4886 32.3585 73.9389 33.2239 72.304 33.8437C71.0892 34.3071 69.7722 33.397 69.5508 32.2524C69.3862 31.4093 69.7268 31.1022 70.5783 31.0799C71.3049 31.0631 72.1223 31.0241 72.7354 30.6947C75.2218 29.3435 76.4707 27.1325 76.8056 24.4134C76.851 24.0672 76.6694 23.4196 76.4707 23.3693C76.1187 23.28 75.5908 23.4307 75.2899 23.6708C72.8489 25.6026 71.0721 28.0984 69.5962 30.7616C68.0067 33.6203 66.6443 36.5962 65.2251 39.5442C64.8789 40.2701 64.6575 41.0406 63.5959 40.8396C62.7501 40.6832 61.944 39.7564 61.9781 38.8631C61.9951 38.3773 62.1484 37.8637 62.3811 37.4337C63.4994 35.3512 64.6631 33.2965 65.9631 30.9571C65.1116 31.7611 64.5212 32.4311 63.823 32.9503C62.9261 33.6147 62.0008 34.2847 60.9846 34.7202C59.4009 35.3958 58.0895 34.6421 57.6354 32.9838C57.59 32.8275 57.5332 32.6711 57.3913 32.258C56.7612 32.9391 56.3071 33.5812 55.7167 34.0447C54.9503 34.6477 54.1158 35.2004 53.2303 35.608C52.3277 36.0267 51.3797 35.9765 50.5395 35.2786C49.7107 34.5807 49.7562 33.6873 49.8981 32.7716C49.9492 32.4478 50.074 32.1296 50.1762 31.7722C48.8763 32.8554 47.6615 33.9609 46.3501 34.9436C45.141 35.8481 43.8013 36.479 42.1948 36.4287C40.7586 36.3841 39.7027 35.7699 39.0045 34.5695C37.9032 32.6544 38.0224 30.6277 38.6015 28.6009C40.3215 22.5821 46.3672 17.5794 52.7251 16.9262C54.3827 16.7531 56.0516 16.8927 57.4992 17.7469C58.2201 18.1712 58.8218 18.8859 59.2816 19.5894C59.4576 19.8574 59.1908 20.5497 58.924 20.9015C58.7821 21.0913 58.0952 21.136 57.8511 20.9685C55.6088 19.4331 53.1565 19.4498 50.778 20.2985C46.2536 21.9121 43.3301 25.0555 42.2459 29.7343C42.1551 30.1196 42.138 30.5383 42.1664 30.9347C42.297 32.5595 43.4096 33.2574 44.9537 32.6376C46.9178 31.8504 48.3937 30.4043 49.6256 28.7907C51.1242 26.831 52.4412 24.7428 53.8263 22.6993C54.2634 22.0572 54.587 21.2365 55.6202 21.6385C56.4546 21.9623 57.0904 23.2521 56.7839 24.084C56.5171 24.8042 56.1027 25.4742 55.7678 26.1666C55.0468 27.6462 54.2918 29.1202 53.639 30.6332C53.4914 30.9794 53.7071 31.4763 53.7525 31.9006C54.1556 31.8057 54.6551 31.8281 54.939 31.5936C56.7725 30.114 58.4245 28.4725 59.4122 26.295C60.5986 23.6876 61.751 21.0634 63.0396 18.5062C63.6243 17.3449 64.4418 16.2673 65.2762 15.2567C65.7531 14.6761 66.4286 14.1792 67.1212 13.8553C69.0966 12.9341 71.1062 14.3578 70.7542 16.4739C70.5839 17.5068 70.1752 18.5565 69.6473 19.4721C67.6775 22.9115 64.9527 25.7478 62.1143 28.5004C61.6715 28.9247 61.3423 29.6059 61.2515 30.2089C61.0868 31.2921 61.6261 31.6438 62.5628 31.0687C63.5108 30.4881 64.4418 29.8181 65.2308 29.042C67.6718 26.6356 69.6643 23.9276 70.635 20.5888C70.7486 20.1924 71.1403 19.595 71.4354 19.5838C71.8952 19.5615 72.48 19.8462 72.8319 20.1812C73.479 20.7954 73.7288 21.5938 73.3315 22.4816C73.1555 22.8724 73.0079 23.28 72.8092 23.7881C73.7061 22.9506 74.4668 22.1466 75.324 21.4542C76.1585 20.7786 77.0213 19.997 78.2588 20.6056C79.5304 21.2253 79.9959 22.3755 79.8937 23.6261C79.7972 24.8098 79.3658 25.9711 79.0706 27.1325C79.0195 27.3391 78.906 27.5345 78.8776 27.7634C80.7679 25.9321 82.6015 24.0784 83.4076 21.5045C83.6517 20.7284 84.1058 20.6111 84.8097 20.9852C85.9394 21.5826 86.3595 22.6267 85.7691 23.7769C84.9516 25.3681 84.032 26.9036 83.1805 28.4781C82.8172 29.1481 82.505 29.846 82.1701 30.5327C82.2552 30.6165 82.3404 30.7002 82.4255 30.784C82.7604 30.5997 83.1294 30.4546 83.4246 30.2201C86.2289 27.9476 88.2441 25.1057 89.6803 21.8395C89.9358 21.2588 89.9415 20.4101 90.9689 20.6782C91.9964 20.9461 92.6663 21.873 92.4562 22.7775C92.3484 23.2465 92.1383 23.6987 92.0305 24.0002C93.5064 23.0399 95.0278 21.9511 96.6456 21.0355C97.7242 20.4269 98.6949 20.7061 99.3932 21.5715C100.006 22.3252 100.142 23.1404 99.6259 24.0058C98.4565 25.9432 97.2757 27.8751 96.1177 29.8181C95.885 30.2033 95.726 30.6276 95.5273 31.0352C95.6011 31.0966 95.6749 31.1581 95.7544 31.2139C96.2142 30.851 96.7365 30.5439 97.1225 30.114C98.2748 28.8298 99.3307 27.4563 100.511 26.1945C101.704 24.9159 102.867 23.5424 104.286 22.5597C106.251 21.203 107.959 21.4989 109.662 23.0511C109.725 23.0343 109.81 23.0287 109.838 22.9896C110.258 22.3531 110.633 21.6496 111.598 22.2136C112.444 22.7049 112.841 23.6987 112.393 24.5362C111.422 26.3508 110.343 28.1096 109.395 29.9353C108.981 30.7282 108.669 31.6047 108.516 32.4813C108.362 33.3356 108.89 33.6873 109.611 33.2016C110.559 32.5651 111.348 31.6996 112.262 31.0073C112.608 30.7449 113.119 30.6946 113.556 30.5439C113.676 31.0631 114.073 31.7443 113.874 32.0682L113.869 32.0626Z" fill="black"/>
<path d="M108.493 24.9606C108.209 24.553 107.602 24.3632 107.114 24.0673C106.415 24.3464 105.785 24.4693 105.308 24.8043C103.463 26.094 102.243 27.8583 101.584 29.9744C101.431 30.4658 101.426 31.0297 101.482 31.5545C101.562 32.3083 102.09 32.526 102.737 32.2133C103.31 31.9342 103.929 31.6103 104.326 31.1358C105.672 29.5389 106.949 27.8807 108.198 26.2057C108.442 25.8763 108.663 25.2063 108.493 24.9606Z" fill="black"/>
<path d="M67.8762 18.4448C68.109 18.0875 68.0238 17.5292 68.0863 17.0657C67.6776 17.3449 67.1099 17.5347 66.8885 17.9144C65.7021 19.9412 64.6065 22.0126 63.4768 24.0672C63.6074 24.1566 63.7323 24.2403 63.8628 24.3297C65.2082 22.3755 66.582 20.4325 67.8762 18.4448Z" fill="black"/>
<path d="M123.84 13.36L122.64 12.48L124.56 10.06L121.56 9.2L122.04 7.78L124.92 8.86L124.8 5.78H126.3L126.18 8.86L129.1 7.78L129.54 9.2L126.58 10.04L128.48 12.48L127.28 13.36L125.56 10.76L123.84 13.36Z" fill="black" fill-opacity="0.4"/>
</svg>
