<svg width="151" height="69" viewBox="0 0 151 69" fill="none" xmlns="http://www.w3.org/2000/svg">
<path d="M89.2546 31.2247C89.7145 31.2247 90.1118 31.6213 90.1118 32.0803V39.1807C90.1118 39.6397 89.7145 40.0363 89.2546 40.0363C88.7948 40.0363 88.3975 39.6397 88.3975 39.1807V32.0803C88.3975 31.6213 88.7948 31.2247 89.2546 31.2247Z" fill="black"/>
<path d="M100.517 31.4967C100.977 31.5873 101.312 31.8593 101.221 32.3183C101.13 32.7773 100.705 33.1117 100.216 33.021C98.4736 32.715 96.9522 32.596 95.7317 32.834C94.6361 33.0493 93.813 33.5027 93.3192 34.4207C93.0751 34.8797 92.8934 35.2423 92.8593 35.6107C92.8253 35.945 92.7685 36.404 93.0126 36.7667L93.1659 36.6477C93.3192 36.863 93.3816 37.1973 93.6257 37.4127C93.8982 37.628 94.2047 37.8093 94.5396 37.9623C96.4016 38.8463 99.2399 39.1183 101.374 38.2967C101.834 38.1097 102.317 38.359 102.47 38.784C102.657 39.243 102.504 39.5773 102.044 39.7247C99.4784 40.6993 96.1859 40.4273 93.9549 39.362C93.4951 39.1467 93.0694 38.903 92.7061 38.597C92.3087 38.291 92.0022 37.9567 91.7297 37.594C91.2131 36.863 91.0258 36.1603 91.0882 35.4293C91.1507 34.7607 91.3948 34.1203 91.7581 33.4517C92.6436 32.1427 93.8017 31.6553 95.3855 31.3493C96.9125 31.134 98.5871 31.1963 100.512 31.5023L100.517 31.4967Z" fill="black"/>
<path d="M97.2531 35.095H91.9738V36.3417H97.2531C97.6164 36.3417 97.8945 36.0697 97.8945 35.7014C97.9286 35.3954 97.6221 35.0894 97.2531 35.0894V35.095Z" fill="black"/>
<path d="M105.308 33.8143V39.175C105.308 39.634 104.911 40.0307 104.451 40.0307C103.991 40.0307 103.656 39.634 103.656 39.175V34.364C103.412 32.324 105.456 30.0063 107.806 32.171C107.84 32.205 107.869 32.2333 107.897 32.2617C107.92 32.2843 107.931 32.3013 107.931 32.324C109.18 33.9673 110.099 35.7693 111.258 37.4977V37.5317C111.32 37.6507 111.377 37.747 111.445 37.866C112.115 38.869 113.091 38.869 113.125 37.594C113.159 36.5003 113.159 33.48 113.063 32.1993C113.029 31.7403 113.46 31.3437 113.92 31.3437C114.38 31.3437 114.652 31.7403 114.652 32.1993V36.676C114.743 38.0757 114.317 39.2373 113.982 39.5717C113.523 40.0873 112.915 40.2403 112.274 40.2403C112.154 40.2403 112.03 40.2403 111.939 40.2063C110.627 39.9343 108.062 35.3613 107.607 34.7267C107.42 34.483 107.272 34.2393 107.091 33.9957C106.972 33.8087 106.818 33.599 106.631 33.3837C105.899 32.715 105.32 33.2647 105.32 33.8087L105.308 33.8143ZM111.258 37.5033C111.32 37.6223 111.348 37.747 111.377 37.9L111.258 37.5033Z" fill="black"/>
<path d="M75.744 31.8027C75.5567 31.3777 75.0401 31.1623 74.6144 31.3437C74.1886 31.5307 73.9729 32.0463 74.1546 32.4713C75.0117 34.483 76.3514 36.5853 77.782 38.1947C78.7243 39.2883 79.6099 40.0817 80.5295 40.2063C81.4718 40.3253 82.2722 39.7473 83.4303 38.7443C84.4691 37.832 85.1106 36.829 85.7804 35.6673C86.4503 34.5397 86.9725 33.446 87.3699 32.562C87.5572 32.137 87.3699 31.6213 86.9442 31.4343C86.5184 31.2473 86.0018 31.4343 85.8145 31.8593C85.4512 32.715 84.9005 33.7463 84.2875 34.8117C83.7709 35.6673 81.8749 38.682 80.66 38.529C79.133 38.3137 76.5388 33.6273 75.7497 31.797L75.744 31.8027Z" fill="black"/>
<path d="M72.4459 31.2247C72.9057 31.2247 73.3031 31.6213 73.3031 32.0803V39.1807C73.3031 39.6397 72.9057 40.0363 72.4459 40.0363C71.9861 40.0363 71.5887 39.6397 71.5887 39.1807V32.0803C71.5887 31.6213 71.9861 31.2247 72.4459 31.2247Z" fill="black"/>
<path d="M36.1038 33.2703C35.644 33.3893 35.1615 33.1797 35.0366 32.7207C34.9174 32.2617 35.1558 31.78 35.6156 31.6553C39.5836 30.8903 41.9621 31.4683 43.9149 32.3863C44.7097 32.902 45.5044 33.48 45.8677 34.1543C46.2651 34.8853 46.4467 35.5257 46.3559 36.285C46.2367 37.441 45.5612 38.5403 44.3123 39.2713C43.6992 39.634 43.0294 39.8833 42.3311 40.0363C41.6613 40.1893 41.0198 40.2517 40.3783 40.28C39.7085 40.314 39.1578 40.3423 38.6072 40.28C38.0282 40.2177 37.4492 40.0363 36.8077 39.7303C36.5636 39.6113 36.2571 39.3677 36.1946 39.1183L36.1606 39.1807V34.3073C36.4671 33.4517 37.6251 33.7293 37.6535 34.3073L37.7727 38.2683C37.5854 39.09 39.8163 38.784 40.2705 38.7557C40.8495 38.7217 41.4285 38.665 41.9792 38.5403C42.4957 38.4213 42.9839 38.2683 43.4437 37.9907C44.2101 37.5657 44.5734 36.744 44.6359 36.132C44.6699 35.7353 44.5734 35.2763 44.3293 34.8853C44.0852 34.4263 43.6878 34.0013 43.1372 33.667C41.6726 32.8453 39.5382 32.358 36.0868 33.2703L36.0981 33.2817L36.1038 33.2703Z" fill="black"/>
<path d="M59.0205 31.8027C58.8332 31.3777 58.3166 31.1623 57.8909 31.3437C57.4651 31.5307 57.2494 32.0463 57.4311 32.4713C58.2882 34.483 59.6279 36.5853 61.0585 38.1947C62.0008 39.2883 62.8864 40.0817 63.806 40.2063C64.7483 40.3253 65.5487 39.7473 66.7068 38.7443C67.7456 37.832 68.3871 36.829 69.0569 35.6673C69.7268 34.5397 70.249 33.446 70.6464 32.562C70.8337 32.137 70.6464 31.6213 70.2206 31.4343C69.7949 31.2473 69.2783 31.4343 69.091 31.8593C68.7277 32.715 68.177 33.7463 67.5639 34.8117C67.0474 35.6673 65.1514 38.682 63.9365 38.529C62.4095 38.3137 59.8153 33.6273 59.0262 31.797L59.0205 31.8027Z" fill="black"/>
<path d="M57.8284 39.6907C58.0157 40.1157 58.5323 40.331 58.9581 40.1497C59.3838 39.9627 59.5995 39.447 59.4179 39.022C58.5607 37.0104 57.221 34.908 55.7905 33.2987C54.8481 32.205 53.9626 31.4117 53.043 31.287C52.1006 31.168 51.3002 31.746 50.1422 32.749C49.1033 33.6613 48.4619 34.6644 47.792 35.826C47.1222 36.9537 46.5999 38.0473 46.2025 38.9313C46.0152 39.3563 46.2025 39.872 46.6283 40.059C47.054 40.246 47.5706 40.059 47.758 39.634C48.1213 38.7783 48.6719 37.747 49.285 36.6817C49.8016 35.826 51.6976 32.8114 52.9124 32.9644C54.4394 33.1797 57.0337 37.8377 57.8227 39.6963L57.8284 39.6907Z" fill="black"/>
<path d="M116.963 33.2703C116.503 33.3893 116.02 33.1797 115.895 32.7207C115.776 32.2617 116.015 31.78 116.474 31.6553C120.442 30.8903 122.821 31.4683 124.774 32.3863C125.568 32.902 126.363 33.48 126.726 34.1543C127.124 34.8853 127.305 35.5257 127.215 36.285C127.095 37.441 126.42 38.5403 125.171 39.2713C124.558 39.634 123.888 39.8833 123.19 40.0363C122.52 40.1893 121.879 40.2517 121.237 40.28C120.567 40.314 120.017 40.3423 119.466 40.28C118.887 40.2177 118.308 40.0363 117.666 39.7303C117.422 39.6113 117.116 39.3677 117.053 39.1183L117.019 39.1807V34.3073C117.326 33.4517 118.484 33.7293 118.512 34.3073L118.631 38.2683C118.444 39.09 120.675 38.784 121.129 38.7557C121.708 38.7217 122.287 38.665 122.838 38.5403C123.355 38.4213 123.848 38.2683 124.303 37.9907C125.069 37.5657 125.432 36.744 125.495 36.132C125.529 35.7353 125.432 35.2763 125.188 34.8853C124.944 34.4263 124.547 34.0013 123.996 33.667C122.56 32.8453 120.397 32.358 116.946 33.2703V33.2817L116.963 33.2703Z" fill="black"/>
<path d="M128.617 39.6907C128.43 40.1157 127.913 40.331 127.487 40.1497C127.061 39.9627 126.846 39.447 127.027 39.022C127.885 37.0104 129.224 34.908 130.655 33.2987C131.597 32.205 132.483 31.4117 133.402 31.287C134.345 31.168 135.145 31.746 136.303 32.749C137.342 33.6613 137.983 34.6644 138.653 35.826C139.323 36.9537 139.845 38.0473 140.243 38.9313C140.43 39.3563 140.243 39.872 139.817 40.059C139.391 40.246 138.875 40.059 138.687 39.634C138.324 38.7783 137.773 37.747 137.16 36.6817C136.644 35.826 134.748 32.8114 133.533 32.9644C132.006 33.1797 129.412 37.8377 128.623 39.6963L128.617 39.6907Z" fill="black"/>
<path d="M27.1913 33.0833C27.1572 33.446 27.038 35.1516 28.4118 36.8006C30.9777 39.8776 27.4978 43.1983 23.5582 42.3766C23.5582 42.3766 21.9687 42.6826 20.2317 42.6826C18.4946 42.6826 16.9051 42.3766 16.9051 42.3766C12.9712 43.17 9.40055 39.8833 11.9607 36.8006C13.3345 35.1233 13.2437 33.4176 13.1812 33.0833H27.1856H27.1913Z" fill="#5C5C5C"/>
<path d="M27.1913 33.0833H27.1289C27.1232 33.157 27.1118 33.2873 27.1118 33.4687C27.1118 34.16 27.2651 35.52 28.3664 36.8347C28.9681 37.56 29.2293 38.291 29.2293 38.9767C29.2293 39.9173 28.7354 40.7787 27.9293 41.4077C27.1232 42.0367 26.0106 42.4277 24.7844 42.4277C24.3927 42.4277 23.9897 42.388 23.5753 42.303H23.5469C23.5469 42.303 23.4447 42.32 23.2744 42.3483C22.7465 42.4333 21.5317 42.6033 20.2317 42.6033C19.3632 42.6033 18.54 42.5297 17.9213 42.4503C17.6147 42.4107 17.365 42.3767 17.189 42.3483C17.013 42.32 16.9165 42.303 16.9165 42.303H16.8881C16.4908 42.3823 16.0934 42.422 15.7074 42.422C14.4585 42.422 13.3232 42.0253 12.4944 41.3963C11.6656 40.7617 11.1547 39.8947 11.1547 38.9483C11.1547 38.274 11.4101 37.5543 12.0062 36.8403C13.0847 35.5257 13.2721 34.1883 13.2721 33.497C13.2721 33.2987 13.255 33.1513 13.2437 33.072L13.1813 33.0833V33.1457H27.1856V33.0833V33.021H13.1018L13.1188 33.1003C13.1358 33.174 13.1472 33.31 13.1472 33.5027C13.1472 34.1713 12.9655 35.4747 11.9097 36.7667C11.2966 37.4977 11.0298 38.2513 11.0298 38.954C11.0298 39.9513 11.5634 40.858 12.4206 41.5097C13.2778 42.1613 14.4358 42.5637 15.7131 42.5637C16.1047 42.5637 16.5135 42.524 16.9222 42.4447L16.9052 42.3823L16.8938 42.4447C16.8938 42.4447 18.4833 42.7507 20.2317 42.7507C21.9801 42.7507 23.5639 42.4447 23.5696 42.4447L23.5582 42.3823L23.5412 42.4447C23.9613 42.5353 24.37 42.575 24.7731 42.575C26.0276 42.575 27.1686 42.1727 27.9974 41.5267C28.8262 40.8807 29.3485 39.9797 29.3485 38.9937C29.3485 38.274 29.076 37.509 28.4515 36.7723C27.373 35.486 27.2311 34.16 27.2311 33.4857C27.2311 33.31 27.2424 33.1797 27.2481 33.1003V33.0267H27.1856V33.089L27.1913 33.0833Z" fill="black"/>
<path d="M23.2574 41.7647C23.2574 41.7647 23.4731 41.1527 23.9273 40.824C24.143 40.637 24.5403 40.705 24.353 41.0677C24.2906 41.1583 23.7399 41.5267 23.3766 41.9517C23.3142 42.014 23.2574 41.7647 23.2574 41.7647ZM17.8873 41.368C17.8873 41.368 17.7964 40.7277 17.4274 40.3027C17.2401 40.0873 16.8484 40.0873 16.9676 40.4557C17.0017 40.5463 17.4558 41.0337 17.734 41.521C17.768 41.5833 17.8873 41.368 17.8873 41.368ZM17.1833 41.7647C17.1833 41.7647 16.9676 41.1527 16.5135 40.824C16.2978 40.637 15.9004 40.705 16.0877 41.0677C16.1502 41.1583 16.7008 41.5267 17.0641 41.9517C17.1266 42.014 17.1833 41.7647 17.1833 41.7647ZM22.5535 41.368C22.5535 41.368 22.6443 40.7277 23.0133 40.3027C23.2006 40.0873 23.5923 40.0873 23.4731 40.4557C23.4391 40.5463 22.9849 41.0337 22.7068 41.521C22.6727 41.5833 22.5535 41.368 22.5535 41.368Z" fill="#5C5C5C"/>
<path d="M23.2574 41.7647L23.3199 41.7873C23.3199 41.7873 23.3312 41.7534 23.3596 41.691C23.4391 41.5097 23.6434 41.113 23.9727 40.875C24.0351 40.824 24.126 40.79 24.1941 40.79C24.2395 40.79 24.2792 40.8014 24.3019 40.8184C24.3246 40.8354 24.336 40.858 24.336 40.8977C24.336 40.9317 24.3246 40.977 24.2963 41.0337L24.353 41.062L24.3019 41.028C24.3019 41.028 24.2509 41.079 24.1884 41.13C23.9954 41.2887 23.6151 41.5777 23.3312 41.9007L23.3823 41.946L23.3369 41.9007L23.3596 41.9233V41.8893L23.3369 41.9007L23.3596 41.9233L23.3823 41.9007H23.3596V41.9233L23.3823 41.9007C23.3823 41.9007 23.3483 41.8384 23.3369 41.81C23.3256 41.776 23.3199 41.7534 23.3199 41.7534L23.2574 41.7704L23.195 41.7873C23.195 41.7873 23.212 41.8383 23.229 41.8893L23.2688 41.9687L23.3028 42.0027L23.3653 42.0253L23.4334 41.997C23.6094 41.7817 23.8365 41.589 24.0238 41.436C24.1203 41.3567 24.2054 41.2887 24.2736 41.2377C24.3417 41.181 24.3871 41.147 24.4098 41.1074C24.4439 41.028 24.4609 40.96 24.4609 40.9034C24.4609 40.824 24.4268 40.756 24.3757 40.7164C24.3246 40.6767 24.2565 40.6597 24.1884 40.6597C24.0806 40.6597 23.9727 40.6994 23.8819 40.7787L23.9273 40.8297L23.8875 40.7787C23.4107 41.13 23.195 41.7477 23.195 41.7534V41.7704L23.1893 41.7873L23.2574 41.7704H23.2745L23.2574 41.7647ZM17.8873 41.368L17.9497 41.3567C17.9497 41.3567 17.8589 40.705 17.4786 40.2574C17.3877 40.1497 17.2515 40.093 17.1323 40.093C17.0698 40.093 17.0074 40.11 16.962 40.1497C16.9109 40.195 16.8825 40.2573 16.8882 40.331C16.8882 40.3763 16.8939 40.4217 16.9109 40.4784C16.9279 40.5237 16.962 40.5634 17.0131 40.637C17.172 40.8354 17.4729 41.198 17.6772 41.5607L17.734 41.5267L17.6772 41.555C17.6772 41.555 17.7227 41.606 17.751 41.6003C17.8021 41.6003 17.8192 41.572 17.8362 41.555C17.8873 41.4983 17.944 41.4077 17.944 41.402L17.9554 41.385V41.3623L17.8873 41.3737L17.8305 41.3397C17.8305 41.3397 17.8078 41.3793 17.7794 41.419L17.7397 41.47L17.7283 41.4813L17.7454 41.504V41.47H17.7283L17.7454 41.504V41.47V41.5153L17.7908 41.4927L17.7454 41.47V41.5153L17.7908 41.4927C17.6489 41.2433 17.4615 40.994 17.3139 40.8014C17.2345 40.6994 17.1663 40.62 17.1209 40.552C17.0982 40.518 17.0755 40.4897 17.0585 40.4727L17.0415 40.45V40.4443C17.0244 40.399 17.0187 40.365 17.0187 40.3423C17.0187 40.297 17.0358 40.2743 17.0528 40.263C17.0698 40.246 17.0982 40.2403 17.138 40.2403C17.2174 40.2403 17.3253 40.2857 17.3877 40.3593C17.5637 40.5633 17.6772 40.8183 17.7454 41.028C17.7794 41.13 17.8021 41.2207 17.8192 41.2887C17.8362 41.351 17.8362 41.3907 17.8362 41.3907L17.8986 41.3793L17.8873 41.368ZM17.1834 41.7647L17.2458 41.742C17.2458 41.742 17.0301 41.1187 16.5533 40.7673L16.5135 40.8184L16.5589 40.7673C16.4681 40.688 16.3546 40.6483 16.2524 40.6483C16.1843 40.6483 16.1162 40.6653 16.0651 40.705C16.014 40.7447 15.9742 40.8127 15.9799 40.892C15.9799 40.9543 15.9969 41.0167 16.031 41.0847C16.0594 41.13 16.1048 41.164 16.1672 41.2207C16.3659 41.385 16.7406 41.6683 17.0074 41.98L17.0755 42.014L17.138 41.9914C17.1834 41.9517 17.2004 41.9007 17.2174 41.8554C17.2345 41.81 17.2401 41.776 17.2401 41.7704V41.7363L17.1777 41.759L17.1152 41.742C17.1152 41.742 17.1039 41.7874 17.0869 41.8327L17.0642 41.8837H17.0585L17.0812 41.9177V41.8837H17.0585L17.0812 41.9177L17.1039 41.895L17.0812 41.8837V41.9177L17.1039 41.895L17.0585 41.9403L17.1096 41.895C16.9222 41.674 16.6895 41.4757 16.4965 41.3227C16.4 41.2433 16.3148 41.1754 16.2467 41.1244C16.1843 41.0734 16.1389 41.028 16.1332 41.0224L16.0821 41.0563L16.1389 41.028C16.1105 40.9657 16.0991 40.9203 16.0991 40.892C16.0991 40.8467 16.1162 40.8297 16.1332 40.8127C16.1502 40.7957 16.1956 40.7843 16.241 40.7843C16.3148 40.7843 16.4 40.8127 16.4624 40.8693C16.6781 41.028 16.8428 41.2547 16.9506 41.4474C17.0017 41.5437 17.0415 41.6287 17.0698 41.691C17.0925 41.7534 17.1096 41.7873 17.1096 41.7873L17.172 41.7647H17.189H17.1834ZM22.5535 41.368L22.616 41.3793C22.616 41.3793 22.616 41.3397 22.633 41.2773C22.6784 41.0847 22.7919 40.6483 23.0531 40.348C23.1155 40.2687 23.2234 40.2233 23.3028 40.229C23.3426 40.229 23.371 40.2404 23.388 40.2517C23.405 40.2687 23.4164 40.2857 23.4221 40.331C23.4221 40.3593 23.4164 40.3934 23.3993 40.433C23.3993 40.433 23.3539 40.5067 23.3028 40.569C23.1439 40.773 22.8487 41.1244 22.6443 41.487L22.6898 41.5097V41.4643L22.6443 41.487L22.6898 41.5097V41.4643V41.4983L22.7068 41.4757H22.6898V41.4983L22.7068 41.4757C22.7068 41.4757 22.6671 41.436 22.6443 41.402C22.6216 41.368 22.6046 41.3397 22.6046 41.3397L22.5478 41.3737L22.4911 41.4077C22.4911 41.4077 22.5138 41.453 22.5478 41.4983L22.5989 41.5607C22.5989 41.5607 22.633 41.606 22.6841 41.606C22.7181 41.606 22.7465 41.5833 22.7579 41.5607L22.7011 41.5324L22.7579 41.5663C22.8941 41.3284 23.0758 41.0903 23.229 40.892C23.3028 40.7957 23.3766 40.7107 23.4221 40.6427C23.4731 40.569 23.5072 40.535 23.5242 40.484C23.5413 40.433 23.5469 40.382 23.5469 40.3367C23.5469 40.263 23.5186 40.2007 23.4731 40.1554C23.4221 40.11 23.3653 40.0987 23.3028 40.0987C23.1836 40.0987 23.0474 40.161 22.9566 40.263C22.5762 40.7107 22.4854 41.3567 22.4854 41.3623V41.402L22.5478 41.368H22.5535Z" fill="black"/>
<path d="M22.0653 41.2773C22.0653 41.2773 23.2574 37.5317 21.4522 35.3047C21.299 35.2707 21.1173 35.1857 20.964 35.061C20.964 35.061 20.7767 34.7267 20.2942 34.7267C19.8344 34.7267 19.4711 35.061 19.4711 35.061C19.2554 35.18 19.0737 35.2763 18.892 35.3047C17.1209 37.526 18.3414 41.3057 18.3414 41.3057C20.2034 40.603 22.0369 41.2717 22.0653 41.2717V41.2773Z" fill="#DBDBDB"/>
<path d="M22.0653 41.2773L22.1278 41.3C22.1278 41.3 22.5138 40.076 22.5138 38.6083C22.5138 37.4976 22.2924 36.2453 21.5033 35.2707L21.4863 35.2537H21.4636C21.3273 35.2197 21.1457 35.1346 21.0038 35.0213L20.964 35.0723L21.0208 35.0383C21.0208 35.0383 20.8164 34.67 20.2942 34.67C19.806 34.67 19.4313 35.0156 19.4257 35.0213L19.4711 35.0723L19.437 35.0156C19.2213 35.1346 19.0453 35.2253 18.8807 35.2537H18.858L18.841 35.2763C18.086 36.2283 17.8702 37.4523 17.8702 38.546C17.8702 40.059 18.2846 41.334 18.2846 41.334L18.3073 41.3963L18.3698 41.3736C18.9999 41.1356 19.6243 41.0563 20.1807 41.0563C20.737 41.0563 21.1741 41.13 21.5033 41.198C21.6679 41.232 21.8042 41.2716 21.895 41.3C21.9404 41.317 21.9745 41.3226 22.0029 41.334L22.0369 41.3453H22.071L22.1164 41.351L22.1334 41.3057L22.071 41.283V41.2206V41.2773L22.0823 41.2206H22.071V41.2773L22.0823 41.2206C22.0823 41.2206 22.0085 41.198 21.912 41.1696C21.6112 41.0846 20.9754 40.9316 20.1863 40.9316C19.6243 40.9316 18.9772 41.011 18.3301 41.2546L18.3528 41.317L18.4152 41.2943C18.4152 41.2943 18.3925 41.215 18.3528 41.0733C18.2392 40.6483 18.0065 39.6566 18.0065 38.5403C18.0065 37.424 18.2222 36.268 18.9488 35.35L18.8977 35.3103L18.9091 35.3727C19.1078 35.3387 19.2951 35.2423 19.5108 35.1233H19.5278L19.5449 35.1007C19.6187 35.0383 19.9366 34.7947 20.3112 34.7947C20.5383 34.7947 20.6916 34.874 20.7881 34.9477C20.8391 34.9873 20.8675 35.027 20.8959 35.0497L20.9186 35.0836L20.9243 35.0893V35.1007L20.9413 35.1063C21.1003 35.2366 21.2876 35.3273 21.4579 35.3613L21.4749 35.299L21.4238 35.3443C22.1845 36.285 22.4059 37.509 22.4059 38.6026C22.4059 39.328 22.3094 39.991 22.2129 40.4727C22.1675 40.7163 22.1164 40.909 22.0823 41.045C22.0483 41.181 22.0199 41.2546 22.0199 41.2546L22.0823 41.2773H22.0653Z" fill="black"/>
<path d="M21.5204 38.6593C21.5204 38.4723 21.6737 38.3533 21.8269 38.3533C21.9802 38.3533 22.1335 38.5063 22.1335 38.6593C22.1335 38.8463 21.9802 38.9653 21.8269 38.9653C21.6737 38.9653 21.5204 38.8463 21.5204 38.6593Z" fill="white"/>
<path d="M21.5204 38.6593H21.5828C21.5828 38.5857 21.6112 38.529 21.6566 38.4837C21.702 38.4383 21.7645 38.4157 21.8213 38.4157C21.8723 38.4157 21.9405 38.444 21.9859 38.4893C22.0313 38.5347 22.0654 38.597 22.0597 38.6537C22.0597 38.7273 22.0313 38.784 21.9859 38.8293C21.9405 38.8747 21.878 38.8973 21.8213 38.8973C21.7645 38.8973 21.702 38.8747 21.6566 38.8293C21.6112 38.784 21.5828 38.7273 21.5828 38.6537H21.4523C21.4523 38.8747 21.6396 39.022 21.8213 39.022C22.0029 39.022 22.1902 38.8747 22.1902 38.6537C22.1902 38.5517 22.1448 38.4667 22.0767 38.3987C22.0086 38.3307 21.9178 38.2853 21.8213 38.2853C21.6339 38.2853 21.4523 38.4327 21.4523 38.6537H21.5261L21.5204 38.6593Z" fill="black"/>
<path d="M14.01 35.554H16.2977C16.661 35.554 16.9392 35.86 16.9392 36.1944V37.7187C16.9392 38.0813 16.6327 38.359 16.2977 38.359H14.01C13.6467 38.359 13.3686 38.053 13.3686 37.7187V36.1944C13.3345 35.86 13.641 35.554 14.01 35.554Z" fill="#707070"/>
<path d="M14.0101 35.554V35.6163H16.2978C16.627 35.6163 16.8711 35.8883 16.8711 36.1887V37.713C16.8711 38.0417 16.5986 38.2853 16.2978 38.2853H14.0101C13.6808 38.2853 13.4367 38.0133 13.4367 37.713V36.1887V36.1433C13.4367 36.0073 13.4992 35.8713 13.607 35.775C13.7149 35.673 13.8568 35.6163 14.0157 35.6163V35.486C13.6297 35.486 13.3062 35.7863 13.3062 36.1433V36.1943H13.3743L13.3118 36.1887V37.713C13.3118 38.0813 13.6127 38.4213 14.0214 38.4213H16.3091C16.6781 38.4213 17.0187 38.121 17.0187 37.713V36.1887C17.0187 35.8203 16.7178 35.4803 16.3091 35.4803H14.0214V35.5427H14.0157L14.0101 35.554Z" fill="black"/>
<path d="M14.2598 35.9167H16.0593C16.3318 35.9167 16.5475 36.132 16.5475 36.404V37.4977C16.5475 37.7697 16.3318 37.985 16.0593 37.985H14.2598C13.9873 37.985 13.7716 37.7697 13.7716 37.4977V36.404C13.7716 36.132 14.0157 35.9167 14.2598 35.9167Z" fill="black"/>
<path d="M14.2598 35.9167V35.979H16.0593C16.2977 35.979 16.4794 36.166 16.4794 36.3984V37.492C16.4794 37.7357 16.2921 37.9113 16.0593 37.9113H14.2598C14.0157 37.9113 13.8397 37.7244 13.8397 37.492V36.3984C13.8397 36.2794 13.8908 36.1774 13.9703 36.098C14.0498 36.0187 14.1576 35.9734 14.2598 35.9734V35.843C13.9816 35.843 13.7092 36.081 13.7035 36.3984V37.492C13.7035 37.645 13.7659 37.7867 13.8624 37.883C13.9589 37.9794 14.1009 38.0417 14.2541 38.0417H16.0536C16.2069 38.0417 16.3488 37.9794 16.4453 37.883C16.5475 37.781 16.6043 37.645 16.6043 37.492V36.3984C16.6043 36.2454 16.5418 36.1037 16.4453 36.0074C16.3488 35.911 16.2069 35.8487 16.0536 35.8487H14.2541V35.911L14.2598 35.9167Z" fill="black"/>
<path d="M16.5759 37.254C15.7528 37.1633 15.4803 36.217 15.4178 35.945H16.0877C16.3602 35.945 16.5759 36.1603 16.5759 36.4323V37.254Z" fill="#A5A5A5"/>
<path d="M16.5759 37.254V37.1917C16.1956 37.1464 15.9401 36.9084 15.7641 36.6364C15.5882 36.3644 15.5087 36.064 15.4803 35.9337L15.4179 35.9507V36.013H16.0877C16.3261 36.013 16.5078 36.2 16.5078 36.4324V37.254H16.5702H16.6327V36.4324C16.6327 36.2794 16.5702 36.1377 16.4737 36.0414C16.3772 35.945 16.2353 35.8827 16.082 35.8827H15.327L15.3441 35.962C15.3781 36.1037 15.4633 36.4154 15.6449 36.7044C15.8266 36.9934 16.1218 37.271 16.5589 37.322H16.6327V37.254H16.5702H16.5759Z" fill="black"/>
<path d="M14.9581 35.9167C14.8957 36.1887 14.6516 37.1974 13.766 37.2257V36.404C13.766 36.132 13.9817 35.9167 14.2542 35.9167H14.9581Z" fill="#A5A5A5"/>
<path d="M14.958 35.9166L14.8956 35.8996C14.8672 36.0356 14.7877 36.3473 14.6174 36.625C14.4415 36.9026 14.186 37.1406 13.7659 37.1576V37.22H13.8341V36.3983C13.8341 36.1546 14.0214 35.979 14.2541 35.979H14.958V35.9166V35.8543H14.2541C14.1009 35.8543 13.9589 35.9166 13.8624 36.013C13.7603 36.115 13.7035 36.251 13.7035 36.404V37.2936H13.7716C14.2428 37.2766 14.5436 36.9933 14.7253 36.6986C14.9126 36.3983 14.9864 36.0696 15.0205 35.9336L15.0375 35.8543H14.958V35.9166Z" fill="black"/>
<path d="M24.1429 35.554H26.4306C26.7939 35.554 27.0721 35.86 27.0721 36.1944V37.7187C27.0721 38.0813 26.7656 38.359 26.4306 38.359H24.1429C23.7796 38.359 23.5015 38.053 23.5015 37.7187V36.1944C23.5015 35.86 23.7739 35.554 24.1429 35.554Z" fill="#707070"/>
<path d="M24.1429 35.554V35.6164H26.4306C26.7599 35.6164 27.004 35.8884 27.004 36.1887V37.713C27.004 38.0417 26.7315 38.2854 26.4306 38.2854H24.1429C23.8137 38.2854 23.5696 38.0134 23.5696 37.713V36.1887C23.5696 35.8884 23.8194 35.6164 24.1429 35.6164V35.486C23.7399 35.486 23.4333 35.8204 23.4333 36.1944V37.7187C23.4333 38.087 23.7342 38.427 24.1429 38.427H26.4306C26.7996 38.427 27.1402 38.1267 27.1402 37.7187V36.1944C27.1402 35.826 26.8394 35.486 26.4306 35.486H24.1429V35.5484V35.554Z" fill="black"/>
<path d="M24.4154 35.9167H26.215C26.4874 35.9167 26.7031 36.1377 26.7031 36.404V37.4977C26.7031 37.7697 26.4818 37.985 26.215 37.985H24.4154C24.143 37.985 23.9272 37.764 23.9272 37.4977V36.404C23.9272 36.132 24.1486 35.9167 24.4154 35.9167Z" fill="black"/>
<path d="M24.4155 35.9167V35.979H26.215C26.4534 35.979 26.6351 36.166 26.6351 36.3984V37.492C26.6351 37.7357 26.4478 37.9114 26.215 37.9114H24.4155C24.1771 37.9114 23.9954 37.7244 23.9954 37.492V36.3984C23.9954 36.1547 24.1828 35.979 24.4155 35.979V35.8487C24.2622 35.8487 24.1203 35.911 24.0238 36.0074C23.9216 36.1094 23.8649 36.2454 23.8649 36.3984V37.492C23.8649 37.645 23.9273 37.7867 24.0238 37.883C24.1203 37.9794 24.2622 38.0417 24.4155 38.0417H26.215C26.3683 38.0417 26.5102 37.9794 26.6067 37.883C26.7089 37.781 26.7657 37.645 26.7657 37.492V36.3984C26.7657 36.2454 26.7032 36.1037 26.6067 36.0074C26.5102 35.911 26.3683 35.8487 26.215 35.8487H24.4155V35.911V35.9167Z" fill="black"/>
<path d="M26.7088 37.254C25.8857 37.1633 25.6132 36.217 25.5508 35.945H26.2206C26.4931 35.945 26.7088 36.1603 26.7088 36.4323V37.254Z" fill="#A5A5A5"/>
<path d="M26.7088 37.254V37.1917C26.3285 37.1464 26.073 36.9084 25.8971 36.6364C25.7211 36.3644 25.6416 36.064 25.6132 35.9337L25.5508 35.9507V36.013H26.2206C26.4591 36.013 26.6407 36.2 26.6407 36.4324V37.254H26.7032H26.7656V36.4324C26.7656 36.2794 26.7032 36.1377 26.6067 36.0414C26.5101 35.945 26.3682 35.8827 26.215 35.8827H25.46L25.477 35.962C25.5111 36.1037 25.5962 36.4154 25.7779 36.7044C25.9595 36.9934 26.2547 37.271 26.6918 37.322H26.7656V37.254H26.7032H26.7088Z" fill="black"/>
<path d="M25.0853 35.9167C25.0228 36.1887 24.7788 37.1974 23.8932 37.2257V36.404C23.8932 36.132 24.1089 35.9167 24.3814 35.9167H25.0853Z" fill="#A5A5A5"/>
<path d="M25.0854 35.9166L25.0229 35.8996C24.9945 36.0356 24.9151 36.3473 24.7448 36.625C24.5688 36.9026 24.3133 37.1406 23.8933 37.1576V37.22H23.9614V36.3983C23.9614 36.1546 24.1487 35.979 24.3815 35.979H25.0854V35.9166V35.8543H24.3815C24.2282 35.8543 24.0863 35.9166 23.9898 36.013C23.8876 36.115 23.8308 36.251 23.8308 36.404V37.2936H23.8989C24.3701 37.2766 24.671 36.9933 24.8583 36.6986C25.0456 36.3983 25.1194 36.0696 25.1535 35.9336L25.1705 35.8543H25.091V35.9166H25.0854Z" fill="black"/>
<path d="M17.9157 41.062C17.9157 41.062 17.3026 41.1527 17.0585 41.521C16.8144 41.8837 17.0926 42.3427 17.365 42.405C18.5231 42.677 20.1409 42.677 20.1693 42.6487C20.2034 42.6827 21.9121 42.711 23.0077 42.405C23.2801 42.3143 23.5583 41.8893 23.3142 41.521C23.0985 41.1583 22.457 41.062 22.457 41.062C22.423 40.7277 17.9724 40.8467 17.91 41.062H17.9157Z" fill="#9A9A9A"/>
<path d="M17.9157 41.062L17.9043 40.9997C17.9043 40.9997 17.7454 41.0223 17.558 41.096C17.3707 41.1697 17.1436 41.283 17.0074 41.487C16.9336 41.5947 16.8995 41.7193 16.8995 41.8327C16.8995 41.9857 16.9563 42.133 17.0358 42.2463C17.1153 42.3597 17.2288 42.4447 17.348 42.473C18.2279 42.6827 19.3575 42.7337 19.8855 42.7337C19.9763 42.7337 20.0444 42.7337 20.0955 42.7337H20.1807L20.2204 42.7053L20.175 42.66L20.1296 42.7053L20.158 42.7223L20.2147 42.7337C20.2885 42.7393 20.4191 42.745 20.5951 42.745C21.1798 42.745 22.2527 42.694 23.0304 42.4787C23.2631 42.3993 23.4731 42.1387 23.4731 41.8383C23.4731 41.725 23.4391 41.606 23.3653 41.4983L23.3142 41.5323L23.371 41.4983C23.2518 41.2943 23.0247 41.1753 22.8317 41.1073C22.6387 41.0337 22.474 41.011 22.474 41.011L22.4627 41.0733H22.5251C22.5195 41.011 22.4797 40.9827 22.4457 40.9657C22.3832 40.9317 22.2924 40.909 22.1732 40.8863C21.8156 40.824 21.2081 40.8013 20.5553 40.8013C19.9366 40.8013 19.2837 40.824 18.7785 40.8637C18.5287 40.8807 18.3074 40.909 18.1541 40.9317C18.0746 40.9487 18.0122 40.9543 17.9611 40.977L17.8986 41.0053C17.8986 41.0053 17.8589 41.028 17.8475 41.0677L17.91 41.0847L17.9724 41.1017L17.9327 41.0903L17.9611 41.1187L17.9724 41.1017L17.9327 41.0903L17.9611 41.1187C17.9611 41.1187 17.9951 41.1017 18.0462 41.0903C18.3982 41.0053 19.5335 40.9373 20.5553 40.943C21.0492 40.943 21.5204 40.96 21.8666 40.9883C22.0426 41.0053 22.1845 41.028 22.2754 41.0507C22.3208 41.062 22.3548 41.0733 22.3775 41.0847L22.3946 41.096H22.4173L22.3946 41.0903V41.1017L22.4173 41.0903H22.3946V41.1413L22.4457 41.147C22.4457 41.147 22.4797 41.147 22.5478 41.164C22.7352 41.2037 23.1212 41.3283 23.2574 41.572C23.3199 41.6627 23.3369 41.7533 23.3426 41.844C23.3426 42.082 23.1553 42.3087 22.985 42.3597L23.0077 42.422L22.9906 42.3597C22.2356 42.5693 21.1684 42.6203 20.5951 42.6203C20.4702 42.6203 20.368 42.6203 20.2942 42.6147C20.2601 42.6147 20.2318 42.6147 20.2147 42.609H20.1977L20.1807 42.66L20.2147 42.626L20.192 42.609L20.175 42.66L20.209 42.626L20.1636 42.5807L20.1182 42.626L20.1523 42.66L20.1409 42.609L20.1182 42.626L20.1523 42.66L20.1409 42.609C20.1409 42.609 20.1069 42.609 20.0615 42.6147H19.8741C19.3575 42.6147 18.2279 42.5637 17.3707 42.3597C17.2912 42.3427 17.2061 42.2803 17.138 42.184C17.0698 42.0933 17.0244 41.9687 17.0244 41.8497C17.0244 41.759 17.0471 41.6627 17.1096 41.5777C17.2174 41.4133 17.4161 41.3 17.5978 41.2377C17.6886 41.2037 17.7681 41.181 17.8248 41.1697C17.8873 41.1527 17.9157 41.1527 17.9157 41.1527H17.9611L17.9724 41.1073L17.91 41.0903H17.927L17.9157 41.062Z" fill="black"/>
<path d="M17.8986 41.13C17.8986 41.13 17.9497 41.1187 18.0462 41.1074C18.3471 41.062 19.068 40.9827 20.0898 40.9827C20.771 40.9827 21.5828 41.0167 22.4854 41.13L22.5024 40.9997C21.5941 40.8864 20.7767 40.8524 20.0955 40.8524C18.7217 40.8524 17.8816 40.9997 17.8816 40.9997L17.9043 41.13H17.8986Z" fill="black"/>
<path d="M24.8753 28.7313V26.9067L27.1006 26.7877L27.1914 29.6833C25.9709 28.89 25.9425 29.2243 24.8696 28.7427L24.8753 28.7313Z" fill="#5C5C5C"/>
<path d="M24.8753 28.7313H25.0399V27.0597L26.9416 26.9577L27.0267 29.6833H27.1913L27.2822 29.536C26.6634 29.1337 26.3228 29.009 26.0163 28.9297C25.7097 28.8503 25.46 28.822 24.9377 28.584L24.8696 28.737L24.8015 28.89C25.3464 29.1393 25.653 29.1847 25.9311 29.2583C26.2093 29.332 26.4931 29.434 27.1005 29.8193L27.3673 29.995L27.2595 26.612L24.705 26.748V28.839L24.8015 28.8843L24.8696 28.7313H24.8753Z" fill="black"/>
<path d="M27.0267 33.072C27.021 33.1513 27.0097 33.2873 27.0097 33.4743C27.0097 34.1827 27.1686 35.5653 28.2869 36.9083C28.8773 37.6167 29.1271 38.325 29.1271 38.9823C29.1271 39.889 28.6502 40.722 27.8669 41.334C27.0835 41.946 25.9879 42.3313 24.7844 42.3313C24.3984 42.3313 24.001 42.2917 23.598 42.2067H23.5639H23.5299C23.5299 42.2067 23.4334 42.2237 23.2574 42.252C22.7351 42.337 21.526 42.507 20.2374 42.507C19.3802 42.507 18.5514 42.4333 17.944 42.354C17.6375 42.3143 17.3877 42.2803 17.2174 42.252C17.0414 42.2237 16.9449 42.2067 16.9449 42.2067H16.9108H16.8768C16.4851 42.286 16.0934 42.3257 15.7131 42.3257C14.4869 42.3257 13.3686 41.9347 12.5625 41.317C11.7564 40.6993 11.2625 39.855 11.2625 38.9427C11.2625 38.2967 11.5066 37.5997 12.0913 36.9027C13.1869 35.5653 13.3743 34.2053 13.3743 33.497C13.3743 33.293 13.3572 33.14 13.3402 33.055L13.011 33.1173C13.0223 33.1797 13.0337 33.3157 13.0337 33.5027C13.0337 34.1543 12.8577 35.435 11.8245 36.6987C11.2058 37.441 10.9163 38.2173 10.9163 38.9483C10.9163 39.9853 11.4726 40.9147 12.3468 41.5833C13.221 42.252 14.4074 42.66 15.7017 42.66C16.1048 42.66 16.5135 42.6203 16.9279 42.5353L16.8938 42.371L16.8598 42.5353C16.8598 42.5353 18.4606 42.8413 20.2147 42.8413C21.9688 42.8413 23.5696 42.5353 23.5696 42.5353L23.5355 42.371L23.5015 42.5353C23.9272 42.626 24.3473 42.6657 24.756 42.6657C26.0333 42.6657 27.1913 42.2577 28.0428 41.5947C28.8943 40.9317 29.4336 40.008 29.4336 38.9767C29.4336 38.2343 29.1498 37.4467 28.5197 36.6873C27.4638 35.4237 27.3219 34.126 27.3219 33.4687C27.3219 33.293 27.3333 33.1683 27.3389 33.0947L27.0097 33.0663L27.0267 33.072Z" fill="black"/>
<path d="M20.1749 26.323C19.9876 26.323 19.5959 26.442 19.5959 26.442C19.5959 26.442 14.2598 28.2667 11.2966 31.1907C10.4734 32.0123 10.8368 33.0777 11.8756 33.0777H28.4118C29.4506 33.0777 29.8139 32.0123 28.9908 31.1907C26.0616 28.2667 20.6915 26.442 20.6915 26.442C20.6915 26.442 20.3566 26.323 20.1749 26.323Z" fill="#9A9A9A"/>
<path d="M20.175 26.323V26.1587C20.0501 26.1587 19.9025 26.1927 19.7777 26.2267C19.6528 26.2607 19.5506 26.289 19.5449 26.289C19.5449 26.289 18.1995 26.748 16.4852 27.5754C14.7708 28.4027 12.6875 29.5984 11.1831 31.0774C10.8482 31.4117 10.6836 31.8027 10.6836 32.1597C10.6836 32.46 10.7971 32.732 11.0128 32.9304C11.2229 33.1287 11.5294 33.2477 11.8871 33.2477H28.4233C28.7809 33.2477 29.0818 33.1287 29.2975 32.9304C29.5132 32.732 29.6267 32.4544 29.6267 32.1597C29.6267 31.797 29.4621 31.4117 29.1272 31.0774C27.6399 29.5927 25.5509 28.4027 23.8365 27.5754C22.1165 26.748 20.7711 26.289 20.7654 26.289L20.7143 26.4477L20.7711 26.289C20.7711 26.289 20.6802 26.255 20.5667 26.2267C20.4532 26.1984 20.3169 26.1587 20.1921 26.1587V26.493C20.2488 26.493 20.3794 26.5157 20.4702 26.544C20.5213 26.561 20.5667 26.5724 20.6008 26.5837C20.6348 26.595 20.6519 26.6007 20.6519 26.6007C20.6519 26.6007 20.7313 26.629 20.8846 26.68C21.9405 27.0654 26.3626 28.788 28.8887 31.3097C29.1726 31.593 29.2918 31.899 29.2918 32.1597C29.2918 32.375 29.2123 32.5564 29.0704 32.6924C28.9285 32.8284 28.7128 32.9134 28.4289 32.919H11.8927C11.6032 32.919 11.3932 32.8284 11.2513 32.6924C11.1093 32.5564 11.0299 32.375 11.0299 32.1597C11.0299 31.899 11.1491 31.5987 11.4329 31.3097C12.8918 29.8704 14.9525 28.686 16.6441 27.87C17.4956 27.462 18.2506 27.1447 18.7956 26.9294C19.0681 26.8217 19.2838 26.7367 19.4371 26.6857C19.5846 26.629 19.6698 26.6064 19.6698 26.6064C19.6698 26.6064 19.6925 26.6007 19.7322 26.5894C19.789 26.5724 19.8798 26.544 19.9763 26.527C20.0672 26.5044 20.1637 26.493 20.2034 26.493V26.3287H20.1864L20.175 26.323Z" fill="black"/>
<path d="M21.1229 34.6077C21.5828 34.8513 21.9801 35.2197 22.2526 35.5823C22.65 36.132 23.4447 37.56 23.0473 39.3563C23.0473 39.3563 23.5355 39.8437 24.4211 40.6993C24.9377 41.215 24.1146 41.98 23.7513 42.4673H22.7749C22.7749 42.4673 23.1382 42.0083 22.8941 41.5833C22.7408 41.2773 22.1618 41.1867 22.1618 41.1867C22.1618 41.1867 22.4343 40.5747 21.9745 40.4217C21.9745 40.4217 22.8316 38.2287 21.8836 36.251C21.5771 35.6107 21.1173 35.0043 20.3566 34.908C20.1693 34.908 19.9933 34.908 19.806 34.9703C19.1361 35.214 18.8012 35.673 18.4946 36.3417C17.5807 38.257 18.4606 40.4217 18.4606 40.4217C18.0348 40.5747 18.3073 41.1867 18.3073 41.1867C18.3073 41.1867 17.7283 41.2773 17.575 41.5833C17.3309 42.0083 17.6942 42.4673 17.6942 42.4673H16.7178C16.4737 42.133 15.679 41.2207 15.9231 40.6087C16.2296 40.0307 17.3877 39.362 17.3877 39.362C17.0244 37.6847 17.6602 36.3757 18.0916 35.741C18.3981 35.2537 18.9488 34.8003 19.5562 34.5227C20.1693 34.279 20.5326 34.279 21.1116 34.6133H21.1173L21.1229 34.6077Z" fill="#707070"/>
<path d="M21.123 34.6077L21.089 34.6643C21.5374 34.9023 21.9291 35.265 22.1959 35.622C22.5138 36.0583 23.0815 37.067 23.0815 38.376C23.0815 38.682 23.0474 39.0107 22.9736 39.345V39.379L22.9906 39.4017C22.9906 39.4017 23.4788 39.889 24.3644 40.7447C24.4723 40.8523 24.512 40.9657 24.512 41.0847C24.512 41.2887 24.3814 41.5323 24.2111 41.7703C24.0408 42.0083 23.8308 42.235 23.6832 42.4277L23.7343 42.4673V42.405H22.7579V42.4673L22.809 42.507C22.809 42.507 23.0247 42.235 23.0304 41.9007C23.0304 41.7873 23.0077 41.6683 22.9396 41.5493L22.8828 41.5833L22.9396 41.555C22.8487 41.3737 22.65 41.2773 22.4797 41.2093C22.3094 41.1413 22.1618 41.1243 22.1618 41.1187L22.1505 41.181L22.2129 41.2037C22.2129 41.2037 22.2981 41.011 22.3038 40.807C22.3038 40.722 22.2867 40.6313 22.2413 40.5463C22.1959 40.467 22.1108 40.3933 21.9972 40.3537L21.9745 40.416L22.037 40.4387C22.037 40.4387 22.3946 39.5207 22.3946 38.3307C22.3946 37.6733 22.2867 36.931 21.9461 36.2113C21.6396 35.5653 21.1684 34.9307 20.368 34.8343H20.3623C20.1807 34.8343 19.9877 34.8343 19.7947 34.8967C19.1021 35.146 18.7502 35.6277 18.4436 36.302L18.5061 36.3303L18.4493 36.302C18.1314 36.9707 18.0292 37.662 18.0292 38.2797C18.0292 39.481 18.4152 40.4273 18.4209 40.433L18.4834 40.4103L18.4606 40.348C18.3528 40.3877 18.279 40.4557 18.2393 40.535C18.1938 40.6143 18.1825 40.6993 18.1825 40.7843C18.1825 40.9997 18.2733 41.198 18.2733 41.198L18.3358 41.1753L18.3244 41.113C18.3244 41.113 18.1768 41.1357 18.0065 41.2037C17.8362 41.2717 17.6432 41.368 17.5467 41.5493L17.6035 41.5777L17.5467 41.5437C17.4786 41.6627 17.4559 41.7817 17.4559 41.895C17.4559 42.2293 17.6716 42.4957 17.6773 42.5013L17.7283 42.4617V42.3993H16.752V42.4617L16.803 42.422C16.6952 42.2747 16.4852 42.0197 16.3035 41.7363C16.1218 41.4473 15.9743 41.1243 15.9743 40.858C15.9743 40.7787 15.9913 40.6993 16.0197 40.6313L15.9572 40.6087L16.014 40.637C16.1559 40.365 16.5192 40.0533 16.8428 39.8153C17.0074 39.6963 17.1607 39.5943 17.2742 39.5263C17.3877 39.4583 17.4615 39.413 17.4615 39.413L17.507 39.3903L17.4956 39.345C17.4218 38.9993 17.3877 38.6707 17.3877 38.3647C17.3877 37.186 17.8532 36.268 18.1882 35.775C18.4833 35.299 19.0283 34.8513 19.6244 34.5793C19.9025 34.4717 20.1239 34.415 20.334 34.415C20.578 34.415 20.8165 34.4943 21.1287 34.67L21.1627 34.6133L21.1968 34.5567C20.8789 34.3697 20.6121 34.2847 20.3396 34.2847C20.1069 34.2847 19.8685 34.347 19.5846 34.4603C18.9659 34.738 18.4039 35.2027 18.0917 35.707C17.7454 36.2227 17.2685 37.1577 17.2685 38.3703C17.2685 38.6877 17.3026 39.0277 17.3764 39.379L17.4388 39.362L17.4048 39.3053C17.4048 39.3053 17.1153 39.4753 16.7803 39.719C16.4511 39.9627 16.0764 40.2743 15.9118 40.586C15.8777 40.6823 15.8607 40.773 15.8607 40.8693C15.8607 41.1867 16.0253 41.521 16.2127 41.8157C16.4 42.1103 16.61 42.371 16.7122 42.5127L16.7293 42.541H17.8703L17.7851 42.4333V42.422C17.7397 42.371 17.5921 42.15 17.5921 41.9063C17.5921 41.8157 17.6148 41.7193 17.6659 41.6173C17.7283 41.4927 17.8986 41.3963 18.0519 41.3397C18.1314 41.3113 18.2052 41.2887 18.262 41.2773C18.313 41.2603 18.3528 41.2603 18.3528 41.2603L18.4379 41.2433L18.4039 41.164L18.3925 41.1357C18.3698 41.0733 18.3187 40.9373 18.3244 40.8013C18.3244 40.7333 18.3358 40.6653 18.3698 40.6143C18.3982 40.5633 18.4436 40.518 18.5288 40.4897L18.5912 40.467L18.5685 40.4047C18.5685 40.4047 18.5458 40.348 18.5061 40.2403C18.3982 39.923 18.1882 39.1807 18.1882 38.2967C18.1882 37.6847 18.2903 37.016 18.5969 36.37C18.9034 35.7013 19.2213 35.2707 19.8741 35.0327C20.0444 34.976 20.2204 34.976 20.4021 34.976C21.123 35.061 21.5658 35.6447 21.8667 36.2793C22.1959 36.9763 22.3094 37.696 22.3094 38.342C22.3094 38.9257 22.2186 39.4413 22.1335 39.8097C22.088 39.9967 22.0426 40.144 22.0143 40.246C21.9859 40.348 21.9632 40.4047 21.9632 40.4047L21.9405 40.467L22.0029 40.4897C22.0937 40.5237 22.1448 40.569 22.1789 40.6257C22.2129 40.6823 22.2243 40.7503 22.2243 40.8183C22.2243 40.9033 22.2073 40.994 22.1846 41.0563C22.1732 41.0903 22.1675 41.1187 22.1618 41.1357L22.1505 41.164L22.1164 41.2433L22.2016 41.2603C22.2016 41.2603 22.2356 41.2603 22.2924 41.2773C22.3719 41.2943 22.5024 41.334 22.6217 41.3907C22.7409 41.4473 22.8431 41.5267 22.8941 41.623C22.9452 41.7193 22.9679 41.8157 22.9679 41.912C22.9679 42.048 22.9225 42.184 22.8714 42.2803C22.8487 42.3313 22.8203 42.371 22.8033 42.3937L22.7806 42.4277V42.439L22.6898 42.5467H23.8308L23.8478 42.524C23.9841 42.337 24.1941 42.1103 24.3758 41.8667C24.5517 41.623 24.6993 41.3623 24.705 41.1017C24.705 40.9487 24.6482 40.7957 24.5177 40.671C24.0749 40.246 23.7343 39.906 23.4959 39.6793C23.2631 39.4527 23.1382 39.328 23.1382 39.328L23.0928 39.3733L23.1553 39.3903C23.2347 39.0447 23.2631 38.7047 23.2631 38.393C23.2631 37.05 22.6784 36.013 22.3492 35.5653C22.071 35.1913 21.668 34.823 21.1968 34.5737L21.1627 34.6303H21.14L21.123 34.6077Z" fill="black"/>
<path d="M133.84 19.86L132.64 18.98L134.56 16.56L131.56 15.7L132.04 14.28L134.92 15.36L134.8 12.28H136.3L136.18 15.36L139.1 14.28L139.54 15.7L136.58 16.54L138.48 18.98L137.28 19.86L135.56 17.26L133.84 19.86Z" fill="black" fill-opacity="0.4"/>
</svg>
