<?xml version="1.0" encoding="utf-8"?>
<!-- Generator: Adobe Illustrator 28.4.1, SVG Export Plug-In . SVG Version: 6.00 Build 0)  -->
<svg version="1.1" id="Capa_1" xmlns="http://www.w3.org/2000/svg" xmlns:xlink="http://www.w3.org/1999/xlink" x="0px" y="0px"
	 viewBox="0 0 544 155.2" style="enable-background:new 0 0 544 155.2;" xml:space="preserve">
<style type="text/css">
	.st0{fill:#FFFFFF;}
	.st1{fill:#FE001A;}
</style>
<g>
	<path class="st0" d="M219.6,36.8h24.5v81h-23.8v-11.5c-5.3,7.5-13.5,13.4-25.4,13.4s-28.1-9.7-28.1-29.8v-53h24.5v48.2
		c0,8.9,3.9,13.8,13,13.8s15.4-4.8,15.4-16.8V37L219.6,36.8L219.6,36.8z"/>
	<path class="st0" d="M513.5,36.8H538v81h-23.8v-11.5c-5.3,7.5-13.5,13.4-25.4,13.4s-28.1-9.7-28.1-29.8v-53h24.5v48.2
		c0,8.9,3.9,13.8,13,13.8s15.4-4.8,15.4-16.8V37v-0.2H513.5z"/>
	<path class="st0" d="M396.6,117.4c-1.1-2-1.9-5.5-2-9.1c-5.2,6.9-14,11-25.9,11c-17,0-29.5-8.7-29.5-24.7s8.3-23.2,31.7-25.2
		l12.7-1.1c6.9-0.8,10.6-2.8,10.6-8s-2.7-8.2-12.4-8.2c-9.7,0-13.5,2.3-14.3,10.7H343c1.3-17.9,12.7-28.1,38.8-28.1
		c26.1,0,36.1,9.6,36.1,25v43c0,6,1.1,11.7,3.3,14.9h-24.6L396.6,117.4z M394.2,85.7v-6c-1.8,1.9-4.3,2.7-8.2,3.2L375.9,84
		c-8.3,0.9-11.7,4.1-11.7,9.7s4.2,9.3,12,9.3S394.2,98.3,394.2,85.7z"/>
	<path class="st0" d="M105.9,5.9c26,0,41.1,15.1,47.8,29.7c3.3,7,4.3,14,4.7,18.9c0.2,2.7,0.1,4.8,0.1,6c0,5.3-0.6,10.4-0.9,12.1
		c-1.4,11.6-10.2,45.4-56,45.4H62.3V5.9H105.9L105.9,5.9z M86.2,96.6h17.5c9.7-0.1,30.5-4.3,30.5-35.1s-0.6-34.2-32.1-34.2h-16v70.3
		v-0.9L86.2,96.6z"/>
	<path class="st0" d="M332.6,107.8c-0.2,8.7-1.9,17.2-6.3,24.7c-4.9,8.1-12.9,13.2-22,15.4c-18.6,4.3-44.4-1.3-48.8-22.7
		c-4.3-21.5-0.4-2.2-0.5-3.4c0-0.2,0-0.2,0-0.2h23.3c0,0,0.6,2.3,0.6,2.6c0.5,1.5,1.4,2.8,2.5,3.9c3.5,3.3,9.5,4,14.1,3.3
		c7.3-1.1,11.6-6.6,13.2-13.5c0.6-2.7,0.8-5.5,0.9-8.2s0.1-2.5,0.2-3.8s-0.1-2,0.1-2.5c-3,4.7-10.4,11.7-23.4,11.7
		c-24,0-34.2-19.6-34.2-39.3s-1.6-42.2,35.1-42.2s21.7,9.1,23.9,12.4V36h21.6v41.7c0,9.6,0.1,19.6,0,29.3c0,0.2,0,0.5,0,0.8H332.6z
		 M278.6,59.8c-2,2.9-4,7.3-4,15.1s-0.1,4.7,1.1,8.4c1.1,3.6,4.9,13.4,16.9,13.4s5.9-0.1,9.5-2.7c3.8-2.5,8.3-7.2,8.3-19.6
		s-5.3-21.7-18.1-21.6C284.1,52.8,280.4,56.8,278.6,59.8L278.6,59.8z"/>
	<path class="st0" d="M452.5,117.9h-23.3V5.9h23.3V117.9z"/>
	<rect x="6" y="5.9" class="st1" width="37.5" height="37.5"/>
</g>
</svg>
