<svg width="188" height="56" viewBox="0 0 188 56" fill="none" xmlns="http://www.w3.org/2000/svg">
<path d="M17.7499 0.299805C28.0099 0.299805 33.9499 6.18981 36.6099 11.8198C37.9099 14.5698 38.3299 17.2598 38.4499 19.1798C38.5199 20.2498 38.4999 21.0698 38.4999 21.5198C38.4999 23.5498 38.2499 25.5898 38.1299 26.2098C37.5699 30.7098 34.1099 43.8498 16.0499 43.8498H0.569946V0.309807H17.7499V0.299805ZM9.97995 35.5398H16.8599C20.6799 35.4798 28.8899 33.8398 28.8899 21.8798C28.8899 20.5798 28.6599 8.54981 16.2499 8.54981H9.97995V35.8798V35.5398Z" fill="white"/>
<path d="M71.23 43.84H62.62V40.37C61.76 41.54 58.94 44.77 52.89 44.77C51.84 44.77 49.66 44.5 47.39 43.02C44.44 41.09 42.68 37.8 42.46 34.27C42.4 33.23 42.39 32.2 42.39 31.32V11.97H51.24V31.32C51.24 31.32 50.81 37.35 56.68 37.35C61.76 37.35 62.12 31.28 62.12 31.28V11.96H71.23V43.83V43.84Z" fill="white"/>
<path d="M187.96 43.84H179.35V40.37C178.49 41.54 175.67 44.77 169.62 44.77C168.57 44.77 166.39 44.5 164.12 43.02C161.17 41.09 159.41 37.8 159.19 34.27C159.13 33.23 159.12 32.2 159.12 31.32V11.97H167.97V31.32C167.97 31.32 167.54 37.35 173.41 37.35C178.49 37.35 178.85 31.28 178.85 31.28V11.96H187.96V43.83V43.84Z" fill="white"/>
<path d="M107.06 39.8996C107 40.5796 107 40.5196 107 41.1996C106.97 41.8696 106.42 48.0496 103.13 51.6796C100.31 54.7896 95.9699 55.5096 94.5499 55.6696C94.2999 55.6996 94.0499 55.7096 93.7899 55.7096H89.2799C88.5799 55.6696 77.3299 55.7096 76.4399 45.2396H85.6299C85.7499 45.8496 85.9799 49.1296 91.3299 49.1296C96.1799 49.1296 97.8999 45.0396 97.8999 40.7096L98.0799 38.1896C96.8599 40.0296 93.9899 42.7296 88.8599 42.7296C79.3899 42.7296 75.3899 35.1396 75.3899 27.4596C75.3899 24.9996 74.7399 11.0596 89.1699 11.0596C95.5499 11.0596 97.6999 14.5996 98.5699 15.8896V11.9796H107.06V39.9296H107.05L107.06 39.8996ZM85.7599 21.2196C84.9599 22.3696 84.2099 24.0396 84.2099 27.0896C84.2099 27.6596 84.1499 28.9296 84.6099 30.3696C85.0099 31.8096 86.5599 35.5496 91.2599 35.5496C91.8899 35.5496 93.5499 35.4896 94.9899 34.5096C96.4799 33.5296 98.2599 31.7496 98.2599 26.9196C98.2599 22.3796 96.1999 18.4696 91.1499 18.5196C87.9399 18.5196 86.5099 20.0696 85.7599 21.2196Z" fill="white"/>
<path d="M132.07 43.8403C131.58 42.2403 131.57 41.6804 131.57 40.8204C129.84 42.4804 127.32 44.6903 122.15 44.7703C114.11 44.8903 111.13 38.9804 111.13 35.1504C111.13 33.4204 110.31 24.9304 125.58 24.5104C127.63 24.3604 130.39 23.6103 131.44 22.6303C131.86 22.0503 131.77 21.0304 131.77 20.9704C131.77 19.5804 130.01 17.6303 126.45 17.6303C124.85 17.6303 121.21 17.9903 120.55 21.8103L112.07 21.7504C112.45 13.9804 119.01 11.1104 126.75 11.1104C138.67 11.1104 140.56 17.8904 140.56 23.2204C140.56 25.3804 140.59 28.7003 140.59 28.7003V40.3704C140.59 41.5504 140.98 42.7203 141.78 43.5903C141.86 43.6803 141.94 43.7603 142.03 43.8403H132.07ZM131.77 28.7304C131.06 29.6004 126.76 30.0604 125.98 30.1404C125.91 30.1404 125.84 30.1504 125.77 30.1504C125.02 30.1504 119.85 30.3204 119.85 34.4004C119.85 37.4504 123.65 38.2803 123.65 38.2803C124.43 38.4803 125.25 38.5003 126.03 38.3103C127.18 38.0403 128.82 37.3403 129.89 36.3403C131.63 34.7003 131.76 32.2904 131.76 31.9804V28.7204L131.77 28.7304Z" fill="white"/>
<path d="M154.77 43.84H145.59V0.290039H154.77V43.84Z" fill="white"/>
</svg>
