<svg width="151" height="69" viewBox="0 0 151 69" fill="none" xmlns="http://www.w3.org/2000/svg">
<path d="M35.2522 26.1757H29.5301V29.4567H33.4981V31.5137H29.5301V40.1327H35.2522V42.1783H25.6189V23.6427H35.2522V26.1757Z" fill="white"/>
<path d="M46.5829 40.3763V42.1783H36.9438V23.6427H40.997V40.3763H46.5829Z" fill="white"/>
<path d="M63.0454 26.357H59.5372V42.1783H55.5068V26.357H51.3401V23.6427H63.0454V26.357Z" fill="white"/>
<path d="M68.177 42.1783H64.8618V23.6427H68.177V42.1783Z" fill="white"/>
<path d="M95.5897 42.1783H91.6501V33.6613L88.034 42.1783L84.5372 33.6613V42.1783H81.7556V23.6427H84.5372L88.6755 32.9133L91.6501 23.6427H95.5897V42.1783Z" fill="white"/>
<path d="M101.567 32.6187V26.3287C103.821 26.3287 106.279 26.1133 106.279 29.7003C106.279 33.2873 103.14 32.664 101.567 32.613V32.6187ZM106.103 23.6427H97.5312V42.1783H101.567V35.7127H106.307C106.307 35.7127 110.009 35.316 110.009 29.7003C110.009 24.0847 106.097 23.6427 106.097 23.6427H106.103Z" fill="white"/>
<path d="M118.308 40.8863C116.906 40.8863 115.776 37.3163 115.776 32.9133C115.776 28.5103 116.912 24.9403 118.308 24.9403C119.704 24.9403 120.846 28.5103 120.846 32.9133C120.846 37.3163 119.71 40.8863 118.308 40.8863ZM118.308 23.6427C114.402 23.6427 111.235 27.7907 111.235 32.9077C111.235 38.0247 114.402 42.1783 118.308 42.1783C122.214 42.1783 125.381 38.0303 125.381 32.9077C125.381 27.785 122.214 23.6427 118.308 23.6427Z" fill="white"/>
<path d="M79.7574 26.1757H74.0297V29.4567H77.9977V31.5137H74.0297V40.1327H79.7574V42.1783H70.1184V23.6427H79.7574V26.1757Z" fill="white"/>
<path d="M25.6189 44.3203H125.381" stroke="white" stroke-width="0.95" stroke-miterlimit="2.61"/>
<path d="M55.4102 45.3573H95.5898" stroke="white" stroke-width="2.86" stroke-miterlimit="2.61"/>
<path d="M134.84 22.36L133.64 21.48L135.56 19.06L132.56 18.2L133.04 16.78L135.92 17.86L135.8 14.78H137.3L137.18 17.86L140.1 16.78L140.54 18.2L137.58 19.04L139.48 21.48L138.28 22.36L136.56 19.76L134.84 22.36Z" fill="white" fill-opacity="0.4"/>
</svg>
