<svg width="151" height="68" viewBox="0 0 151 68" fill="none" xmlns="http://www.w3.org/2000/svg">
<path fill-rule="evenodd" clip-rule="evenodd" d="M28.6105 33.9943C28.6105 20.859 49.6426 10.1717 75.5 10.1717C101.357 10.1717 122.389 20.859 122.389 33.9943C122.389 47.1297 101.352 57.817 75.5 57.817C49.6483 57.817 28.6105 47.1297 28.6105 33.9943ZM125.852 33.9943C125.852 19.533 103.31 7.82001 75.5 7.82001C47.6898 7.82001 25.1477 19.5387 25.1477 34C25.1477 48.4613 47.6898 60.18 75.5 60.18C103.31 60.18 125.852 48.4613 125.852 34V33.9943Z" fill="black"/>
<path fill-rule="evenodd" clip-rule="evenodd" d="M41.349 41.361H37.5911V25.6813H41.349V31.569H47.1279V25.6813H50.8859V41.361H47.1279V34.6177H41.349V41.361Z" fill="black"/>
<path fill-rule="evenodd" clip-rule="evenodd" d="M65.7531 38.0687C64.8392 41.293 61.8816 41.786 59.7415 41.786C58.2201 41.786 53.5255 41.4517 53.5255 35.6547C53.5255 31.7107 56.2333 29.5573 60.014 29.5573C65.6339 29.5573 65.9348 34.4873 65.9802 35.8757L66.0029 36.499H57.1245C57.1472 37.5983 57.6468 39.5023 59.9004 39.5023C60.9052 39.5023 61.9497 39.0773 62.2449 38.0687H65.7531ZM62.4095 34.595C62.3641 32.1527 60.8144 31.841 59.9742 31.841C59.5201 31.841 57.4708 31.7957 57.1302 34.595H62.4152H62.4095Z" fill="black"/>
<path fill-rule="evenodd" clip-rule="evenodd" d="M71.6001 31.348C72.5368 30.0957 74.0581 29.5573 75.6078 29.5573C77.1576 29.5573 79.4793 29.9823 79.4793 34.221V41.361H76.0222V34.7763C76.0222 33.6543 75.9087 31.841 74.0638 31.841C71.7874 31.841 71.742 34.459 71.742 34.952V41.361H68.2849V29.9823H71.6115V31.348H71.6001Z" fill="black"/>
<path fill-rule="evenodd" clip-rule="evenodd" d="M89.7031 29.9823H93.8641L89.2944 34.459L94.2785 41.361H90.1573L86.9215 36.635L85.7408 37.8193V41.361H82.2837V25.6813H85.7408V34.306L89.7031 29.9823Z" fill="black"/>
<path fill-rule="evenodd" clip-rule="evenodd" d="M98.4906 34.595C98.8312 31.7957 100.881 31.841 101.34 31.841C102.18 31.841 103.725 32.1527 103.776 34.595H98.4906ZM103.611 38.0687C103.316 39.0773 102.266 39.5023 101.267 39.5023C99.0129 39.5023 98.5077 37.5983 98.4906 36.499H107.369L107.346 35.8757C107.301 34.4873 107.006 29.5573 101.38 29.5573C97.6051 29.5573 94.8916 31.7107 94.8916 35.6547C94.8916 41.4517 99.5805 41.786 101.108 41.786C103.248 41.786 106.205 41.293 107.114 38.0687H103.611Z" fill="black"/>
<path fill-rule="evenodd" clip-rule="evenodd" d="M113.102 25.6813V41.361H109.645V25.6813H113.102Z" fill="black"/>
<path d="M133.84 23.86L132.64 22.98L134.56 20.56L131.56 19.7L132.04 18.28L134.92 19.36L134.8 16.28H136.3L136.18 19.36L139.1 18.28L139.54 19.7L136.58 20.54L138.48 22.98L137.28 23.86L135.56 21.26L133.84 23.86Z" fill="black" fill-opacity="0.4"/>
</svg>
