<svg width="151" height="69" viewBox="0 0 151 69" fill="none" xmlns="http://www.w3.org/2000/svg">
<path d="M23.0587 45.822C23.1552 45.8106 23.2517 45.8106 23.3482 45.822C23.4163 45.839 23.4788 45.8616 23.5469 45.89C23.598 45.9126 23.6434 45.9466 23.6888 45.9863C23.6661 46.043 23.6321 46.094 23.5866 46.1336C23.5639 46.1563 23.5412 46.1733 23.5185 46.1903C23.4845 46.1563 23.4504 46.128 23.4107 46.1053C23.3653 46.0826 23.3142 46.0656 23.2688 46.0486C23.2006 46.0316 23.1325 46.0203 23.0587 46.0203C22.9338 46.0146 22.8089 46.06 22.7181 46.145C22.6159 46.2526 22.5705 46.4 22.5819 46.5473C22.5819 46.6266 22.5932 46.7116 22.6159 46.7853C22.633 46.8476 22.6727 46.8986 22.7181 46.944C22.7692 46.9893 22.826 47.0176 22.8941 47.0403C22.9736 47.0686 23.053 47.0856 23.1325 47.097C23.229 47.1083 23.3198 47.131 23.405 47.165C23.4845 47.199 23.5583 47.25 23.6207 47.3123C23.6945 47.386 23.7513 47.471 23.791 47.5673C23.8251 47.675 23.8421 47.794 23.8364 47.9073C23.8364 48.032 23.8194 48.1566 23.7683 48.2756C23.7286 48.372 23.6661 48.4513 23.5866 48.5193C23.5072 48.5816 23.4107 48.6326 23.3085 48.6553C23.195 48.6836 23.0757 48.7006 22.9622 48.7006C22.8487 48.7006 22.7351 48.695 22.6273 48.6723C22.5592 48.6553 22.4854 48.6326 22.4229 48.5986C22.3662 48.5703 22.3207 48.5363 22.281 48.4853C22.2924 48.457 22.3094 48.4343 22.3264 48.4116C22.3435 48.389 22.3662 48.3663 22.3889 48.3436C22.4172 48.321 22.4456 48.2983 22.474 48.2813C22.5024 48.321 22.5365 48.3493 22.5762 48.372C22.6216 48.4003 22.6727 48.4173 22.7238 48.4343C22.7976 48.457 22.8771 48.4683 22.9565 48.4626C23.0247 48.4626 23.0928 48.4626 23.1609 48.44C23.229 48.4173 23.2971 48.3776 23.3482 48.3323C23.3993 48.287 23.4447 48.2246 23.4731 48.1566C23.5015 48.0773 23.5185 47.998 23.5185 47.913C23.5185 47.828 23.5072 47.7373 23.4788 47.658C23.4504 47.59 23.4107 47.5276 23.3539 47.4823C23.2971 47.437 23.2347 47.403 23.1666 47.3803C23.0871 47.352 23.0019 47.335 22.9168 47.3236C22.7522 47.3066 22.5989 47.2386 22.4797 47.131C22.3548 46.9836 22.2867 46.791 22.3037 46.5983C22.3037 46.4793 22.3207 46.3603 22.3662 46.2526C22.4059 46.162 22.4627 46.0826 22.5365 46.0146C22.6103 45.9523 22.6954 45.907 22.7862 45.8786C22.8771 45.8503 22.9679 45.8333 23.0644 45.8276L23.0587 45.822Z" fill="white"/>
<path d="M24.3984 47.131C24.3984 46.9327 24.4155 46.7343 24.4495 46.536C24.4722 46.3887 24.529 46.2527 24.6085 46.128C24.6879 46.0203 24.7901 45.9353 24.915 45.89C25.0626 45.839 25.2216 45.8163 25.3805 45.822C25.67 45.7937 25.9539 45.9127 26.1355 46.1337C26.3172 46.434 26.3966 46.7853 26.3683 47.1367V47.284C26.3683 47.4823 26.3512 47.6807 26.3172 47.8733C26.2888 48.0263 26.232 48.1737 26.1525 48.3097C26.0787 48.4287 25.9709 48.525 25.846 48.593C25.7041 48.6667 25.5395 48.7007 25.3805 48.695C25.2272 48.695 25.0796 48.6667 24.9434 48.593C24.8185 48.525 24.7107 48.4287 24.6312 48.3097C24.5517 48.1737 24.4893 48.0263 24.4552 47.8733C24.4155 47.6807 24.3984 47.4823 24.3984 47.284L24.3871 47.1253L24.3984 47.131ZM24.705 47.2783C24.688 47.5787 24.7447 47.879 24.8696 48.151C24.9604 48.3493 25.1591 48.4797 25.3805 48.4683C25.494 48.4683 25.6019 48.4457 25.6984 48.3833C25.7892 48.321 25.863 48.2417 25.9141 48.151C25.9709 48.0377 26.0106 47.9073 26.0276 47.7827C26.056 47.6183 26.0674 47.454 26.0617 47.284V47.131C26.0617 46.961 26.0504 46.7853 26.0163 46.6153C25.9993 46.4963 25.9539 46.383 25.8914 46.281C25.8403 46.2017 25.7665 46.1393 25.6757 46.0997C25.5849 46.06 25.4827 46.0373 25.3805 46.043C25.2726 46.043 25.1648 46.06 25.0626 46.0997C24.9775 46.1393 24.9037 46.2017 24.8526 46.281C24.7958 46.383 24.7561 46.4963 24.739 46.6153C24.7107 46.7853 24.6993 46.9553 24.705 47.131V47.2783Z" fill="white"/>
<path d="M27.2765 47.3123C27.2594 47.6126 27.3105 47.913 27.4354 48.185C27.5376 48.3776 27.742 48.4853 27.9577 48.474C28.0201 48.4683 28.0882 48.457 28.1507 48.44L28.2926 48.4116C28.3323 48.4003 28.3721 48.3833 28.4061 48.3663L28.4913 48.4343L28.5481 48.5023C28.5481 48.5023 28.5821 48.5476 28.5935 48.5703C28.5424 48.593 28.4856 48.6156 28.4345 48.6326C28.3664 48.6496 28.304 48.6666 28.2358 48.678C28.145 48.6836 28.0485 48.6836 27.9577 48.678C27.7987 48.678 27.6398 48.6496 27.4922 48.5873C27.3673 48.525 27.2594 48.4343 27.1857 48.3153C27.1062 48.1793 27.0494 48.032 27.021 47.879C26.9813 47.6863 26.9643 47.488 26.9699 47.284V47.1366C26.9699 46.9383 26.987 46.74 27.021 46.5416C27.0494 46.3886 27.1062 46.2413 27.1857 46.1053C27.2594 45.992 27.3673 45.907 27.4922 45.8503C27.6511 45.805 27.8158 45.7993 27.9747 45.822C28.0655 45.8163 28.1564 45.8163 28.2472 45.822L28.4402 45.856C28.4913 45.873 28.5424 45.89 28.5878 45.9126C28.5708 45.941 28.5594 45.9636 28.5424 45.992L28.497 46.0486L28.4402 46.0996L28.3267 46.0713C28.2813 46.0543 28.2302 46.0486 28.1791 46.043C28.111 46.043 28.0485 46.043 27.9804 46.043C27.8725 46.043 27.7647 46.06 27.6682 46.111C27.583 46.1563 27.5092 46.2243 27.4525 46.3093C27.39 46.417 27.3503 46.536 27.3332 46.655C27.3049 46.8193 27.2878 46.9893 27.2878 47.1593V47.3123H27.2765Z" fill="white"/>
<path d="M29.5074 48.661C29.5074 48.661 29.462 48.661 29.4393 48.661H29.2065V45.822H29.5131V48.661H29.5074Z" fill="white"/>
<path d="M30.2965 45.822H31.6078V45.8503C31.6078 45.8503 31.6078 45.873 31.6078 45.8843V45.9863C31.6078 45.9863 31.6078 46.0147 31.6078 46.026V46.0543H30.5917V47.08H31.4886C31.4886 47.08 31.4886 47.1197 31.4886 47.1423V47.301H30.5917V48.4287H31.6135C31.6135 48.4287 31.6135 48.4683 31.6135 48.4853V48.5987C31.6135 48.5987 31.6135 48.6327 31.6135 48.644H30.3022V45.8107L30.2965 45.822Z" fill="white"/>
<path d="M32.2777 48.661V45.822H32.7658C32.9702 45.8163 33.1746 45.856 33.3619 45.9467C33.5152 46.0203 33.6571 46.128 33.7649 46.2583C33.8671 46.3887 33.9409 46.536 33.9863 46.6947C34.0317 46.8533 34.0545 47.0233 34.0545 47.1933C34.0545 47.3067 34.0431 47.42 34.0261 47.5277C34.009 47.641 33.9807 47.7543 33.9409 47.862C33.9012 47.9697 33.8501 48.0717 33.7877 48.168C33.7195 48.2643 33.6401 48.3493 33.5492 48.423C33.447 48.5023 33.3335 48.559 33.2086 48.593C33.0667 48.6383 32.9191 48.6553 32.7715 48.6553L32.272 48.6667L32.2777 48.661ZM32.7148 48.4457C32.8907 48.4513 33.0724 48.4117 33.2313 48.3323C33.3562 48.2587 33.4698 48.1623 33.5492 48.0433C33.623 47.9243 33.6798 47.7883 33.7082 47.6467C33.7366 47.505 33.7479 47.3577 33.7536 47.2103C33.7536 47.063 33.7309 46.9157 33.6855 46.774C33.6457 46.638 33.5833 46.519 33.4981 46.4057C33.413 46.298 33.3051 46.213 33.1802 46.1507C33.0327 46.0883 32.8794 46.0543 32.7204 46.06H32.5785V48.4343L32.7204 48.4457H32.7148Z" fill="white"/>
<path d="M36.0811 48.661C36.0811 48.508 36.0357 48.3607 36.0073 48.2247L35.9278 47.7883H34.9628C34.9344 47.9243 34.906 48.0603 34.8833 48.2247C34.8606 48.389 34.8379 48.5137 34.8152 48.661H34.5314C34.5938 48.2247 34.6676 47.845 34.7471 47.4937C34.8266 47.1423 34.9117 46.8477 34.9855 46.621C35.0593 46.3943 35.1672 46.0713 35.2523 45.8447H35.6497C35.7348 46.0713 35.82 46.3263 35.9051 46.621C35.9903 46.9157 36.0641 47.165 36.1436 47.4937C36.223 47.8223 36.3025 48.2303 36.3706 48.661H36.0811ZM35.4453 46.0487C35.3999 46.1733 35.3545 46.3093 35.3034 46.485C35.2523 46.6607 35.2182 46.7797 35.1615 46.9723C35.1047 47.165 35.0593 47.3747 35.0082 47.6127H35.8824C35.8313 47.3803 35.7802 47.165 35.7235 46.9723C35.6781 46.7797 35.627 46.621 35.5872 46.485L35.4567 46.0487H35.4396H35.4453Z" fill="white"/>
<path d="M36.9723 48.661V45.822H37.4605C37.6649 45.8163 37.8693 45.856 38.0566 45.9467C38.2155 46.0203 38.3518 46.128 38.4596 46.2583C38.5618 46.3887 38.6413 46.536 38.681 46.6947C38.7264 46.8533 38.7492 47.0233 38.7492 47.1933C38.7492 47.3067 38.7378 47.42 38.7208 47.5277C38.7037 47.641 38.6754 47.7543 38.6356 47.862C38.5959 47.9697 38.5448 48.0717 38.4824 48.168C38.4142 48.2643 38.3348 48.3493 38.2439 48.423C38.1417 48.5023 38.0282 48.559 37.9033 48.593C37.7614 48.6383 37.6138 48.6553 37.4662 48.6553L36.9667 48.6667L36.9723 48.661ZM37.4095 48.4457C37.5854 48.4513 37.7671 48.4117 37.926 48.3323C38.0509 48.2643 38.1588 48.1623 38.2383 48.0433C38.3177 47.9243 38.3688 47.7883 38.3972 47.6467C38.4256 47.505 38.4426 47.3577 38.4426 47.2103C38.4426 47.063 38.4199 46.9157 38.3802 46.774C38.3404 46.6437 38.278 46.519 38.1928 46.4057C38.1077 46.298 37.9942 46.213 37.8693 46.1507C37.733 46.0883 37.5854 46.06 37.4322 46.06H37.2675V48.4343L37.4095 48.4457Z" fill="white"/>
<path d="M40.719 45.822H41.5932C41.684 45.822 41.7749 45.8447 41.8487 45.8957C41.9281 45.9523 41.9906 46.0203 42.0417 46.0997C42.0984 46.1903 42.1382 46.2923 42.1609 46.3943C42.1893 46.5077 42.2006 46.6267 42.2063 46.7457C42.2063 46.859 42.1893 46.9723 42.1609 47.08C42.1382 47.182 42.0984 47.2783 42.0417 47.369C41.9906 47.4483 41.9281 47.5163 41.8487 47.573C41.7749 47.624 41.684 47.6467 41.5932 47.6467H41.0142V48.6497H40.719V45.8163V45.822ZM41.5308 47.437C41.5989 47.437 41.6613 47.42 41.7124 47.3747C41.7635 47.3293 41.8032 47.2783 41.8316 47.216C41.8657 47.148 41.8884 47.0743 41.8997 47.0007C41.9111 46.9157 41.9111 46.8307 41.8997 46.7457C41.9111 46.655 41.9111 46.57 41.8997 46.4793C41.8884 46.4057 41.8657 46.332 41.8316 46.264C41.8032 46.2073 41.7635 46.1507 41.7124 46.111C41.6613 46.0713 41.5932 46.0543 41.5308 46.0543H41.0142V47.437H41.5308Z" fill="white"/>
<path d="M42.7738 47.131C42.7738 46.9327 42.7851 46.7343 42.8192 46.536C42.8419 46.3887 42.8986 46.2527 42.9781 46.128C43.0519 46.0203 43.1598 45.9353 43.279 45.89C43.4323 45.839 43.5912 45.8163 43.7501 45.822C44.0397 45.7937 44.3235 45.9127 44.5052 46.1337C44.6755 46.434 44.7549 46.7797 44.7209 47.1253V47.2727C44.7209 47.471 44.7038 47.6693 44.6698 47.862C44.6414 48.015 44.5846 48.1623 44.5052 48.2983C44.4314 48.4173 44.3235 48.5137 44.1986 48.5817C44.0567 48.6553 43.8921 48.6893 43.7331 48.6837C43.5798 48.6837 43.4323 48.6553 43.296 48.5817C43.1711 48.5137 43.0633 48.4173 42.9895 48.2983C42.9043 48.1623 42.8419 48.015 42.8078 47.862C42.7738 47.6693 42.7511 47.471 42.7567 47.2727L42.7681 47.1253L42.7738 47.131ZM43.0746 47.2783C43.0576 47.5787 43.12 47.8733 43.2392 48.151C43.3301 48.3493 43.5288 48.4797 43.7501 48.4683C43.8637 48.4683 43.9715 48.4457 44.068 48.3833C44.1589 48.321 44.2327 48.2417 44.2838 48.151C44.3405 48.0377 44.3803 47.9073 44.3973 47.7827C44.4257 47.6183 44.437 47.454 44.4314 47.284V47.131C44.4314 46.961 44.42 46.7853 44.3859 46.6153C44.3689 46.4963 44.3235 46.383 44.2611 46.281C44.21 46.2017 44.1362 46.1393 44.051 46.0997C43.9545 46.06 43.8523 46.043 43.7501 46.043C43.6423 46.043 43.5344 46.06 43.4323 46.0997C43.3471 46.1393 43.2733 46.2017 43.2222 46.281C43.1655 46.383 43.1257 46.4963 43.1087 46.6153C43.0803 46.7853 43.0689 46.9553 43.0746 47.131V47.2783Z" fill="white"/>
<path d="M45.4419 45.822H46.3161C46.4126 45.822 46.5091 45.8504 46.5886 45.907C46.6737 45.9637 46.7475 46.026 46.8043 46.1054C46.8667 46.1847 46.9122 46.2697 46.9519 46.3604C46.986 46.4397 47.003 46.5247 47.0087 46.6097C47.0087 46.672 46.9916 46.74 46.9632 46.7967C46.9349 46.8704 46.8951 46.944 46.8554 47.012C46.81 47.08 46.7589 47.148 46.6964 47.2104C46.6454 47.267 46.5886 47.3067 46.5148 47.335C46.5602 47.505 46.617 47.6694 46.6794 47.828C46.7419 47.9867 46.7986 48.117 46.8554 48.2644C46.9122 48.4117 46.9803 48.5364 47.0427 48.661H46.7192C46.6681 48.542 46.6113 48.4174 46.5545 48.2814C46.4978 48.1454 46.4523 48.0264 46.3956 47.8734C46.3331 47.709 46.2764 47.5447 46.2253 47.3747H45.7371V48.644H45.4419V45.8277V45.822ZM46.2537 47.165C46.3104 47.165 46.3672 47.148 46.4126 47.1084C46.4637 47.0687 46.5091 47.0177 46.5488 46.9667C46.5886 46.91 46.617 46.8534 46.6397 46.7854C46.6624 46.7287 46.6737 46.672 46.6737 46.6097C46.6737 46.5474 46.6624 46.4907 46.6397 46.4284C46.617 46.366 46.5886 46.3037 46.5488 46.247C46.5091 46.196 46.4637 46.1507 46.4126 46.111C46.3672 46.0714 46.3104 46.0544 46.2537 46.0544H45.7371V47.1594H46.2537V47.165Z" fill="white"/>
<path d="M48.11 46.06H47.4231C47.4231 46.06 47.4231 46.0373 47.4231 46.0316C47.4231 46.0203 47.4231 46.0033 47.4231 45.992V45.8956C47.4231 45.8956 47.4231 45.8673 47.4231 45.856C47.4231 45.8446 47.4231 45.8333 47.4231 45.8276H49.092C49.092 45.8276 49.092 45.8503 49.092 45.8616V46.026C49.092 46.026 49.092 46.0486 49.092 46.06H48.4108V48.6723H48.11V46.06Z" fill="white"/>
<path d="M51.3457 47.8394C51.3457 47.964 51.3343 48.083 51.3116 48.2077C51.2946 48.3097 51.2549 48.4004 51.1867 48.4797C51.1243 48.559 51.0335 48.6157 50.937 48.644C50.7951 48.6894 50.6475 48.7064 50.4999 48.7007C50.3523 48.7064 50.2047 48.6894 50.0628 48.644C49.9663 48.6157 49.8754 48.559 49.8073 48.4797C49.7449 48.4004 49.6994 48.3097 49.6824 48.2134C49.6597 48.0944 49.6484 47.9697 49.654 47.845V45.822H49.9549V47.8904C49.9549 47.9697 49.9549 48.049 49.9549 48.1284C49.9663 48.1907 49.989 48.253 50.0287 48.3097C50.0741 48.3607 50.1309 48.4004 50.1933 48.4174C50.3806 48.4684 50.5793 48.4684 50.7667 48.4174C50.8291 48.4004 50.8859 48.3607 50.9256 48.3097C50.9653 48.2587 50.9881 48.1964 50.9937 48.1284C50.9994 48.049 50.9994 47.9697 50.9937 47.8904V45.822H51.2832L51.3287 47.8394H51.3457Z" fill="white"/>
<path d="M53.4802 48.661C53.4802 48.508 53.4348 48.3607 53.4064 48.2247C53.378 48.0887 53.361 47.947 53.3326 47.7883H52.3619L52.2824 48.2247C52.2597 48.372 52.2427 48.5137 52.2143 48.661H51.9248C51.9929 48.2247 52.0667 47.845 52.1462 47.4937C52.2257 47.1423 52.3051 46.8477 52.3789 46.621C52.4527 46.3943 52.5606 46.0713 52.6457 45.8447H53.0431C53.1283 46.0713 53.2134 46.3263 53.2986 46.621C53.3837 46.9157 53.4518 47.165 53.5313 47.4937C53.6108 47.8223 53.6903 48.2303 53.7641 48.661H53.4689H53.4802ZM52.8388 46.0487C52.7933 46.1733 52.7536 46.3093 52.6968 46.485C52.6401 46.6607 52.6117 46.7797 52.5606 46.9723C52.5095 47.165 52.4584 47.3747 52.4016 47.6127H53.2759C53.2248 47.3803 53.1737 47.1763 53.1226 46.9723C53.0715 46.7683 53.0147 46.587 53.0147 46.4567C53.0147 46.3263 52.9182 46.162 52.8785 46.0203L52.8331 46.0487H52.8388Z" fill="white"/>
<path d="M54.3657 45.822H55.2399C55.3364 45.822 55.4273 45.8504 55.5067 45.907C55.5919 45.958 55.6657 46.026 55.7225 46.1054C55.7849 46.1847 55.836 46.2697 55.87 46.3604C55.9041 46.4397 55.9268 46.5247 55.9268 46.6097C55.9268 46.672 55.9098 46.7344 55.8871 46.7967C55.8587 46.8704 55.819 46.944 55.7792 47.012C55.7338 47.08 55.6827 47.148 55.6203 47.2104C55.5692 47.267 55.5067 47.3067 55.4386 47.335C55.4897 47.505 55.5408 47.6694 55.6032 47.828C55.6657 47.9867 55.7281 48.117 55.7849 48.2644C55.8417 48.4117 55.9098 48.5364 55.9722 48.661H55.6316C55.5749 48.542 55.5181 48.4174 55.4613 48.2814L55.3024 47.8734C55.2456 47.7204 55.1888 47.556 55.1321 47.3747H54.6609V48.644H54.3714V45.8277L54.3657 45.822ZM55.1945 47.1707C55.2513 47.1707 55.3081 47.1537 55.3535 47.114C55.4046 47.0744 55.45 47.0234 55.4897 46.9724C55.5294 46.9157 55.5578 46.859 55.5805 46.791C55.6032 46.7344 55.6146 46.6777 55.6146 46.6154C55.6146 46.553 55.6032 46.4964 55.5805 46.434C55.5578 46.3717 55.5294 46.3094 55.4897 46.2527C55.45 46.2017 55.4046 46.1564 55.3535 46.1167C55.3081 46.077 55.2513 46.06 55.1945 46.06H54.6552V47.165H55.1945V47.1707Z" fill="white"/>
<path d="M56.943 48.661C56.943 48.661 56.8975 48.661 56.8748 48.661H56.6421V45.822H56.9486V48.661H56.943Z" fill="white"/>
<path d="M59.1227 48.661C59.1227 48.508 59.0773 48.3607 59.0489 48.2247C59.0205 48.0887 59.0035 47.947 58.9751 47.7883H57.9873C57.959 47.9243 57.9362 48.0603 57.9079 48.2247C57.8795 48.389 57.8624 48.5137 57.8397 48.661H57.5559C57.624 48.2247 57.6978 47.845 57.7773 47.4937C57.8568 47.1423 57.9362 46.8477 58.01 46.621C58.0838 46.3943 58.1917 46.0713 58.2769 45.8447H58.6799C58.765 46.0713 58.8502 46.3263 58.9353 46.621C59.0205 46.9157 59.0886 47.165 59.1681 47.4937C59.2476 47.8223 59.327 48.2303 59.4008 48.661H59.1113H59.1227ZM58.4812 46.0487C58.4358 46.1733 58.3904 46.3093 58.3393 46.485C58.2882 46.6607 58.2541 46.7797 58.2031 46.9723C58.152 47.165 58.1009 47.3747 58.0441 47.6127H58.9183C58.8672 47.3803 58.8161 47.1763 58.765 46.9723C58.714 46.7683 58.6685 46.621 58.6231 46.485L58.4926 46.0487H58.4755H58.4812Z" fill="white"/>
<path d="M22.5025 30.7713H22.7749C22.809 30.7713 22.8487 30.7713 22.8828 30.7713H22.9736V28.329H24.3417C24.5517 28.329 24.7561 28.2666 24.9207 28.142C25.0967 28.006 25.25 27.8416 25.3578 27.6433C25.4884 27.4223 25.5792 27.1843 25.636 26.9406C25.6984 26.6743 25.7268 26.4023 25.7268 26.1246C25.7268 25.83 25.6984 25.541 25.636 25.252C25.5792 24.997 25.4884 24.759 25.3578 24.5323C25.25 24.3396 25.1024 24.1696 24.9207 24.0393C24.7504 23.9203 24.5461 23.858 24.336 23.858H22.2981V30.7486H22.3832C22.4173 30.76 22.457 30.7656 22.4911 30.7656L22.5025 30.7713ZM22.9793 24.453H24.1657C24.3247 24.4416 24.4779 24.4926 24.6028 24.5946C24.722 24.691 24.8185 24.8156 24.8753 24.9573C24.9548 25.1273 25.0059 25.303 25.0343 25.49C25.0683 25.6996 25.0854 25.915 25.0854 26.1303C25.0854 26.3343 25.0683 26.544 25.0343 26.7423C25.0059 26.9236 24.9491 27.105 24.8753 27.275C24.8185 27.4223 24.722 27.5526 24.6028 27.6546C24.4836 27.7566 24.3247 27.8076 24.1657 27.7963H22.9793V24.4586V24.453Z" fill="white"/>
<path d="M29.3656 30.6977C29.5926 30.6184 29.797 30.4824 29.9446 30.2954C30.0922 30.1027 30.1887 29.8817 30.2228 29.6437C30.2738 29.3547 30.3022 29.0657 30.2965 28.771V23.8864C30.2455 23.8864 30.1944 23.8864 30.1433 23.8864H29.7856C29.7346 23.8864 29.6778 23.8864 29.6267 23.8864V28.8957C29.6267 29.0884 29.6153 29.2867 29.5926 29.4794C29.5756 29.638 29.5188 29.7854 29.428 29.9157C29.3372 30.0404 29.2066 30.131 29.059 30.182C28.849 30.25 28.6219 30.284 28.4005 30.2727C28.1735 30.2784 27.9521 30.25 27.7364 30.182C27.5888 30.131 27.4525 30.0404 27.356 29.9157C27.2652 29.7854 27.2084 29.638 27.1914 29.4794C27.163 29.2867 27.1517 29.0884 27.1517 28.8957V23.8864C27.1006 23.8864 27.0495 23.8864 26.9984 23.8864H26.6408C26.5897 23.8864 26.5329 23.8864 26.4818 23.8864V28.771C26.4818 29.06 26.5045 29.3547 26.5499 29.6437C26.5897 29.8817 26.6862 30.1027 26.8281 30.2954C26.9814 30.4767 27.18 30.6127 27.4071 30.692C27.725 30.794 28.0599 30.8394 28.3949 30.8337C28.7241 30.8507 29.0477 30.8054 29.3656 30.709V30.6977Z" fill="white"/>
<path d="M34.4405 30.6297V30.2217H32.0734V27.4733H34.1226V27.0993C34.1283 27.054 34.1283 27.0087 34.1226 26.9577H32.0734V24.4757H34.4178V24.4133C34.4178 24.3793 34.4178 24.351 34.4178 24.317C34.4178 24.2717 34.4178 24.2207 34.4178 24.1753C34.4178 24.1357 34.4178 24.096 34.4178 24.0563C34.4178 24.028 34.4178 23.9997 34.4178 23.9713V23.9033H31.4092V30.7543H34.4292C34.4292 30.7203 34.4292 30.675 34.4292 30.6297H34.4405Z" fill="white"/>
<path d="M38.0963 28.7313C37.9544 28.3517 37.8239 27.955 37.716 27.547C37.8863 27.4847 38.0339 27.3827 38.1531 27.2523C38.2893 27.1107 38.4086 26.9463 38.5107 26.7763C38.6129 26.6063 38.6924 26.4307 38.7605 26.2493C38.8116 26.102 38.8343 25.949 38.8343 25.7903C38.8343 25.5807 38.7832 25.3767 38.7094 25.184C38.6243 24.963 38.5051 24.7533 38.3631 24.5663C38.2269 24.3737 38.0623 24.2093 37.8636 24.079C37.6876 23.9543 37.4719 23.8863 37.2505 23.8807H35.2864V30.7543H35.3772C35.4169 30.7543 35.451 30.7543 35.4907 30.7543H35.7689C35.803 30.7543 35.837 30.7543 35.8711 30.7543H35.9619V27.6717H37.0405C37.1654 28.108 37.2959 28.5103 37.4265 28.8843C37.5571 29.2583 37.6876 29.587 37.7955 29.8703C37.9033 30.1537 38.0566 30.5107 38.1815 30.7883H38.4369L38.6754 30.76C38.7605 30.7487 38.84 30.7317 38.9251 30.7147C38.7832 30.4143 38.6356 30.0913 38.488 29.7513C38.3404 29.4113 38.2326 29.1167 38.085 28.7313H38.0963ZM37.5116 26.986C37.4151 27.071 37.2846 27.122 37.154 27.1277H35.9676V24.453H37.154C37.2846 24.453 37.4095 24.504 37.5116 24.589C37.6365 24.6797 37.7387 24.793 37.8239 24.9177C37.9147 25.0537 37.9828 25.201 38.0396 25.354C38.0907 25.4957 38.1134 25.643 38.119 25.7903C38.119 25.9377 38.0907 26.085 38.0396 26.2267C37.9828 26.3797 37.9147 26.527 37.8239 26.663C37.7387 26.7877 37.6365 26.901 37.5116 26.9973V26.986Z" fill="white"/>
<path d="M40.7247 30.7544H40.8268C40.8609 30.7544 40.9006 30.7544 40.9347 30.7544H41.2072C41.2412 30.7544 41.281 30.7544 41.315 30.7544H41.4172V24.453H43.001C43.001 24.4247 43.001 24.3907 43.001 24.3624C43.001 24.334 43.001 24.3 43.001 24.2717C43.001 24.2377 43.001 24.2037 43.001 24.1697C43.001 24.1357 43.001 24.096 43.001 24.062C43.001 24.0337 43.001 23.9997 43.001 23.9714C43.001 23.943 43.001 23.9147 43.001 23.8864H39.1409C39.1409 23.8864 39.1409 23.9317 39.1409 23.9544C39.1409 23.9884 39.1409 24.0167 39.1409 24.0507V24.283C39.1409 24.3114 39.1409 24.3454 39.1409 24.3737C39.1409 24.402 39.1409 24.4304 39.1409 24.4587H40.7247V30.76V30.7544Z" fill="white"/>
<path d="M46.5715 30.5787C46.861 30.4143 47.1051 30.1763 47.2754 29.893C47.4628 29.553 47.5933 29.1847 47.6558 28.805C47.7352 28.3403 47.7807 27.87 47.7807 27.3997V27.037C47.7807 25.9263 47.599 25.1217 47.2414 24.6117C46.8327 24.0733 46.1685 23.7843 45.4986 23.8523C45.1297 23.841 44.7663 23.9033 44.4257 24.0337C44.1419 24.1527 43.8978 24.3567 43.7332 24.6117C43.5402 24.912 43.4153 25.252 43.3585 25.6033C43.2734 26.0737 43.2393 26.5553 43.245 27.037V27.3997C43.2393 27.8813 43.2847 28.3687 43.3756 28.839C43.4437 29.2243 43.5799 29.5927 43.7786 29.927C43.9546 30.199 44.193 30.4257 44.4825 30.5787C44.7947 30.7487 45.1524 30.8337 45.51 30.8223C45.879 30.8337 46.248 30.7487 46.5772 30.5787H46.5715ZM44.3349 29.4963C44.0454 28.8333 43.9148 28.1137 43.9489 27.394V27.0313C43.9489 26.6177 43.9716 26.204 44.0284 25.7903C44.0624 25.507 44.1533 25.2293 44.2895 24.9743C44.403 24.7873 44.5677 24.6343 44.7663 24.538C44.9991 24.4417 45.2489 24.3963 45.4986 24.402C45.7371 24.3963 45.9698 24.4417 46.1855 24.538C46.3842 24.6343 46.5545 24.7873 46.6737 24.9743C46.8156 25.2237 46.9178 25.5013 46.9632 25.7903C47.037 26.1983 47.0711 26.612 47.0654 27.0257V27.3883C47.0654 27.7907 47.0427 28.193 46.9859 28.5953C46.9405 28.907 46.8554 29.2073 46.7191 29.4907C46.6056 29.7173 46.4353 29.91 46.2309 30.0573C46.0152 30.199 45.7598 30.267 45.4986 30.2557C44.9877 30.267 44.5279 29.961 44.3349 29.4963Z" fill="white"/>
<path d="M53.4518 30.6013C53.7357 30.5106 53.9968 30.3746 54.2295 30.1933C54.4396 30.0176 54.6155 29.8136 54.7631 29.5813C54.9051 29.349 55.0243 29.0996 55.1094 28.839C55.2002 28.5726 55.2627 28.3006 55.3024 28.023C55.3422 27.7566 55.3649 27.4846 55.3649 27.2126C55.3649 26.8046 55.3081 26.3966 55.2002 26C55.1037 25.609 54.9334 25.2406 54.7007 24.912C54.4566 24.589 54.1444 24.3283 53.7811 24.1526C53.3553 23.9486 52.8898 23.8466 52.413 23.8636H51.272V30.7543H52.396C52.7536 30.7656 53.1169 30.7146 53.4575 30.6013H53.4518ZM51.9816 30.2216V24.453H52.3165C52.6798 24.4416 53.0431 24.521 53.3667 24.6796C53.6562 24.8156 53.9116 25.0253 54.1046 25.286C54.3033 25.5466 54.4509 25.8413 54.5417 26.1586C54.6383 26.5043 54.6893 26.8613 54.6837 27.2183C54.6837 27.5696 54.6496 27.9266 54.5815 28.2723C54.519 28.6123 54.3998 28.941 54.2182 29.2413C54.0365 29.5303 53.7924 29.7683 53.4972 29.944C53.1339 30.1423 52.7252 30.233 52.3165 30.216L51.9759 30.2273L51.9816 30.2216Z" fill="white"/>
<path d="M59.2533 30.6297V30.3577C59.2533 30.3124 59.2533 30.267 59.2533 30.216H56.9089V27.4677H58.9525C58.9525 27.428 58.9525 27.3884 58.9525 27.343V27.088C58.9581 27.0427 58.9581 26.9974 58.9525 26.9464H56.9089V24.4644H59.2533V24.402C59.2533 24.368 59.2533 24.3397 59.2533 24.3057C59.2533 24.2604 59.2533 24.2094 59.2533 24.164C59.2533 24.1244 59.2533 24.0847 59.2533 24.045C59.2533 24.0167 59.2533 23.9884 59.2533 23.96V23.892H56.239V30.743H59.2533C59.2533 30.709 59.2533 30.6637 59.2533 30.6184V30.6297Z" fill="white"/>
<path d="M26.1696 37.3107C26.0107 37.118 25.8063 36.9707 25.5735 36.8744C25.7722 36.7894 25.9482 36.6647 26.0958 36.506C26.2491 36.3304 26.3683 36.1264 26.4478 35.9054C26.567 35.5937 26.6181 35.265 26.6124 34.9364C26.6237 34.5624 26.5726 34.1884 26.4705 33.8257C26.391 33.5594 26.2548 33.31 26.0617 33.106C25.8801 32.919 25.653 32.7887 25.4032 32.7207C25.1194 32.6414 24.8242 32.6074 24.529 32.6074H22.2981V41.538H24.6539C25.2273 41.5664 25.7893 41.3567 26.2037 40.96C26.6294 40.4274 26.8338 39.7474 26.7713 39.0674C26.7827 38.6934 26.7202 38.325 26.5783 37.9794C26.4761 37.7357 26.3399 37.509 26.1696 37.305V37.3107ZM23.1837 33.3384H24.495C24.688 33.3384 24.881 33.361 25.0683 33.412C25.2216 33.4574 25.3578 33.5424 25.46 33.6614C25.5735 33.803 25.653 33.973 25.6928 34.1487C25.7382 34.4094 25.7552 34.6757 25.7438 34.9364C25.7438 35.2027 25.7325 35.4747 25.6871 35.7354C25.6587 35.9224 25.5792 36.098 25.46 36.2397C25.3351 36.3757 25.1762 36.4664 25.0002 36.5117C24.7448 36.5627 24.4836 36.5797 24.2225 36.5684H23.1837V33.3384ZM25.5849 40.4557C25.3351 40.7277 24.9718 40.8694 24.5972 40.841H23.1837V37.2654H24.3531C24.7958 37.22 25.2386 37.3844 25.5508 37.7017C25.8176 38.1097 25.9369 38.5914 25.8971 39.0787C25.9425 39.5604 25.829 40.042 25.5849 40.4614V40.4557Z" fill="white"/>
<path d="M31.6022 35.0327C31.3467 34.1203 31.0969 33.293 30.8415 32.596H29.99C29.8765 32.596 29.7686 32.6073 29.6607 32.6243C29.3939 33.3327 29.1215 34.1487 28.8603 35.061C28.6389 35.8317 28.4005 36.7667 28.1507 37.8547C27.901 38.9483 27.6853 40.178 27.4979 41.5437H27.6115C27.6512 41.5437 27.6909 41.5437 27.7363 41.5437H28.0599C28.111 41.5437 28.1564 41.5437 28.2075 41.5437H28.3494C28.4175 41.0507 28.4857 40.586 28.5538 40.144C28.6219 39.702 28.6957 39.2713 28.7865 38.835H31.6703C31.7498 39.2713 31.8292 39.7077 31.903 40.144C31.9768 40.5803 32.0563 41.0563 32.1188 41.5437H32.2493C32.2947 41.5437 32.3401 41.5437 32.3912 41.5437H32.7489C32.7943 41.5437 32.834 41.5437 32.8794 41.5437H32.9986C32.7943 40.178 32.5615 38.9313 32.3174 37.8547C32.0733 36.778 31.8349 35.809 31.6135 35.0327H31.6022ZM28.9171 38.1323C29.0704 37.3843 29.2236 36.71 29.3769 36.1093C29.5302 35.5087 29.6664 34.993 29.7856 34.568C29.9048 34.143 30.0695 33.6387 30.2 33.259H30.2682L30.6655 34.568C30.7791 34.993 30.9153 35.5087 31.0686 36.1093C31.2162 36.7043 31.3694 37.3787 31.5057 38.1323H28.9171Z" fill="white"/>
<path d="M37.5513 38.9087C37.3696 38.4157 37.205 37.9 37.0517 37.3617C37.2618 37.2823 37.4491 37.1463 37.5967 36.9763C37.7727 36.7837 37.926 36.574 38.0565 36.353C38.1871 36.1377 38.2949 35.9053 38.3858 35.6673C38.4596 35.4803 38.4993 35.2763 38.5107 35.0723C38.505 34.8003 38.4482 34.534 38.346 34.2847C38.2325 33.9957 38.0906 33.7237 37.9089 33.4743C37.7273 33.2307 37.5116 33.0153 37.2561 32.8453C37.0177 32.6753 36.7282 32.5847 36.433 32.5903H33.8955V41.538H34.0147C34.0658 41.538 34.1112 41.538 34.1623 41.538H34.5199C34.5654 41.538 34.6108 41.538 34.6619 41.538H34.7754V37.543H36.1775C36.3365 38.1097 36.5068 38.6423 36.6884 39.1297C36.8701 39.617 37.0177 40.042 37.171 40.4103C37.3242 40.7787 37.5116 41.2433 37.6705 41.606C37.7784 41.606 37.8919 41.6003 37.9998 41.5833C38.1076 41.5777 38.2155 41.5607 38.3177 41.5437C38.4255 41.5437 38.5334 41.5097 38.6412 41.4813C38.4539 41.0903 38.2609 40.671 38.0736 40.229C37.9089 39.8323 37.7443 39.3903 37.5513 38.903V38.9087ZM36.7963 36.6477C36.6657 36.761 36.5011 36.829 36.3251 36.829H34.7811V33.344H36.3251C36.4954 33.344 36.6657 33.412 36.7963 33.5197C36.9552 33.6387 37.0915 33.786 37.1993 33.956C37.3129 34.126 37.4037 34.3073 37.4718 34.5C37.5399 34.6813 37.574 34.874 37.574 35.0723C37.574 35.2593 37.5343 35.4407 37.4718 35.6107C37.4037 35.809 37.3129 36.0017 37.1993 36.183C37.0915 36.3587 36.9552 36.5173 36.7963 36.6477Z" fill="white"/>
<path d="M43.4153 38.9087C43.2337 38.4157 43.0634 37.9 42.9158 37.3617C43.1258 37.2767 43.3075 37.1463 43.4551 36.9763C43.631 36.7893 43.7843 36.5797 43.9149 36.353C44.0454 36.1377 44.159 35.9053 44.2441 35.6673C44.3179 35.4803 44.3576 35.2763 44.369 35.0723C44.3633 34.8003 44.3066 34.534 44.1987 34.2847C44.0908 33.9957 43.9432 33.7237 43.7616 33.4743C43.5856 33.225 43.3642 33.0153 43.1088 32.8453C42.876 32.681 42.5979 32.5903 42.3084 32.5903H39.7368V41.538H39.8503C39.9014 41.538 39.9469 41.538 39.9979 41.538H40.3499C40.3953 41.538 40.4407 41.538 40.4861 41.538H40.5997V37.543H42.0018C42.1664 38.1097 42.3311 38.6423 42.5127 39.1297C42.6944 39.617 42.8476 40.042 42.9952 40.4103C43.1428 40.7787 43.3302 41.2433 43.4948 41.606C43.6026 41.606 43.7162 41.5947 43.824 41.5833C43.9319 41.5777 44.0341 41.5607 44.1363 41.5437C44.2498 41.5437 44.352 41.5097 44.4598 41.4813C44.2725 41.0903 44.0795 40.671 43.8922 40.229C43.7389 39.8323 43.5629 39.3903 43.3983 38.903L43.4153 38.9087ZM42.6546 36.6477C42.5241 36.761 42.3594 36.829 42.1891 36.829H40.6224V33.344H42.1721C42.3424 33.344 42.507 33.412 42.6376 33.5197C42.7966 33.6387 42.9328 33.786 43.0407 33.956C43.1542 34.126 43.2507 34.3073 43.3188 34.5C43.3869 34.687 43.421 34.8853 43.421 35.0837C43.421 35.2707 43.3813 35.452 43.3188 35.622C43.2507 35.8203 43.1542 36.013 43.0407 36.1943C42.9328 36.3643 42.7966 36.5173 42.6376 36.6477H42.6546Z" fill="white"/>
<path d="M49.4667 35.0327C49.2112 34.1203 48.9558 33.3043 48.706 32.596H47.8545C47.741 32.596 47.6274 32.6073 47.5196 32.6243C47.2528 33.3383 46.986 34.1487 46.7192 35.061C46.4978 35.8317 46.2707 36.7667 46.0323 37.8547C45.7825 38.9483 45.5611 40.178 45.3738 41.5437H45.4873C45.527 41.5437 45.5725 41.5437 45.6122 41.5437H45.9358C45.9812 41.5437 46.0323 41.5437 46.0777 41.5437H46.2196C46.2877 41.0507 46.3558 40.586 46.424 40.144C46.4921 39.702 46.5716 39.2713 46.6567 38.835H49.5178C49.6029 39.2713 49.6767 39.7077 49.7505 40.144C49.8243 40.5803 49.8981 41.0563 49.9662 41.5437H50.0911C50.1365 41.5437 50.1876 41.5437 50.233 41.5437H50.585C50.6304 41.5437 50.6758 41.5437 50.7212 41.5437H50.8404C50.6361 40.178 50.4033 38.9313 50.1536 37.8547C49.9038 36.778 49.671 35.809 49.4496 35.0327H49.4667ZM46.7759 38.1323C46.9349 37.3843 47.0881 36.71 47.2357 36.1093C47.3833 35.5087 47.5252 34.993 47.6728 34.568C47.8204 34.143 47.951 33.6387 48.0816 33.259H48.1497C48.2689 33.6443 48.4051 34.0863 48.547 34.568C48.689 35.0497 48.8025 35.5087 48.9558 36.1093C49.109 36.71 49.2566 37.3787 49.3929 38.1323H46.7759Z" fill="white"/>
<path d="M56.8236 32.5677H56.4149L56.4433 40.9713H56.3695L53.3154 32.5677H52.146C52.0325 32.5677 51.9019 32.5677 51.76 32.596V41.5437H52.6172V33.1513H52.7023L55.711 41.5437H56.8974C57.028 41.5437 57.1529 41.5323 57.2834 41.5153V32.5903H57.0791L56.8293 32.562L56.8236 32.5677Z" fill="white"/>
<path d="M65.4409 40.79H64.2829V39.617C64.2829 39.2657 64.2829 38.8577 64.3112 38.3987C64.3396 37.9397 64.3112 37.4467 64.3112 36.9253V36.6703C64.3169 36.047 64.2658 35.4237 64.1637 34.806C64.0955 34.3413 63.9309 33.8993 63.6811 33.497C63.4654 33.1683 63.1646 32.9077 62.8069 32.749C62.3925 32.579 61.9441 32.4997 61.4956 32.511C61.0131 32.4997 60.5306 32.579 60.0764 32.749C59.6961 32.902 59.3669 33.1627 59.1284 33.497C58.8616 33.888 58.68 34.3357 58.5891 34.806C58.4699 35.418 58.4132 36.047 58.4188 36.6703V37.1463C58.4188 37.7583 58.4699 38.3703 58.5891 38.9767C58.68 39.464 58.8559 39.923 59.1114 40.348C59.3328 40.7107 59.6507 41.011 60.0253 41.2207C60.4397 41.4303 60.8996 41.5323 61.3594 41.521H65.4012C65.4012 41.4813 65.4012 41.4247 65.4296 41.3567C65.4296 41.2773 65.4296 41.1923 65.4296 41.113V40.9543C65.4296 40.8977 65.4296 40.8467 65.4296 40.79H65.4409ZM63.4314 40.79H61.3934C60.7463 40.8127 60.1446 40.4443 59.8778 39.855C59.4974 39.0107 59.3271 38.087 59.3782 37.1633V36.676C59.3725 36.1377 59.4123 35.5993 59.5031 35.0667C59.5599 34.6927 59.6904 34.33 59.8891 34.007C60.0481 33.752 60.2808 33.5537 60.559 33.429C60.8655 33.2987 61.1947 33.242 61.5297 33.2477C61.8305 33.242 62.1314 33.2987 62.4039 33.429C62.6537 33.5593 62.8637 33.7633 62.9999 34.007C63.1759 34.3357 63.2894 34.6927 63.3349 35.0667C63.4087 35.5993 63.4427 36.1377 63.437 36.676L63.4484 40.79H63.4314Z" fill="white"/>
<path d="M69.8007 41.47C70.0959 41.3737 70.357 41.1867 70.55 40.943C70.743 40.6937 70.8679 40.4047 70.919 40.093C70.9871 39.7133 71.0212 39.328 71.0155 38.937V32.5903C70.9474 32.5903 70.8793 32.5903 70.8168 32.5903H70.147V39.124C70.147 39.379 70.1299 39.6283 70.1016 39.8833C70.0789 40.0873 70.0051 40.28 69.8915 40.4443C69.7666 40.603 69.602 40.7277 69.409 40.79C69.1252 40.875 68.83 40.9147 68.5348 40.909C68.2396 40.9203 67.9444 40.8807 67.6606 40.79C67.4676 40.722 67.2916 40.603 67.1667 40.4443C67.0532 40.2743 66.9794 40.0817 66.951 39.8833C66.9113 39.634 66.8942 39.379 66.8942 39.124V32.5903H66.02V38.9483C66.02 39.3337 66.0427 39.719 66.1052 40.0987C66.1506 40.416 66.2755 40.7163 66.4685 40.9713C66.6785 41.2093 66.951 41.3793 67.2519 41.47C67.6663 41.606 68.0977 41.6627 68.5348 41.6513C68.9662 41.6683 69.392 41.606 69.8007 41.47Z" fill="white"/>
<path d="M72.7015 32.5734H72.4688V41.538H73.167C73.2408 41.5437 73.3146 41.5437 73.3827 41.538V32.5904H72.9229L72.7015 32.5734Z" fill="white"/>
<path d="M75.5908 32.579H74.8301V41.5436H78.5142C78.5142 41.5096 78.5142 41.47 78.5142 41.436C78.5142 41.3963 78.5142 41.3623 78.5142 41.3226C78.5142 41.2716 78.5142 41.2206 78.5142 41.1696V41.045C78.5142 41.011 78.5142 40.9713 78.5142 40.9373C78.5142 40.9033 78.5142 40.875 78.5142 40.841H75.6986V32.5903L75.5908 32.579Z" fill="white"/>
<path d="M80.206 32.579H79.4453V41.5436H83.1181C83.1181 41.5096 83.1181 41.47 83.1181 41.436C83.1181 41.3963 83.1181 41.3623 83.1181 41.3226C83.1181 41.2716 83.1181 41.2206 83.1181 41.1696V41.045C83.1181 41.011 83.1181 40.9713 83.1181 40.9373C83.1125 40.9033 83.1125 40.875 83.1181 40.841H80.3252V32.5903L80.206 32.579Z" fill="white"/>
<path d="M87.1769 32.5903H86.3254C86.2119 32.5903 86.0983 32.6017 85.9905 32.6187C85.7293 33.327 85.4569 34.143 85.19 35.0553C84.9687 35.843 84.7359 36.7837 84.4861 37.8773C84.2364 38.971 84.015 40.2007 83.8276 41.5663H83.9469C83.9866 41.5663 84.0263 41.5663 84.0717 41.5663H84.3953C84.4464 41.5663 84.4918 41.5663 84.5429 41.5663H84.6848C84.7529 41.0733 84.8267 40.6087 84.8892 40.1667C84.9516 39.7247 85.0368 39.294 85.1219 38.8577H88.0057C88.0852 39.294 88.1646 39.7303 88.2384 40.1667C88.3122 40.603 88.386 41.079 88.4541 41.5663H88.5847C88.6301 41.5663 88.6755 41.5663 88.7266 41.5663H89.0842C89.1297 41.5663 89.1751 41.5663 89.2205 41.5663H89.334C89.1297 40.2007 88.8969 38.954 88.6472 37.8773C88.3974 36.8007 88.1646 35.8033 87.9205 35.027C87.6708 34.1147 87.4267 33.2987 87.1769 32.5903ZM85.2411 38.1323C85.3944 37.3843 85.5534 36.71 85.7009 36.1093C85.8485 35.5087 85.9905 34.993 86.1153 34.568C86.2402 34.143 86.3992 33.6387 86.5241 33.259H86.6035C86.7284 33.6443 86.859 34.0863 87.0066 34.568C87.1542 35.0497 87.262 35.5087 87.4096 36.1093C87.5572 36.71 87.7105 37.3787 87.8467 38.1323H85.2355H85.2411Z" fill="white"/>
<path d="M97.3609 48.253C75.5454 41.3567 61.5864 51.4943 61.5864 51.4943C74.5293 44.8473 95.1584 51.4943 95.1584 51.4943C118.649 57.0647 128.719 46.3433 128.719 46.3433C114.726 53.9027 97.3609 48.253 97.3609 48.253Z" fill="white"/>
<path d="M117.842 20.0217C116.911 19.7837 115.963 19.608 115.004 19.5003C109.844 18.6673 94.8916 19.965 94.8916 19.965C72.1281 22.906 63.2781 28.4593 63.2781 28.4593L62.8013 28.6973C62.8013 28.6973 72.287 20.9113 105.706 16.3837C105.706 16.3837 121.742 13.9357 122.401 20.0897C122.424 20.713 122.276 21.3307 121.964 21.869L121.776 22.2147L119.733 25.66L119.171 26.612C117.581 29.3037 115.617 32.6243 113.818 35.69V35.7183L113.795 35.758C113.602 36.0867 113.466 36.4437 113.392 36.812C113.33 37.2483 113.364 37.696 113.494 38.121C113.801 38.8463 114.289 39.481 114.919 39.957C115.822 40.6427 116.628 41.4417 117.315 42.337L117.343 42.371C117.979 43.2323 118.41 44.2183 118.62 45.261C118.705 45.6747 118.751 46.094 118.756 46.5133C118.756 46.5133 118.569 44.0087 115.123 41.2547C114.896 41.0733 114.652 40.8863 114.397 40.6993L114.346 40.654C114.141 40.484 112.677 39.5093 112.489 39.345C109.872 37.1293 111.428 34.5963 111.428 34.5963L117.684 22.6397C118.092 21.818 118.149 20.8717 117.842 20.0103V20.0217Z" fill="white"/>
<path d="M131.84 13.36L130.64 12.48L132.56 10.06L129.56 9.2L130.04 7.78L132.92 8.86L132.8 5.78H134.3L134.18 8.86L137.1 7.78L137.54 9.2L134.58 10.04L136.48 12.48L135.28 13.36L133.56 10.76L131.84 13.36Z" fill="white" fill-opacity="0.4"/>
</svg>
