<svg width="151" height="68" viewBox="0 0 151 68" fill="none" xmlns="http://www.w3.org/2000/svg">
<path d="M88.9026 23.8907C88.3747 22.78 86.7171 19.5387 85.3149 17C83.3905 13.5207 79.9618 7.79732 79.5701 7.27599C79.1841 6.76032 78.9684 6.73765 78.6164 6.70365H78.5654C78.0488 6.64132 75.8462 6.61865 74.5292 6.61865C73.3939 6.61865 70.987 6.64699 70.4307 6.70365C69.9027 6.75465 69.7551 6.91899 69.4599 7.30999C69.0455 7.84832 65.5544 13.736 63.7435 17.0113C62.4265 19.3743 60.3489 23.4657 60.1558 23.902C59.9799 24.2987 59.9004 24.6103 59.9004 24.888C59.9004 25.1827 59.9799 25.4943 60.1558 25.874C60.5929 26.8203 61.9099 29.4327 63.7435 32.7647C65.6622 36.244 69.1193 41.9843 69.4826 42.4887C69.8743 43.0157 70.1241 43.0383 70.4761 43.0723C71.0097 43.1177 73.3087 43.1517 74.5349 43.1517C75.8633 43.1517 78.2588 43.1007 78.5937 43.0723C78.923 43.044 79.2068 43.0157 79.5872 42.4887C79.9391 42.007 83.6574 35.8133 85.332 32.7647C86.9328 29.8407 88.7153 26.333 88.9196 25.874C89.1467 25.3697 89.1751 25.1033 89.1751 24.888C89.1751 24.718 89.1467 24.3723 88.9196 23.902L88.9026 23.8907ZM79.519 25.942C77.5719 30.1183 72.3153 39.8083 71.2254 41.6557C71.1516 41.7747 71.0948 41.8653 71.0551 41.9333C70.8905 42.177 70.7542 42.3243 70.635 42.3187C70.635 42.3187 72.5764 38.7657 74.0978 34.9633C72.3948 31.8183 70.9245 28.9113 69.511 25.9193C69.2613 25.3867 69.1364 25.126 69.142 24.8653C69.142 24.6047 69.2726 24.344 69.5167 23.8113C71.5546 19.431 76.5558 10.03 78.0034 7.78599C78.1737 7.52532 78.2588 7.42899 78.3837 7.42899H78.3951C78.3951 7.42899 76.3741 11.1973 74.9379 14.7843C76.641 17.9293 78.1169 20.842 79.5304 23.834C79.7802 24.3667 79.8994 24.616 79.8994 24.8823C79.8994 25.1487 79.7688 25.4093 79.519 25.9477V25.942Z" fill="white"/>
<path d="M108.203 53.2383V54.723H105.098V61.268H103.009V54.723H99.9041V53.2383H108.203Z" fill="white"/>
<path d="M100.801 59.7777V61.268H94.1479V53.2383H96.237V59.7777H100.801Z" fill="white"/>
<path d="M60.5136 59.7777V61.268H53.5256V53.2383H60.3774V54.723H55.6147V56.4853H59.9687V57.9303H55.6147V59.7777H60.5136Z" fill="white"/>
<path d="M49.7733 58.2817C50.6645 57.7943 51.2208 56.8423 51.2208 55.8393C51.2208 55.0007 50.9767 54.3547 50.4658 53.9297C49.8698 53.4367 49.058 53.2327 47.6786 53.2327H42.8818L42.7966 53.7143C42.7966 53.7143 42.8818 53.856 42.984 54.0317C43.1316 54.2867 43.1202 54.366 43.1202 54.536V61.2623H45.2149V58.6953H47.8148L49.2056 61.2623H51.5104L49.7733 58.276V58.2817ZM48.7174 56.9783C48.5585 57.137 48.3655 57.2107 48.0703 57.2107H45.2149V54.7627H47.4686C48.1441 54.7627 48.496 54.842 48.7401 55.0347C48.9785 55.2217 49.0921 55.5107 49.0921 55.9357C49.0921 56.3607 48.9729 56.729 48.7174 56.9783Z" fill="white"/>
<path d="M69.2727 53.2383V58.565C68.7845 57.9473 68.2736 57.358 67.4051 56.4117C66.7012 55.6353 65.2309 54.0543 64.4759 53.244H62.455L62.3699 53.7257C62.3699 53.7257 62.455 53.8673 62.5572 54.043C62.6707 54.23 62.6934 54.3263 62.6934 54.4283V61.268H64.5724V55.947C64.9471 56.4513 65.6169 57.2163 66.0597 57.698C66.951 58.6557 68.2907 60.1517 69.3352 61.2737H71.146V53.244H69.2727V53.2383Z" fill="white"/>
<path d="M89.7655 53.2383V58.1513C89.7655 58.701 89.6577 59.024 89.3908 59.2733C89.0502 59.585 88.4939 59.738 87.6878 59.738C86.8817 59.738 86.297 59.5907 85.9564 59.2733C85.6896 59.024 85.5818 58.6953 85.5818 58.1513V53.2383H83.2543L83.1692 53.72C83.1692 53.72 83.2543 53.8617 83.3565 54.0373C83.4644 54.2243 83.4871 54.3093 83.4928 54.4113V58.2193C83.4928 60.316 84.9233 61.387 87.6651 61.387H87.7219C90.4694 61.387 91.8205 60.3443 91.8205 58.2193V53.2327H89.7769L89.7655 53.2383Z" fill="white"/>
<path d="M78.821 53.2383H76.204C75.4149 54.876 74.0298 57.8907 72.7412 61.268H74.8416C75.0062 60.809 75.1879 60.3443 75.3638 59.8797H79.6611C79.8428 60.3443 80.0187 60.8147 80.1834 61.268H82.2837C80.9894 57.8907 79.61 54.8703 78.821 53.2383ZM75.9656 58.361C76.5162 56.9897 77.0668 55.6977 77.5096 54.6947C77.9581 55.6977 78.5087 56.9897 79.0537 58.361H75.9599H75.9656Z" fill="white"/>
<path d="M96.84 12.86L95.64 11.98L97.56 9.56L94.56 8.7L95.04 7.28L97.92 8.36L97.8 5.28H99.3L99.18 8.36L102.1 7.28L102.54 8.7L99.58 9.54L101.48 11.98L100.28 12.86L98.56 10.26L96.84 12.86Z" fill="white" fill-opacity="0.4"/>
</svg>
