<svg width="151" height="68" viewBox="0 0 151 68" fill="none" xmlns="http://www.w3.org/2000/svg">
<path fill-rule="evenodd" clip-rule="evenodd" d="M79.9051 33.5297C79.9051 33.5297 79.0196 32.9857 78.4746 32.7703C78.4746 32.7703 76.783 31.9883 76.4424 31.6143C76.4424 31.6143 75.7838 30.991 76.1699 30.2713C76.1699 30.2713 76.3288 29.801 77.027 29.801C77.027 29.801 77.9353 29.852 77.9353 30.5943V31.6483H81.1881V30.1013C81.1881 30.1013 81.4322 27.5683 77.3506 27.455C77.3506 27.455 74.1376 27.2453 73.218 28.9737C73.218 28.9737 72.8547 29.359 72.8547 30.702V31.671C72.8547 31.671 72.8149 32.7873 73.3883 33.5127C73.3883 33.5127 73.7119 33.983 74.5066 34.5043C74.5066 34.5043 76.1245 35.377 77.0952 35.87C77.0952 35.87 78.0772 36.431 77.9467 37.315C77.9467 37.315 77.8672 38.2273 76.9192 38.1877C76.9192 38.1877 76.0507 38.148 76.0507 37.2527V36.2043H72.5822V37.7287C72.5822 37.7287 72.4857 40.647 76.9419 40.647C76.9419 40.647 81.1994 40.732 81.3981 37.6493V36.4083C81.3981 36.4083 81.5457 34.5213 79.8938 33.524H79.9051V33.5297Z" fill="#1D1D1B"/>
<path fill-rule="evenodd" clip-rule="evenodd" d="M63.2384 27.8177L62.1485 34.6347H61.893L60.8542 27.88H55.4159L55.1434 40.2277H58.3621L58.4019 30.923H58.6573L60.3603 40.222H63.7493L65.4353 30.9287H65.6567L65.7361 40.2277H68.9719L68.6256 27.8177H63.2384Z" fill="#1D1D1B"/>
<path fill-rule="evenodd" clip-rule="evenodd" d="M44.0795 27.8687L41.9337 40.2107H45.4022L46.6681 30.6397H46.9519L48.2235 40.2107H51.6863L49.5462 27.8687H44.0795Z" fill="#1D1D1B"/>
<path fill-rule="evenodd" clip-rule="evenodd" d="M116.798 33.3597V35.1787H117.689V37.1337C117.689 38.0913 116.872 38.1083 116.872 38.1083C115.878 38.1083 115.912 37.2017 115.912 37.2017V30.4413C115.912 29.7443 116.792 29.7103 116.792 29.7103C117.638 29.7103 117.644 30.5433 117.644 30.5433V31.569H120.908C121.016 29.563 120.613 29.0757 120.613 29.0757C119.801 27.2623 116.741 27.3587 116.741 27.3587C112.035 27.3587 112.557 30.9627 112.557 30.9627V37.502C112.66 40.8793 117.292 40.5393 117.371 40.5337C119.432 40.307 120.056 39.6497 120.056 39.6497C120.63 39.2247 120.777 38.6353 120.777 38.6353C120.942 38.2897 120.982 37.2017 120.982 37.2017V33.3597H116.792H116.798Z" fill="#1D1D1B"/>
<path fill-rule="evenodd" clip-rule="evenodd" d="M105.978 35.3714H105.836L102.527 27.8234H98.5645V40.2277H101.789L101.596 32.6797H101.738L105.172 40.2277H109.015V27.8177H105.751L105.978 35.3714Z" fill="#1D1D1B"/>
<path fill-rule="evenodd" clip-rule="evenodd" d="M90.6965 37.1336C90.6965 37.1336 90.7419 38.1536 89.7996 38.1536C89.7996 38.1536 88.8062 38.2046 88.8062 37.162L88.7948 27.829H85.2583V37.0883C85.2583 37.0883 84.8949 40.5903 89.8507 40.5903C89.8507 40.5903 94.1536 40.6413 94.1536 37.247V27.829H90.6965V37.1336Z" fill="#1D1D1B"/>
<path fill-rule="evenodd" clip-rule="evenodd" d="M37.3356 33.5297C37.3356 33.5297 36.45 32.9857 35.9051 32.7703C35.9051 32.7703 34.2134 31.9883 33.8785 31.6143C33.8785 31.6143 33.22 30.991 33.606 30.2713C33.606 30.2713 33.765 29.801 34.4632 29.801C34.4632 29.801 35.3715 29.852 35.3715 30.5943V31.6483H38.6299V30.1013C38.6299 30.1013 38.874 27.5683 34.7868 27.455C34.7868 27.455 34.4802 27.438 34.0261 27.455C34.0261 27.455 31.5511 27.5853 30.6712 28.9397C30.6712 28.951 30.6598 28.9567 30.6541 28.968C30.6541 28.968 30.2908 29.3533 30.2908 30.6963V31.6653C30.2908 31.6653 30.2511 32.7817 30.8244 33.507C30.8244 33.507 31.148 33.9773 31.9428 34.4987C31.9428 34.4987 33.5606 35.3657 34.5313 35.8643C34.5313 35.8643 35.5134 36.4253 35.3828 37.315C35.3828 37.315 35.3034 38.2273 34.3553 38.1877C34.3553 38.1877 33.4868 38.148 33.4868 37.2527V36.2043H30.0184V37.7287C30.0184 37.7287 29.9219 40.647 34.3781 40.647C34.3781 40.647 38.6356 40.732 38.8343 37.6493V36.4083C38.8343 36.4083 38.9819 34.5213 37.3299 33.524H37.3356V33.5297Z" fill="#1D1D1B"/>
<path d="M128.84 18.86L127.64 17.98L129.56 15.56L126.56 14.7L127.04 13.28L129.92 14.36L129.8 11.28H131.3L131.18 14.36L134.1 13.28L134.54 14.7L131.58 15.54L133.48 17.98L132.28 18.86L130.56 16.26L128.84 18.86Z" fill="black" fill-opacity="0.4"/>
</svg>
