<svg width="151" height="69" viewBox="0 0 151 69" fill="none" xmlns="http://www.w3.org/2000/svg">
<path d="M117.576 13.25C118.331 11.7144 119.046 10.156 119.812 8.61469C120.017 10.19 120.232 11.7484 120.454 13.3237C121.975 12.8137 123.462 12.2074 125.006 11.7654C123.922 13.0857 122.878 14.44 121.833 15.7944C122.969 16.6897 124.11 17.551 125.228 18.452C123.707 18.6164 122.179 18.69 120.658 18.8204C120.601 20.4297 120.494 22.0617 120.403 23.6937C119.523 22.5207 118.717 21.3137 117.871 20.1237C116.605 21.2797 115.322 22.43 114.09 23.62C114.567 21.971 115.044 20.322 115.504 18.673C114.033 18.4917 112.552 18.2877 111.082 18.0894C112.512 17.2847 113.96 16.4574 115.396 15.6357C114.811 14.2247 114.204 12.8364 113.636 11.4254C114.936 12.0657 116.276 12.6154 117.581 13.2557L117.576 13.25Z" fill="black" stroke="#273896" stroke-width="0.09" stroke-miterlimit="10"/>
<path d="M74.4442 22.3847C75.7271 22.277 77.01 22.2033 78.2759 22.1127C77.3563 26.986 76.4424 31.8367 75.5057 36.693C75.0629 38.8917 74.0354 41.1243 72.1848 42.4787C70.2207 43.9633 67.6321 44.326 65.2309 44.2183C63.1021 44.1107 60.8655 43.3967 59.4861 41.674C58.0726 39.8607 57.9988 37.3503 58.663 35.2253C59.3612 32.6243 61.3594 30.4653 63.8344 29.4397C66.7863 28.1023 70.1072 28.3233 73.2634 28.414C73.6494 26.3967 74.0525 24.385 74.4385 22.3903L74.4442 22.3847Z" fill="black" stroke="#273896" stroke-width="0.09" stroke-miterlimit="10"/>
<path d="M103.435 34.4547C107.307 31.1567 110.792 27.4223 114.079 23.5577C112.592 28.669 109.713 33.3723 105.825 36.999C104.905 37.73 104.065 38.5913 103.038 39.2147C99.6827 41.487 95.7147 42.949 91.6445 42.9887L91.7354 42.915C94.9484 41.045 98.0308 38.9767 100.909 36.6307C101.755 35.9167 102.652 35.2367 103.441 34.449L103.435 34.4547Z" fill="black" stroke="#EC1C25" stroke-width="0.09" stroke-miterlimit="10"/>
<path d="M47.548 28.5953C49.6938 28.3743 52.0269 28.5387 53.9343 29.655C55.3478 30.4597 56.3753 31.9273 56.5967 33.5537C56.8919 35.7353 56.2107 38.002 54.9845 39.7983C53.1339 42.49 49.9379 44.0653 46.7306 44.343C44.6189 44.5073 42.3652 44.343 40.4919 43.2267C39.0443 42.3823 38.0169 40.8467 37.8522 39.158C37.6138 36.778 38.4369 34.3413 39.9413 32.494C41.8146 30.2217 44.6586 28.8843 47.5537 28.5953H47.548Z" fill="black" stroke="#273896" stroke-width="0.09" stroke-miterlimit="10"/>
<path d="M80.2059 31.474C82.4426 29.315 85.6556 28.414 88.721 28.4877C90.3332 28.5217 92.0986 28.7823 93.3645 29.859C94.6304 30.9583 94.795 32.919 94.0968 34.364C93.4553 35.6277 92.1894 36.4493 90.9065 36.965C87.8411 38.121 84.4691 37.9907 81.2902 37.424C81.1085 39.1807 81.8749 41.0677 83.4757 41.946C85.9905 43.2833 88.9821 43.2097 91.7296 42.915L91.6388 42.9887C89.2546 44.6207 86.2062 45.0967 83.3849 44.6207C81.5343 44.326 79.661 43.4873 78.5029 41.963C77.5493 40.807 77.1632 39.2713 77.2938 37.7867C77.4017 35.4067 78.4519 33.0777 80.2116 31.4683L80.2059 31.474Z" fill="black" stroke="#273896" stroke-width="0.09" stroke-miterlimit="10"/>
<path d="M121.487 28.5954C123.689 28.2837 126.04 28.3404 128.095 29.3094C129.729 30.0404 131.012 31.5817 131.308 33.3554C131.694 35.537 131.052 37.8264 129.86 39.6737C128.151 42.3314 125.126 43.9974 122.026 44.4337C119.841 44.7284 117.53 44.615 115.515 43.663C113.954 42.932 112.728 41.504 112.398 39.8154C111.978 37.747 112.506 35.5824 113.534 33.769C115.186 30.913 118.268 29.06 121.498 28.584L121.487 28.5954Z" fill="black" stroke="#273896" stroke-width="0.09" stroke-miterlimit="10"/>
<path d="M27.2027 29.2923C28.8887 28.8333 30.6541 28.652 32.3969 28.669C34.3213 28.652 36.2684 28.7767 38.1587 29.111C37.8863 29.842 37.6081 30.556 37.3697 31.2927C34.6335 31.0887 31.8122 30.9073 29.0931 31.5307C28.2699 31.7517 27.2027 32.0803 26.9813 33.0493C26.9473 33.7803 27.6228 34.2053 28.2472 34.3867C30.1943 34.9193 32.2834 34.8457 34.1169 35.707C34.9798 36.0923 35.7121 36.8403 35.8597 37.7923C36.0981 39.277 35.678 40.9033 34.6278 42.0253C33.4357 43.306 31.676 43.8727 30.007 44.1843C26.5385 44.734 22.9622 44.4393 19.5846 43.578C19.7662 42.8073 19.9876 42.0423 20.1693 41.2717C23.0871 41.64 26.0787 42.0933 28.9966 41.4927C30.0978 41.2547 31.3467 40.671 31.5454 39.4413C31.7668 38.6367 31.0515 37.9963 30.3533 37.7923C28.5027 37.2257 26.5215 37.3503 24.705 36.676C23.9159 36.3813 23.1439 35.8543 22.8544 35.044C22.3037 33.633 22.8203 31.967 23.9159 30.9753C24.8696 30.1537 26.0049 29.621 27.2027 29.2923Z" fill="black" stroke="#273896" stroke-width="0.09" stroke-miterlimit="10"/>
<path d="M95.2322 28.669C96.4243 28.669 97.6335 28.686 98.8256 28.669C100.296 30.6467 101.874 32.5507 103.52 34.364L103.429 34.4547C102.64 35.2423 101.743 35.9223 100.898 36.6363C98.8426 34.109 96.9523 31.4343 95.2266 28.669H95.2322Z" fill="black" stroke="#273896" stroke-width="0.09" stroke-miterlimit="10"/>
<path d="M65.7134 31.8537C67.8421 30.7543 70.3172 30.7713 72.6503 31.032C72.2302 32.9757 71.8612 34.9137 71.4582 36.8403C71.2368 38.07 70.777 39.3337 69.8233 40.1723C68.6482 41.2547 66.9452 41.4927 65.4182 41.3057C64.3567 41.215 63.2156 40.6993 62.7218 39.6963C62.1144 38.5403 62.3187 37.169 62.6309 35.962C63.051 34.2563 64.1182 32.664 65.7134 31.8593V31.8537Z" fill="white" stroke="white" stroke-width="0.09" stroke-miterlimit="10"/>
<path d="M85.1787 31.508C86.4787 30.9243 88.0057 30.6863 89.4192 31.049C90.0777 31.2133 90.6851 31.763 90.7192 32.494C90.8838 33.65 89.8733 34.5453 88.8856 34.891C86.6092 35.6446 84.1512 35.4576 81.8408 35.0723C82.4993 33.5536 83.6574 32.1993 85.1787 31.5023V31.508Z" fill="white" stroke="white" stroke-width="0.09" stroke-miterlimit="10"/>
<path d="M47.162 31.3267C48.5584 30.998 50.1706 31.1227 51.306 32.0577C52.2426 32.8793 52.5548 34.2167 52.4072 35.4067C52.2426 36.761 51.7487 38.1153 50.8859 39.1977C49.6938 40.7333 47.7296 41.6683 45.7882 41.5947C44.7267 41.5947 43.5857 41.3397 42.8363 40.552C42.3027 40.0023 42.0473 39.2543 42.0132 38.5007C41.8827 35.35 43.9774 32.052 47.1677 31.321L47.162 31.3267Z" fill="white" stroke="white" stroke-width="0.09" stroke-miterlimit="10"/>
<path d="M121.816 31.287C123.139 30.9923 124.66 31.066 125.778 31.8933C126.658 32.5337 127.101 33.616 127.118 34.6757C127.152 37.407 125.557 40.2063 122.974 41.249C121.527 41.8327 119.835 41.929 118.37 41.3397C117.36 40.9543 116.645 39.9457 116.554 38.869C116.259 35.554 118.461 32.018 121.822 31.287H121.816Z" fill="white" stroke="white" stroke-width="0.09" stroke-miterlimit="10"/>
<path d="M103.026 39.2203C104.054 38.597 104.9 37.7356 105.813 37.0046C108.073 39.4753 110.366 41.912 112.66 44.3486C111.064 44.3146 109.447 44.3656 107.851 44.3316C107.431 44.0766 107.153 43.6913 106.807 43.3626C105.484 42.0253 104.201 40.671 103.026 39.226V39.2203Z" fill="black" stroke="#273896" stroke-width="0.09" stroke-miterlimit="10"/>
<path d="M141.84 20.86L140.64 19.98L142.56 17.56L139.56 16.7L140.04 15.28L142.92 16.36L142.8 13.28H144.3L144.18 16.36L147.1 15.28L147.54 16.7L144.58 17.54L146.48 19.98L145.28 20.86L143.56 18.26L141.84 20.86Z" fill="black" fill-opacity="0.4"/>
</svg>
